<svg xmlns="http://www.w3.org/2000/svg" width="204" height="36.187" viewBox="0 0 204 36.187"><defs><style>.a{fill:#fff;}.b{fill:none;stroke:#fff;stroke-width:2px;}</style></defs><g transform="translate(-1268 -2777.603)"><g transform="translate(13 -52)"><g transform="translate(359.5 -95)"><g transform="matrix(0.914, 0.407, -0.407, 0.914, 912.906, 2663.552)"><path class="a" d="M188.211,365.056c-.863.3-1.563.58-2.283.788a6.92,6.92,0,0,0-4.459,3.8c-.363.742-.71,1.5-1.133,2.2a5.811,5.811,0,0,1-4.66,2.8,1.186,1.186,0,0,1-.874-.454,4.093,4.093,0,0,1-.476-4.136c1.351-3.6,6.034-6.895,9.882-6.948A4.455,4.455,0,0,1,188.211,365.056Z" transform="translate(0 -137.099)"/><path class="a" d="M221.325,208.284c-.137.859-.209,1.577-.371,2.274a7.182,7.182,0,0,0,1.622,6.484,6.419,6.419,0,0,1,1.313,6.571,1.137,1.137,0,0,1-1.135.878,4.39,4.39,0,0,1-4.268-2.384,11.973,11.973,0,0,1-1.106-10.49A4.635,4.635,0,0,1,221.325,208.284Z" transform="translate(-37.103 -2.47)"/><path class="a" d="M336.384,296.343a14.658,14.658,0,0,1-1.155,1.329,7.5,7.5,0,0,0-2.483,6.505,11.961,11.961,0,0,1-.07,2.763,5.614,5.614,0,0,1-2.564,3.738,1.289,1.289,0,0,1-1.065.049,3.835,3.835,0,0,1-2.378-3.5,11.617,11.617,0,0,1,5.284-10.671A4.116,4.116,0,0,1,336.384,296.343Z" transform="translate(-132.754 -78.567)"/><path class="a" d="M260.643,221.484c.155-.776.258-1.358.389-1.933a4.952,4.952,0,0,0-1.155-4.81c-2.417-2.465-2.6-5.333-1.9-8.475.168-.75.5-.889,1.155-.8a4.86,4.86,0,0,1,3.368,2.074,10.657,10.657,0,0,1,1.143,11.072A5.141,5.141,0,0,1,260.643,221.484Z" transform="translate(-72.727 0)"/><path class="a" d="M359.273,319.009c.61-.528,1.039-.878,1.444-1.253a5.3,5.3,0,0,0,1.721-5.2c-.685-3.389,1-5.783,3.283-7.916a1.07,1.07,0,0,1,.994.079,5,5,0,0,1,1.9,4.372,10.755,10.755,0,0,1-5.019,9.164A5.352,5.352,0,0,1,359.273,319.009Z" transform="translate(-161.123 -86.176)"/><path class="a" d="M191.324,395.821c.823-.239,1.488-.42,2.145-.625a4.946,4.946,0,0,0,3.478-3.385c1.011-3.384,3.616-4.8,6.729-5.6a1.053,1.053,0,0,1,.87.483,4.693,4.693,0,0,1,.016,3.852,10.849,10.849,0,0,1-9.577,6.595A4.983,4.983,0,0,1,191.324,395.821Z" transform="translate(-15.08 -157.183)"/></g><line class="b" x2="63" transform="translate(1036.5 2944.5)"/><line class="b" x2="63" transform="translate(895.5 2944.5)"/></g></g></g></svg>