<svg xmlns="http://www.w3.org/2000/svg" width="313.241" height="309.632" viewBox="0 0 313.241 309.632"><defs><style>.a{fill:none;}.b{fill:#af9375;}</style></defs><g transform="matrix(-0.407, 0.914, -0.914, -0.407, 115.973, -442.121)"><line class="a" y1="0.978" transform="translate(469.808 -397.283)"/><line class="a" y1="0.005" x2="0.005" transform="translate(548.894 -320.988)"/><line class="a" y1="0.002" x2="0.002" transform="translate(578.048 -242.763)"/><line class="a" x1="0.005" y1="0.005" transform="translate(597.262 -241.439)"/><line class="a" transform="translate(598.892 -239.84)"/><line class="a" transform="translate(517.725 -327.852)"/><line class="a" x1="0.002" y1="0.002" transform="translate(543.926 -233.482)"/><line class="a" transform="translate(575.068 -232.819)"/><line class="a" x2="0.007" y2="0.008" transform="translate(568.439 -230.17)"/><line class="a" transform="translate(612.504 -337.558)"/><line class="a" transform="translate(431.669 -337.631)"/><line class="a" x1="0.005" y2="0.005" transform="translate(600.575 -227.849)"/><line class="a" transform="translate(445.865 -226.189)"/><line class="a" transform="translate(546.909 -349.159)"/><line class="a" x2="0.008" y2="0.008" transform="translate(416.707 -350.489)"/><line class="a" transform="translate(488.933 -350.817)"/><line class="a" y1="0.001" x2="0.001" transform="translate(599.252 -219.229)"/><line class="a" y1="0.001" transform="translate(599.252 -219.229)"/><line class="a" x2="0.006" y2="0.006" transform="translate(498.868 -352.145)"/><line class="a" x2="0.004" y2="0.004" transform="translate(455.802 -353.139)"/><line class="a" x2="0.001" y2="0.001" transform="translate(456.134 -353.469)"/><line class="a" x1="0.004" y2="0.004" transform="translate(457.458 -356.122)"/><line class="a" x1="0.002" y2="0.002" transform="translate(498.871 -287.178)"/><line class="a" y1="0.01" x2="0.009" transform="translate(519.738 -208.626)"/><line class="a" x2="0.008" y2="0.008" transform="translate(545.248 -168.188)"/><line class="a" x2="0.001" y2="0.001" transform="translate(434.27 -291.818)"/><line class="a" y1="0.003" x2="0.003" transform="translate(583.018 -409.817)"/><line class="a" y1="0.003" x2="0.004" transform="translate(590.305 -184.427)"/><line class="a" y1="0.002" x2="0.002" transform="translate(544.257 -167.854)"/><line class="a" transform="translate(501.101 -156.717)"/><line class="a" y1="0.012" x2="0.012" transform="translate(482.964 -294.476)"/><line class="a" x1="0.002" y1="0.002" transform="translate(494.895 -387.609)"/><line class="a" x1="0.008" y1="0.008" transform="translate(545.248 -168.188)"/><line class="a" x2="0.003" y2="0.003" transform="translate(461.103 -405.177)"/><line class="a" y1="0.001" x2="0.001" transform="translate(589.644 -173.488)"/><line class="a" x2="0.005" y2="0.005" transform="translate(529.348 -383.965)"/><line class="a" x1="0.005" y1="0.005" transform="translate(529.348 -383.964)"/><line class="a" x2="0.005" y2="0.005" transform="translate(451.163 -383.302)"/><line class="a" x2="0.003" y2="0.003" transform="translate(585.336 -382.306)"/><line class="a" x1="0.001" y2="0.002" transform="translate(537.963 -379.986)"/><line class="a" x2="0.001" y2="0.001" transform="translate(581.693 -294.47)"/><line class="a" x1="0.006" y1="0.007" transform="translate(538.623 -378.331)"/><line class="a" x1="0.001" y2="0.001" transform="translate(551.215 -259.335)"/><line class="a" x1="0.005" y2="0.005" transform="translate(551.213 -300.769)"/><line class="a" x1="0.005" y2="0.005" transform="translate(503.507 -259.006)"/><line class="a" x1="0.009" y1="0.009" transform="translate(569.432 -294.142)"/><line class="a" transform="translate(647.952 -304.744)"/><line class="a" y1="0.004" x2="0.004" transform="translate(609.52 -276.241)"/><line class="a" x1="0.003" y2="0.003" transform="translate(539.618 -269.943)"/><line class="a" x1="0.005" y2="0.004" transform="translate(558.501 -373.689)"/><line class="a" x1="0.002" y2="0.002" transform="translate(509.803 -373.025)"/><line class="a" transform="translate(459.779 -401.529)"/><line class="a" x1="0.002" y2="0.002" transform="translate(509.803 -373.025)"/><line class="a" x1="0.005" y1="0.005" transform="translate(520.734 -308.392)"/><line class="a" transform="translate(449.509 -372.361)"/><line class="a" x2="0.005" y2="0.005" transform="translate(432.942 -252.045)"/><line class="a" transform="translate(592.046 -371.857)"/><line class="a" x1="0.003" y2="0.003" transform="translate(557.839 -278.229)"/><line class="a" x1="0.001" y1="0.001" transform="translate(512.123 -371.036)"/><line class="a" x1="0.004" y2="0.004" transform="translate(566.121 -280.882)"/><line class="a" x1="0.003" y2="0.003" transform="translate(534.318 -178.461)"/><line class="a" x1="0.001" y2="0.001" transform="translate(513.447 -399.21)"/><line class="a" x2="0.004" y2="0.004" transform="translate(531.336 -313.364)"/><line class="a" x2="0.006" y2="0.006" transform="translate(589.311 -178.794)"/><line class="a" y1="0.001" x2="0.001" transform="translate(441.226 -315.02)"/><line class="a" y1="0.007" x2="0.008" transform="translate(527.36 -247.737)"/><line class="a" transform="translate(605.878 -316.345)"/><path class="b" d="M598.593-387.686c-.148.076-.285.162-.429.242a8.7,8.7,0,0,0-1.851-1.059h0c-3.987-1.674-8.491.088-12.109,2.772-3.591,2.664-6.785,5.712-10.693,7.948-4.183,2.394-8.751,3.849-13.03,6.011-.431.218-.129.89.324.769l.125-.037c-6.283,3.239-11.342,8.883-15.015,14.823-4.585,7.413-5.877,16.447-12.327,22.657a.444.444,0,0,0-.012.606c-5.03,4.455-5.5,12.1-4.634,18.56.955,7.146,2.069,16.5,6.508,22.834a209.774,209.774,0,0,0-16.4-15.714.13.13,0,0,0-.184.184c1.274,1.482,2.6,2.951,3.946,4.411l.277.3q3.039,3.278,6.252,6.459l.036.035c3.6,3.563,7.321,7.011,11.018,10.29a6.255,6.255,0,0,0,1.3,1.1.33.33,0,0,0,.449-.449,7.419,7.419,0,0,0-1.448-1.769c-1.336-4.572,1.6-7.591,5.562-10.255.123-.083.249-.164.375-.246,4.983-3.276,11.376-6.061,12.989-10.629a.443.443,0,0,0-.438-.575c4.266-5.569,12.237-6.673,15.855-12.933,4.461-7.72,1.674-17.856,8.5-24.471a.438.438,0,0,0,.136-.408c8.615-12.1-.414-32.3,15.491-40.466C599.827-387.033,599.248-388.026,598.593-387.686Zm-67.613,78a63.3,63.3,0,0,1-1.123-9.07c-.006-.182-.013-.364-.016-.546-.091-5.109.986-9.975,4.809-13.961a20.54,20.54,0,0,0,5.9-8.15c-.082,1.324-.1,2.638-.079,3.949,0,.2.008.408.013.612a57,57,0,0,0,3.447,17.942c-.279.85-.556,1.7-.827,2.55-.42,1.321-.892,2.686-1.378,4.076-.115.33-.229.661-.345.994-.485,1.384-.977,2.789-1.446,4.214a44.222,44.222,0,0,1-6.183-20.576c-.01-.175-.28-.178-.275,0A40.961,40.961,0,0,0,539.907-307a49.272,49.272,0,0,0-2.563,11.34c-1.3-4.117-2.876-8.13-4-12.311a.115.115,0,0,0-.222.061,53.683,53.683,0,0,0,4.2,12.707c-.041.671-.059,1.34-.046,2-.173.282-.339.566-.5.853A54.385,54.385,0,0,1,530.98-309.683Zm5.946,17.634c.119-.162.238-.327.358-.487q.029.647.1,1.288C537.225-291.516,537.077-291.783,536.926-292.05Zm50.842-79.378c-.8,3.985-1.043,8.046-1.528,12.075a72.119,72.119,0,0,1-3.033,12.685.463.463,0,0,0-.366.141,14.961,14.961,0,0,0-3.171,4.552c-.023.049-.045.1-.066.147-2.612,5.814-1.95,12.8-4.792,18.746-3.481,7.285-13.391,7.921-16.3,15.286-3.751,6.024-10.281,6.967-15.171,11.623-2.575,2.452-3.968,5.817-3.035,9.074-.137-.13-.275-.261-.408-.392-.389-.385-.785-.752-1.192-1.107a.365.365,0,0,0,.04-.482c-.421-.629-.8-1.259-1.183-1.887-.032-.635-.034-1.273-.015-1.915,5.367-7.049,11.51-12.209,19.962-15.582.232-.092.142-.466-.106-.382a38.6,38.6,0,0,0-19.811,15.14c.465-7.551,4.094-15.528,6.4-22.406,1.346-4.007,2.76-8,4.287-11.946a59.377,59.377,0,0,1,27.48-21.071c.288-.11.175-.569-.13-.471a50.7,50.7,0,0,0-27.008,20.658c1.821-4.639,3.812-9.209,6.081-13.646.62-1.215,1.268-2.413,1.93-3.607a63.851,63.851,0,0,1,11.9-11.422c4.769-3.434,9.97-5.611,15.247-8.112.41-.195.115-.815-.3-.712-9.843,2.433-19.07,9.569-25.409,17.739A91.848,91.848,0,0,1,568.8-363.518c5.618-6.248,12.146-10.823,19.151-15.366.369-.239.135-.944-.318-.754-11.412,4.784-20.6,14.62-27.544,25.264-.434.664-.853,1.333-1.269,2-1.894,3.048-3.618,6.138-5.15,9.179-1.379,2.736-2.645,5.522-3.837,8.34a112.636,112.636,0,0,1,3.161-25.794.222.222,0,0,0-.427-.117,54.146,54.146,0,0,0-3.076,12.18l-.017.13a55.821,55.821,0,0,0-.09,14.658c-1.863,4.49-3.518,9.065-5.052,13.679-.031.095-.065.19-.1.285-.077.234-.158.466-.236.7a62.03,62.03,0,0,1-3.147-18.018c0-.034,0-.068,0-.1-.047-1.62-.051-3.248.012-4.884,1.373-3.2,2.461-6.582,3.95-9.6,3.207-6.5,7.819-11.347,13.02-15.9l.016-.014c1.469-1.286,2.983-2.55,4.528-3.82a55.979,55.979,0,0,0,16.091-7.83c5.45-3.936,11.99-11.7,19.284-7.913C592-383.831,589.073-377.879,587.769-371.427Z" transform="translate(-2.346 -0.456)"/><path class="b" d="M569.07-323.284c-12.036,2.7-22.042,11.936-27.922,22.477a.023.023,0,0,0,.04.023A44.419,44.419,0,0,1,556-316.192c.164-.107.328-.215.494-.32a65.966,65.966,0,0,1,12.766-6.08A.359.359,0,0,0,569.07-323.284Z" transform="translate(-2.839 -1.911)"/><path class="b" d="M574.432-337.762a64.068,64.068,0,0,0-31.717,28.6.03.03,0,0,0,.053.03,72.906,72.906,0,0,1,20.021-20.974c.055-.038.109-.079.163-.117a77.969,77.969,0,0,1,11.822-6.727C575.224-337.158,574.9-337.952,574.432-337.762Z" transform="translate(-2.873 -1.591)"/><path class="b" d="M564.1-368.8c-4.1,5.116-5.687,12.41-6.443,18.771-.02.17.277.211.3.041.954-6.852,3.871-12.222,6.622-18.441C564.7-368.718,564.334-369.1,564.1-368.8Z" transform="translate(-3.204 -0.904)"/><path class="b" d="M487.276-250.19c.1-.055.012-.187-.085-.146a16.837,16.837,0,0,0-2.237,1.186l-.1.065a17.836,17.836,0,0,0-6.935,8.246c-.089.214.278.37.378.158A20.959,20.959,0,0,1,487.276-250.19Z" transform="translate(-1.442 -3.523)"/><path class="b" d="M456.937-289.446c-.136.089-.264.188-.4.279a31.721,31.721,0,0,0-12.508,5.468c-.275.207-.04.655.278.475a64.68,64.68,0,0,1,11.178-5.207,40.4,40.4,0,0,0-9.076,8.991,14.362,14.362,0,0,0-6.069,6.816c-.076.178.184.334.263.155a15.8,15.8,0,0,1,5.723-6.851,37.12,37.12,0,0,0-7.162,21.7c0,.43.616.413.657,0a41.117,41.117,0,0,1,4.647-15.607,28.269,28.269,0,0,0,.416,9.687c.046.206.4.165.376-.051a47.32,47.32,0,0,1-.228-10.676,39.985,39.985,0,0,1,4.7-6.515,28.938,28.938,0,0,0-.855,16c.05.222.38.127.339-.093A32.716,32.716,0,0,1,450.3-281.39a49.061,49.061,0,0,1,10.884-8.77l.308-.189a46.911,46.911,0,0,0-4.695,19.552c0,.268.391.261.413,0a64.543,64.543,0,0,1,4.783-19.858c2.186-1.33,4.271-2.668,6.233-4.148a26.473,26.473,0,0,0-4.1,16.465c.024.35.57.355.551,0a30.781,30.781,0,0,1,4.028-16.837,37.411,37.411,0,0,0,4.876-4.492,22,22,0,0,0-.881,8.148c.031.407.652.418.642,0a28.011,28.011,0,0,1,.209-4.085c.027-.229.04-.464.072-.69a34.688,34.688,0,0,1,.978-4.53c2.708-3.28,5.117-6.473,8.1-9.008a24.7,24.7,0,0,0-2.63,12.085.39.39,0,0,0,.779,0,39.227,39.227,0,0,1,2.871-12.906,20.457,20.457,0,0,1,6.826-3.462.116.116,0,0,0-.03-.226,12.5,12.5,0,0,0-5.8,1.482c.067-.137.124-.274.194-.41a.069.069,0,0,0-.118-.069c-.156.221-.293.455-.442.68-3.155,1.754-5.756,4.632-8.1,7.451a24.686,24.686,0,0,0-12.411,2.828c-.445.23-.134,1.012.347.823a57.924,57.924,0,0,1,11.643-3.144c-.076.092-.154.185-.228.276a50.863,50.863,0,0,1-8.061,8.253,13.747,13.747,0,0,0-12.952,2.63c-.3.242.088.729.408.527a18.5,18.5,0,0,1,12-2.75c-.166.123-.327.251-.5.372C463.425-293.229,460.074-291.506,456.937-289.446Z" transform="translate(-0.586 -2.109)"/><path class="b" d="M536.522-386.132a23.762,23.762,0,0,0-10.446,6.349.069.069,0,0,0,.1.1,26.292,26.292,0,0,1,10.418-6.2A.13.13,0,0,0,536.522-386.132Z" transform="translate(-2.506 -0.523)"/><path class="b" d="M504.761-347.245a22.974,22.974,0,0,0,2.48-16.971c-.083-.305-.6-.257-.57.077.61,5.955.277,11.241-1.98,16.864C504.675-347.233,504.74-347.208,504.761-347.245Z" transform="translate(-2.033 -1.003)"/><path class="b" d="M468.934-374.944a33.106,33.106,0,0,0,1.415,19.485c.029.081.157.049.132-.037a45.516,45.516,0,0,1-1.157-19.395C469.354-375.115,468.987-375.157,468.934-374.944Z" transform="translate(-1.224 -0.767)"/><path class="b" d="M470.9-331.795c.044.027.095-.037.056-.072a17.7,17.7,0,0,0-9.33-4.424c-.341-.055-.5.447-.146.531A32.223,32.223,0,0,1,470.9-331.795Z" transform="translate(-1.075 -1.624)"/><path class="b" d="M461.386-327.261a6.2,6.2,0,0,0,5.272-3.355.161.161,0,0,0-.277-.162,7.889,7.889,0,0,1-5.064,3.007C461.028-327.726,461.1-327.246,461.386-327.261Z" transform="translate(-1.071 -1.744)"/><path class="b" d="M443.029-322.695A26.478,26.478,0,0,0,459.25-332.2c.061-.079-.064-.162-.131-.1a45.13,45.13,0,0,1-7.237,5.412c-.076.045-.149.095-.225.14a33.51,33.51,0,0,1-8.762,3.573C442.576-323.1,442.714-322.637,443.029-322.695Z" transform="translate(-0.664 -1.712)"/><path class="b" d="M425.761-322.993a15.9,15.9,0,0,1,1.945-5.2c.074-.118-.106-.217-.185-.108a10.044,10.044,0,0,0-2.045,5.265A.146.146,0,0,0,425.761-322.993Z" transform="translate(-0.284 -1.8)"/><path class="b" d="M523.852-264.194c4.569-4.435,4.7-11.934,9.484-15.807a6.3,6.3,0,0,1,1.608-.719,3.234,3.234,0,0,0,.138,3.528,4.662,4.662,0,0,0,.065,5.1.069.069,0,0,0,.119-.069c-.894-2.079-.081-4.01,1.432-5.5a.391.391,0,0,0-.472-.611,3.523,3.523,0,0,0-1.08,1.008,4.328,4.328,0,0,1,.7-3.628c.031,0,.065,0,.1-.007a3.849,3.849,0,0,0-.261.6.031.031,0,0,0,.051.03c.187-.2.382-.386.585-.564.182.1.362.189.546.293a.185.185,0,0,0,.25-.251c-.059-.1-.129-.178-.192-.269a.483.483,0,0,0,.16-.357,6.1,6.1,0,0,1,1.485-.724c.113-.036.225-.05.337-.077a5.952,5.952,0,0,0-.881,1.761c-.053.178.229.307.308.13a5.373,5.373,0,0,1,1.585-2.042c.585-.034,1.172-.018,1.783-.048a.37.37,0,0,0,.185-.684c-.082-.051-.169-.088-.253-.13a4.527,4.527,0,0,1,1.306-.157c2.117.068,3.346,1.591,4.292,3.281a.414.414,0,0,0,.441.23,4.049,4.049,0,0,0,4.075,1.076c.014,0,.025-.011.039-.015,0,.012,0,.023.009.035.971,2.2,1.464,4.278.008,6.432-.075.111.087.224.18.139s.188-.187.279-.286a.127.127,0,0,0,.031.086c2.4,2.659,4.852,5.263,7.287,7.887,2.4,2.589,4.665,5.55,7.439,7.735a.511.511,0,0,0,.723-.143c.112.128.22.258.338.382a.2.2,0,0,0,.259.01,6.7,6.7,0,0,0-1.723,2.806,4.179,4.179,0,0,0-6.259,1.6.045.045,0,0,0,.078.046,3.721,3.721,0,0,1,5.938-.4c-.011.124-.025.248-.027.374a.076.076,0,0,0,.15.02c.018-.06.045-.116.063-.176a4.888,4.888,0,0,1,.677,1.117c-.01.019-.03.027-.038.048-.44,1.247-.567,2.369-1.7,3.251a4.027,4.027,0,0,1-.874.511c0-.031,0-.062.008-.092.014-.141-.193-.181-.256-.069-.055.095-.091.2-.139.305a6.733,6.733,0,0,1-3.015.141c-.084-.012-.185.1-.1.166a3.786,3.786,0,0,0,2.752.737,5.708,5.708,0,0,0,.849,4.561,5.45,5.45,0,0,1-1.885.934,4.734,4.734,0,0,1-2.147-.03,13.378,13.378,0,0,0-.554-5.41c.144-.286.288-.57.42-.861.077-.169-.173-.317-.25-.147-.1.223-.193.451-.288.678-.052-.152-.106-.3-.161-.454-.019-.05-.033-.1-.054-.151-.037-.092-.079-.176-.116-.267-.124-.294-.249-.588-.381-.87a2.281,2.281,0,0,0,.421.394.708.708,0,0,0,.329.414.159.159,0,0,0,.239-.107,2.664,2.664,0,0,0,.62.153c.382.045.468-.445.281-.678-.233-.289-.485-.57-.712-.863.46-.086.763.615.8.982a.4.4,0,0,0,.74.2c.74-1.015-.627-2.187-1.618-1.624a1.009,1.009,0,0,0-.153.114,2.574,2.574,0,0,1-.457-1.214,3.491,3.491,0,0,1,1.118-2.669.069.069,0,0,0-.067-.114,3.236,3.236,0,0,0-2.076,3.91c-1.442-2.851-2.9-5.255-1.754-9.028l.5.134c1.164,1.146,2.358,2.245,3.6,3.258a.482.482,0,0,0,.681-.681c-.874-1.065-1.815-2.092-2.791-3.094a2.026,2.026,0,0,0-.735-.739c-3.017-3-6.353-5.785-9.45-8.584a.13.13,0,0,0-.183.184c2.313,2.535,4.616,5.231,7.037,7.779-.015,0-.032,0-.046,0a5.775,5.775,0,0,0-2.041.4c.1-.121.2-.245.3-.367a.092.092,0,0,0-.129-.13c-.931.726-1.821,1.493-2.687,2.283-8.483-3.584-15.244,8.393-19.748,13.412-2.575,2.868-5.589,5.42-8.223,8.165l-.192.2c-3.4,3.583-6.126,7.517-6.359,12.938q-.123-.395-.271-.787c-.028-.074-.156-.072-.151.021a22.7,22.7,0,0,1,0,2.906c-.057.022-.11.047-.168.07-.23.093-.148.453.106.383l.031-.01c-.425,5.562-2.637,10.513-3.454,16.152-.54,3.73-.4,7.464,2.063,10.358,1.639,5.652.6,11.393,1.505,17.238a36.84,36.84,0,0,0,7.323,16.686c.326.4,1.036-.03.868-.5-.057-.162-.118-.32-.177-.48a8.989,8.989,0,0,0,.518.756c.1.135.347.066.293-.123a14.153,14.153,0,0,1-.282-7.116.3.3,0,0,0,.429-.328c-.063-.209-.118-.418-.178-.627,1.086-3.6,3.587-6.706,6.536-9.865,2.183-2.338,4.93-4.914,6.143-7.985a.256.256,0,0,0,.363-.145c2.489-7.262,4.678-13.9,9.106-20.287,2.792-4.029,6.05-8.38,5.527-13.487,2.2-6.4,6.4-12.021,7.75-18.63.078-.385.14-.767.191-1.147a5.1,5.1,0,0,0,3.267.232,4.344,4.344,0,0,0-.493,3.19c.234,1.07.881,2.47,2.052,2.729a.335.335,0,0,0,.246-.041,1.664,1.664,0,0,0,1.323.854,1.827,1.827,0,0,0,.935-.161,4.271,4.271,0,0,0,2.882-.7,4.974,4.974,0,0,0,1.977-2.482,2.907,2.907,0,0,0,2.815-.526.321.321,0,0,0,.051-.1,1.777,1.777,0,0,0,.671-.429c.868.943,1.726,1.881,2.585,2.821l.118.129c8.214,8.992,15.98,17.9,22.809,28.116a30.029,30.029,0,0,0,5.636,7.959.565.565,0,0,0,.245.139.358.358,0,0,0,.462.108c1.17-.8,1.728-2.329,2.21-3.616a9.909,9.909,0,0,0,.78-4.583c.053-.09.117-.173.163-.267.137-.279-.061-.726-.39-.7a12.762,12.762,0,0,0-3.744-5.487c-1.438-2.26-2.961-4.493-4.536-6.669-.07-.1-.144-.193-.214-.289-1.245-1.71-2.518-3.388-3.823-5a.486.486,0,0,0-.624-.122q-1.015-1.166-2.063-2.307a68.149,68.149,0,0,0-5.77-6.439.262.262,0,0,0-.356-.029c-.425-.443-.854-.885-1.275-1.33l-.011,0a67.956,67.956,0,0,0-6.186-6.865,5.838,5.838,0,0,0,1.251-1.233,1.842,1.842,0,0,0,.47-.766,1.755,1.755,0,0,0-.419-1.76,3.614,3.614,0,0,0-.687-1.551,4.428,4.428,0,0,0-.85-.855,4.055,4.055,0,0,0,2.107-2.276,1.967,1.967,0,0,0,.4-.691.377.377,0,0,0-.46-.461c-.031.01-.052.028-.081.039a1.362,1.362,0,0,1,.2-.495.177.177,0,0,0-.2-.258,1.506,1.506,0,0,0-.909,1.79c.006.032.032.051.044.079a6.629,6.629,0,0,1-4.7,2.37,3.341,3.341,0,0,0-1.853-2.271,4.688,4.688,0,0,0,1.191-2.936c.007-.009.016-.015.022-.024a.925.925,0,0,0,.162-.374c.4-.555-.169-1.467-.81-1.573a.481.481,0,0,0,.043-.044,3.5,3.5,0,0,0,.609-1.816,6.207,6.207,0,0,1,4.821,4.267c.141.421.885.385.825-.111a4.571,4.571,0,0,0-.224-.965c.884-.208,1.445-1.5,1.583-2.267a3.46,3.46,0,0,0-.131-1.725.184.184,0,0,0,.084-.211,2.573,2.573,0,0,0-1.4-1.377l.219.017a.385.385,0,0,0,.193-.712,7.454,7.454,0,0,0-6.578.374,6.129,6.129,0,0,0-2.819-2.895.17.17,0,0,0-.168.03,2.5,2.5,0,0,0-.71-.453.061.061,0,0,0-.062.106,2.827,2.827,0,0,1,.721.773,1.841,1.841,0,0,1-1.226-.529c.28-.237,0-.743-.377-.654-2.823.66-4.41,3.7-4.077,6.437a.069.069,0,0,0,.138,0,6.629,6.629,0,0,1,3.911-5.546c.017,1.044,1.708,1.882,2.5,1.144a.628.628,0,0,0,.081-.1,6.757,6.757,0,0,1,1.2,2.186c-.075.047-.156.088-.23.137a.23.23,0,0,0,.232.4c.043-.021.085-.032.129-.051a7.119,7.119,0,0,1-.065,2.417,4.925,4.925,0,0,0-4.636-1.839c-.024,0-.031.028-.037.05a5.626,5.626,0,0,0-3.443,1.629.166.166,0,0,0,.038-.236,20.415,20.415,0,0,1-3.4-6.352c1.674-4.883,5.208-6.776,9.411-7.465.153-.024.306-.048.46-.069,5.451-.775,11.93.325,16.939-.447,6.744-1.039,10.086-6.243,11.994-12.392a.441.441,0,0,0,.013-.137c2.512-2.943,6.83-1.7,10.265-2.938a17.053,17.053,0,0,0,6.384-4.759c4.421-4.735,8.422-8.268,13.631-10.206.622-.232,1.257-.447,1.916-.632a29.289,29.289,0,0,1,6.785-1.022.719.719,0,0,0,.367-.118c.166.128.336.243.5.377.732.6,1.788-.408,1.059-1.059a23.854,23.854,0,0,0-11.411-5.377c-.128-.026-.258-.045-.386-.07-5.253-1.026-10.866-.983-16.061-1.185-8.57-.334-21.552-2.894-26.35,6.156a.352.352,0,0,0-.648-.219,6.725,6.725,0,0,1-1.979,2.039,9.015,9.015,0,0,1-.884.529c-2.828,1.48-6.5,1.7-9.065,3.738l-.052.046c-.038.03-.072.065-.11.1-2.706,2.218-4.573,5.526-6.231,8.531-4.01,7.267-7.329,15.647-7.734,24a.092.092,0,0,0,.18.024c2.8-9.12,5.2-18.09,10.417-26.236,1.472-2.3,3.069-4.676,5.464-6.126,2.074-1.256,4.319-1.277,6.487-2.166a6.3,6.3,0,0,0,3.766-3.236h0c.1-.164.207-.316.313-.472.047-.069.091-.142.139-.21,5.7-8.06,19.62-5.152,28.115-4.83,5.451.205,11.1.244,16.308,1.676-6.464-.274-13.229,1.528-19.276,3.189a178.33,178.33,0,0,0-18.974,6.026,29.339,29.339,0,0,1,16.883-8.549c.11-.017.085-.208-.026-.2a27.214,27.214,0,0,0-17.235,8.9c-.771.313-1.539.631-2.3.964-.323.142-.627.3-.944.447-.095.044-.188.089-.282.134a47.927,47.927,0,0,0-15.294,11.531,50.537,50.537,0,0,1,25.363-22.354c.394-.165.253-.8-.183-.663a41.481,41.481,0,0,0-25.4,23.256,76.2,76.2,0,0,0-7.761,10.58c-.253.243-.51.482-.756.732a.107.107,0,0,0,.152.152c.041-.039.083-.074.125-.112-1.492,2.449-2.916,4.985-4.312,7.588a.053.053,0,0,0,.092.054c1.758-3.013,3.532-5.921,5.39-8.7,6.7-5.764,14.434-8.038,23.32-8.2a.2.2,0,0,0,0-.4c-8.308-.862-16.515,2.338-22.737,7.726,1.44-2.108,2.943-4.128,4.531-6.049a59.153,59.153,0,0,1,18.391-7.183l.338-.072a71.222,71.222,0,0,1,13.12-1.4.4.4,0,0,0,0-.8,48.519,48.519,0,0,0-5.349.06l-.273.016a55.094,55.094,0,0,0-25.664,8.7,49.23,49.23,0,0,1,18.824-14.084c8.5-2.936,17.18-4.106,26.416-4.585a.306.306,0,0,0,0-.611,51.177,51.177,0,0,0-11,.445c-.258.037-.517.071-.776.112q-2.12.336-4.218.819,2.046-.656,4.108-1.245c.214-.061.43-.112.644-.173a129.049,129.049,0,0,1,14.512-3.176c.2-.032.4-.066.595-.1a123.007,123.007,0,0,1,13.877-1.362,22,22,0,0,1,2.293,1.211c-8.6.127-15.268,4.8-20.889,11.138a29.68,29.68,0,0,1-4.19,4.184c-.073.055-.149.108-.223.16a10.7,10.7,0,0,1-1.141.73c-2.6,1.409-5.276.921-7.966,1.7a5.212,5.212,0,0,0-3.533,2.628.382.382,0,0,0-.365.24,48.6,48.6,0,0,1-2.981,6.235c-.029.049-.061.1-.091.145a10.933,10.933,0,0,1-6.869,5.147c-5.192,1.309-10.679-.084-15.948.381-5.571.492-11.762,3.358-12.583,9.392a20.96,20.96,0,0,1-1.123-2.71.169.169,0,0,0-.33.045,10.179,10.179,0,0,0,.793,3.646c-1.074-1.027-2.17-2.03-3.207-3.056-2.686-2.653-5.347-5.331-8.069-7.948a.138.138,0,0,0-.1-.039c1.482-1.765,1.97-4.782.25-6.523a6.047,6.047,0,0,0,2.8-6.736.508.508,0,0,0-.424-.393,2.52,2.52,0,0,0-2.565-1.987.5.5,0,0,0-.4.38.372.372,0,0,0-.163-.156,3.424,3.424,0,0,0-1.234-.369c-.363-1.585-1.907-3.388-3.43-3.595a.451.451,0,0,0-.472.33,2.284,2.284,0,0,0-1.783-.3.124.124,0,0,0-.091.143.311.311,0,0,0-.327-.062c-2.9,1.018-3.861,5.009-2.838,7.684a4.913,4.913,0,0,0-1.44.673,4.969,4.969,0,0,0-3.59,1.624c-.087-.029-.174-.049-.262-.071a.154.154,0,0,0-.081-.116c-.212-.112-.431-.2-.648-.293a8.5,8.5,0,0,0-3.1-1.628.3.3,0,0,0,0-.359A113.183,113.183,0,0,0,522.178-294.5c-3.063-2.79-6.115-6.155-9.727-8.236a2.762,2.762,0,0,0,.7-1.438.442.442,0,0,0,0-.134,2.369,2.369,0,0,0,.114-1.982,2.85,2.85,0,0,0-.008-.718,2.48,2.48,0,0,0,3.255-.8,4.477,4.477,0,0,0,.714-3.057c2.663-.249,5.592-4.158,4.515-6.727a.359.359,0,0,0-.677-.022l-.011,0a.188.188,0,0,0-.011-.082c-.124-.213-.121-.29-.053-.34.028.048.062.091.089.14a.092.092,0,0,0,.167-.07c-.013-.061-.034-.118-.05-.177a.715.715,0,0,0,.132-.076.6.6,0,0,0,.157-.791.624.624,0,0,0-.693-.283c-.028.006-.05.025-.078.033a5.207,5.207,0,0,0-5.6-2.394.3.3,0,0,0-.207.331,7.2,7.2,0,0,0-.549-.484.314.314,0,0,0,.2-.255c.227-2.515-2.094-5.956-4.83-5.968a.32.32,0,0,0-.308.415l-.279.067c-.088-.066-.175-.137-.265-.215a.328.328,0,0,0-.328-.057.227.227,0,0,0-.241-.349,6.2,6.2,0,0,0-4.006,6.151A5.7,5.7,0,0,0,501.518-321a26.186,26.186,0,0,0-1.328-4.627,52.811,52.811,0,0,1,.988-14.113,26.046,26.046,0,0,1,16.97-11.964.4.4,0,0,0-.095.266c-.074,12.606-20.911,16.473-16.518,29.858a.115.115,0,0,0,.221-.061c-2.791-13.879,18.647-16.3,17.138-29.8a.46.46,0,0,0-.059-.18c7.2-2.738,11.586-10.221,13.264-17.422,1.043-4.476,1.538-9.5,2.7-14.082a.421.421,0,0,0,.624.287c5.642-3.514,10.811-16.7,19.027-10.063a.069.069,0,0,0,.108-.083c-.051-.106-.11-.2-.167-.3.075.064.148.127.224.19.263.218.712-.059.5-.389a10.294,10.294,0,0,0-7.585-4.275.368.368,0,0,0-.368-.249c-.217.008-.419.045-.631.064-7.751-5.614-18.1,6.156-23.219,11.621a.284.284,0,0,0-.464-.034c-4.719,6.107-11.991,8.69-17.508,13.827a17.507,17.507,0,0,0-4.269,5.736c-1.433,3.3-1.128,6.965-2.576,10.225-3.347,4.813-5.67,11.294-4.88,17.1.907,6.656,5.216,12.544,7.592,18.719a6.5,6.5,0,0,0-1.258,1.336.285.285,0,0,0-.085-.147,142.858,142.858,0,0,0-12.058-9.586l-.071-.054c-1.626-1.216-3.241-2.437-4.809-3.7-.045-.036-.109.023-.065.065,5.062,4.917,10.453,10.245,16.6,13.789a.3.3,0,0,0,.213.035,5.737,5.737,0,0,0-.793,3.634,3.793,3.793,0,0,0-2.059-1.072A147.308,147.308,0,0,0,481.7-327.091c.289.091.581.188.88.31.351.144.629-.386.365-.626a6.335,6.335,0,0,0-2.625-1.46c-.1-.057-.2-.116-.306-.172a13.347,13.347,0,0,0-1.46-1.514.176.176,0,0,0-.248.248,7.969,7.969,0,0,0,.66.722c-.992-.5-2.009-.96-3.045-1.391a16.557,16.557,0,0,0-4.187-5.3c.118.049.236.1.353.152,1.807,1.788,3.562,3.626,5.222,5.553.09.1.268-.032.192-.148-.041-.063-.088-.12-.129-.183,0,0,.016,0,.01-.009l-.05-.046a33.976,33.976,0,0,0-3.7-4.58c1.247.462,2.5.887,3.73,1.233.364.1.627-.461.265-.629-5.988-2.772-11.708-5.813-17.552-8.824-2.667-2.24-5.3-4.515-7.735-7.009-.021-.022-.052.011-.032.032a58.6,58.6,0,0,0,6.555,6.38.079.079,0,0,0-.037.136,41.655,41.655,0,0,0,7.077,5.059,20.728,20.728,0,0,0-3.533-.443c-2.37-2.423-5.583-4.159-8.1-6.447a89.006,89.006,0,0,1-7.711-7.87c-.118-.138-.351.042-.252.195a43.115,43.115,0,0,0,7.489,8.894,32.6,32.6,0,0,0,6.927,5.168c-1.014-.024-2.048-.04-3.114-.1-7.038-.4-16.24-9.934-23.231-4.554-.4.306-.194,1.136.383.908,7.936-3.141,12.961,3.477,20.309,4.78,2.679.474,5.4-.049,8.086.209a17.023,17.023,0,0,1,12.015,7.126c-9.3-3.679-20.133-4.7-29.977-4.017a24.377,24.377,0,0,0-16.152.271.206.206,0,0,0,.109.4,33.839,33.839,0,0,1,15.242-.611c-1.02.08-2.031.173-3.025.289-8.178.954-23.035,3.775-20.931,15.2a.238.238,0,0,0,.466-.063c-.756-12.133,15.268-14.259,25.517-14.575a28.183,28.183,0,0,1-12.788,8.194.344.344,0,0,0,.183.663,22.632,22.632,0,0,0,12.9-8.866c1.177-.033,2.278-.044,3.257-.043,10.007.013,18.913,2.5,28.2,5.377-2.942.16-6.022,1.874-8.933,2.57-4.958,1.186-10.944-3.449-15.339-.471.131-.4-.273-.914-.709-.618-1.289.877-2.488,2.013-3.779,2.952-.154.112-.31.221-.466.327a9.6,9.6,0,0,1-1.782.973c-4.243,1.7-7.938.731-12.151-.214-3.394-.762-7.058-1.368-10.139.654-5.531,3.63-2.188,8.515,1.743,11.506a22.635,22.635,0,0,1-7.2-5.09c-4.107-4.755-3.793-10.683.953-14.9,3.3-2.935,8.065-4.741,11.146-7.96,1.077-.134,2.123-.24,3.148-.318l.461-.032a39.392,39.392,0,0,1,21.251,4.174.077.077,0,0,0,.077-.132,29.958,29.958,0,0,0-24.089-4.674,10.093,10.093,0,0,0,1.813-3.6.214.214,0,0,0-.39-.164,18.974,18.974,0,0,1-3.64,4.145c-.181.156-.365.307-.55.458-2.762,2.246-5.917,3.868-8.979,6.163-.514.385-1.009.8-1.49,1.229l-.166.149a11.363,11.363,0,0,0-4.046,7.19c-.82,8.081,6.967,13.178,13.752,15.665-4.324,1.4-9.106,1-12.33-2.6-3.882-4.335-3.5-10.379-1.062-15.294a.091.091,0,0,0-.157-.093c-3.229,4.617-3.454,11.178.324,15.6,3.163,3.705,9.132,5.367,13.444,2.774a.221.221,0,0,0,.083-.282c.515.184,1.024.354,1.521.508a.437.437,0,0,0,.335-.8c-1.214-.651-2.479-1.26-3.738-1.888a10.052,10.052,0,0,1-3.476-3.676c-3.69-8.27,5.4-9.17,9.564-8.358,2.779.541,5.442,1.747,8.274,2.026a12.4,12.4,0,0,0,5.742-.8c.161-.063.321-.131.48-.2a16.989,16.989,0,0,0,5.522-3.96c5.093-2.571,9.5,1.985,14.638,1.337,4.928-.623,8.522-3.7,13.434-2.418a.068.068,0,0,0,.024.051q1.694,1.435,3.439,2.865c.153.124.309.245.462.37,3.213,2.613,6.543,5.169,9.973,7.463a7.081,7.081,0,0,0-1.159.261c-5.9-5.525-13.456-.96-19.256,2.487a69.672,69.672,0,0,1-10.192,4.43l-.294.113c-4.7,1.853-9.185,4.013-11.995,8.344-.247.381.331.838.637.491a18.157,18.157,0,0,1,3.412-3c.095-.065.19-.129.286-.193,4.508-2.984,9.945-4.076,14.972-6.417,6.841-3.187,14.123-10.32,22.02-6.108a9.191,9.191,0,0,0-4.412,3.5c-2.464,3.95-2.5,8.975-4.638,13.1-2.838,5.474-7.637,8.651-13.1,11.048a.373.373,0,0,0-.235.4c-3.4,2.254-2.056,6.312-2.918,9.9-1.187,4.927-4.991,8.362-9.158,11.085l-.2.127c-1.648,1.065-3.345,2.025-4.958,2.918-5.959,3.3-13.96,8.256-15.4,15.3-3.708-10.468-7.61-21.917-1.778-32.455,3.89-7.028,15.317-9.905,15.109-19,0-.033-.054-.044-.061-.009-1.2,6.717-7.636,8.922-12.136,13.072a20.577,20.577,0,0,0-3.207,3.8c-.114.173-.221.352-.331.529a24.381,24.381,0,0,0-2.794,6.465c-2.551,9.4.106,19.544,4.4,28.012a.448.448,0,0,0,.7.089,11.748,11.748,0,0,0,.415,5.308c.141.462.951.4.885-.12-1.74-13.878,12.734-17.5,21.6-24.075A21.278,21.278,0,0,0,468-274.536c1.992-4.069.368-9.758,3.3-13.2a.454.454,0,0,0,.48.186,22.089,22.089,0,0,0,13.009-10.092,31.189,31.189,0,0,0,3.176-8.4c1.056-3.96,4.551-10.678,8.9-9.3.343.219.688.433,1.034.646a6.114,6.114,0,0,0-2.829,1.123,9.222,9.222,0,0,0-3.255,6.471.346.346,0,0,0,.641.174c.013-.023.023-.048.036-.07,0,0,0,.011.011.015a2.591,2.591,0,0,1,1.431,1.884c0,.028.042.018.045-.006a2,2,0,0,0-1.347-2.17c.816-1.623,1.2-3.463,2.478-4.831,1.357-1.452,2.727-1.436,4.413-1.388.125.136.25.27.376.421.086.1.251-.008.217-.126s-.072-.184-.106-.282l.137,0a.205.205,0,0,0,.04-.011,5.365,5.365,0,0,0,2.724,4.911,4.226,4.226,0,0,1-3.438,4.505,7.955,7.955,0,0,1-5.654-.844,3.232,3.232,0,0,0-.607-.776c-.262-.317-.464-.686-.741-.99a.07.07,0,0,0-.117.049c-.082.724.459,2.054,1.266,2.159a6.937,6.937,0,0,0,7.657,1.036,5.626,5.626,0,0,0,1.977-1.666,5.175,5.175,0,0,0,3.578,3.824,4.669,4.669,0,0,1-1.035,2.668,5.354,5.354,0,0,1-2.307,1.467,2.617,2.617,0,0,0-3.374-1.034,8.989,8.989,0,0,1-1.426-1.384,7.55,7.55,0,0,1-1.42-3.14.138.138,0,0,0-.27.036c.055,2.294,1.332,5.136,3.717,5.831a.3.3,0,0,0,.205-.016,1.041,1.041,0,0,0,1.437.242,3.67,3.67,0,0,0,.422.075l.066.071a.408.408,0,0,0,.679-.076,4.977,4.977,0,0,0,4.418-4.532,6.2,6.2,0,0,0,4.273-1.423c2.667,3.515,6.536,6.287,9.775,9.262,3.294,3.027,6.473,6.264,10,9.016a16.955,16.955,0,0,0-7.742.185c-7.246,1.81-12.895,7.386-19.951,9.794-8.775,2.993-27.967,5.575-27.043,18.523-.768,5.939-3.566,11.914-3.084,17.937.484,6.051,5.817,10.306,5.287,16.558-.071.839,1.369,1.048,1.485.2.014-.1.013-.191.023-.288,1.794-1.9,2.436-4.211,3.3-6.734,2.012-5.848,5.822-8.855,11.007-11.852,5.205-3.011,11.84-7.039,11.663-13.734,1.108-5.156,6.885-4.968,10.83-6.58A19.21,19.21,0,0,0,523.852-264.194Zm18.1,10.589c.324-.251.659-.49,1-.72a17.131,17.131,0,0,1,7.3-2.763c-1.078,1.031-2.12,2.1-3.1,3.218-3.4,1.527-6.734,3.232-9.983,5.07A31.654,31.654,0,0,1,541.949-253.6Zm-11.171,12.1a67.416,67.416,0,0,0,5.181-5.837c3.584-1.738,7.109-3.636,10.511-5.709a61.408,61.408,0,0,0-4.262,5.733.1.1,0,0,0-.132-.031,118.093,118.093,0,0,0-13.269,7.655C529.471-240.283,530.133-240.878,530.778-241.5Zm-9.031,9.136a26.769,26.769,0,0,1,4.69-5.22.266.266,0,0,0,.253-.009,124.825,124.825,0,0,0,15.342-9.457,82.093,82.093,0,0,0-4.136,7.128,111.429,111.429,0,0,1-17.2,9.417A19.51,19.51,0,0,1,521.747-232.369Zm-1.265,2.288a.167.167,0,0,0,.2.056,58.18,58.18,0,0,0,16.946-9.378c-1.439,2.819-2.751,5.712-3.967,8.63a76.568,76.568,0,0,1-15.951,9.095A49.115,49.115,0,0,1,520.482-230.08Zm-3.439,9.215a45.528,45.528,0,0,0,16.273-9.084c-.036.088-.074.175-.11.263a.267.267,0,0,0-.286.183c-.165.532-.3,1.077-.436,1.623q-1,2.516-1.926,5.021a64.879,64.879,0,0,1-14.093,9.9A23.526,23.526,0,0,0,517.042-220.866Zm-1,9.805q.138-.6.271-1.2a46.034,46.034,0,0,0,13.861-9.562c-.468,1.275-.931,2.545-1.383,3.8q-.312.868-.626,1.748c-.023,0-.049.007-.054.034-.009.062-.015.123-.024.185q-.117.332-.237.665c-2.016,2.34-3.957,4.745-6.075,7-2.287,2.436-4.743,4.684-7.137,7A43.472,43.472,0,0,1,516.041-211.06Zm7.076,47.11c-2.453-5.86-5.339-10.979-5.652-17.852-.183-4.009-.129-8.176-1.8-11.783a.355.355,0,0,0,.123-.394,23.4,23.4,0,0,1-1.134-6.324A71.236,71.236,0,0,0,527.046-213.1c-1.017,2.932-2.008,5.937-2.882,8.988a121.728,121.728,0,0,0-5.931,10.766c-.147.288.275.54.435.255,1.746-3.09,3.534-6.219,5.055-9.445a71.524,71.524,0,0,0-2.718,16.7c-.728,2.176-1.312,4.424-1.874,6.629a.206.206,0,0,0,.4.111c.507-1.55,1.011-3.126,1.463-4.714a38.306,38.306,0,0,0,2.677,13.9A11.332,11.332,0,0,0,523.117-163.95Zm14.505-24.9a.426.426,0,0,0-.126.106c-2.141,2.6-3.77,5.464-6.069,7.992a57.681,57.681,0,0,0-5.688,6.731,19.8,19.8,0,0,0-1.47,2.637c-2.076-9.029-1.577-17.837.242-26.542a31.246,31.246,0,0,0,5.261,15.712.168.168,0,0,0,.29-.169,39.923,39.923,0,0,1-5.385-16.313c.8-3.685,1.835-7.351,3-11.009A37.673,37.673,0,0,0,534.9-188.5c.1.134.322.006.225-.131a38.5,38.5,0,0,1-7.16-21.95c.843-2.591,1.749-5.179,2.685-7.765q.472-1.307.961-2.593a45.507,45.507,0,0,0,7.243,24.88.26.26,0,0,0,.449-.262,67.7,67.7,0,0,1-4.817-12.1c-.072-.266-.135-.537-.2-.806-.262-1.046-.5-2.1-.678-3.181a57.938,57.938,0,0,1-.365-12.667c1.61-3.953,3.347-7.789,5.247-11.521-1.382,10.989.673,22.361,4.943,32.5a.3.3,0,0,0,.049.075C540.653-199.335,538.1-194.544,537.622-188.855Zm21.048-50.588c-.677,3.549-2.672,6.829-4.405,10.154-.078.151-.158.3-.235.451a20.1,20.1,0,0,0-2.648,8.384c-1.224,5.884-4.514,10.853-7.584,15.9-4.529-10.7-5.746-21.606-4.852-32.961q1.825-3.519,3.864-6.918c-.049.252-.088.5-.133.756l-.016.086a51.88,51.88,0,0,0,3.577,30.078c.116.268.516.036.4-.232a51.392,51.392,0,0,1-3.857-29.774l.035-.2c.057-.333.107-.667.17-1a121.189,121.189,0,0,1,7.2-10.655,35.167,35.167,0,0,0-.5,28.054c.072.177.362.108.294-.081a39.291,39.291,0,0,1,.407-28.227q.663-.871,1.345-1.736a.538.538,0,0,0,.622.073,7.638,7.638,0,0,1,3.226-1.173,6.32,6.32,0,0,0-.662,5.593C556.215-247.985,559.745-245.067,558.671-239.443ZM583.176-259.5a3.382,3.382,0,0,1,.381.354.242.242,0,0,0-.144.291,1.8,1.8,0,0,1-.99-.617.311.311,0,0,0-.112-.089C582.6-259.538,582.885-259.518,583.176-259.5Zm-1.168-.08a.249.249,0,0,0-.158.35c.283.715,1.037,1.52,1.875,1.393a3.754,3.754,0,0,1,.088,1.573,5.85,5.85,0,0,1-.8,1.685,5.023,5.023,0,0,0-5.109-2.651,5.219,5.219,0,0,0-.353-1.967A12.372,12.372,0,0,1,582.009-259.576Zm-6.583,21.049c-.263.18-.521.523-.776.721a.618.618,0,0,1-.019-.229c.046-.1-.059-.306-.167-.227a.7.7,0,0,0-.307.651l-.16.023c-.026,0-.035.023-.057.032a4.514,4.514,0,0,1-1.064-.014,1.727,1.727,0,0,0-.026-.171.4.4,0,0,0-.712-.093c-.011.014-.019.028-.028.042a4.253,4.253,0,0,1-2.094-2.158,5.363,5.363,0,0,0,1.483-.862,5.66,5.66,0,0,0,1.575-2.009,4.012,4.012,0,0,0,2.789-.271.381.381,0,0,0,.006.181,9.964,9.964,0,0,1,.91,2.124,3.9,3.9,0,0,1-.213,1.619c-.008,0-.013-.006-.021,0A2.7,2.7,0,0,0,575.426-238.527Zm1.127.684a1.039,1.039,0,0,0,.061-.286.327.327,0,0,0,.169-.026c.022-.01.041-.026.063-.037q.522.748,1.092,1.458Q577.25-237.3,576.552-237.843Zm32.467,35.569c-.207.643-.513,1.269-.784,1.9a10.1,10.1,0,0,1,1-3.295c.063-.123.146-.232.217-.349A16.271,16.271,0,0,1,609.019-202.274Zm-19.885-31.52a.176.176,0,0,0,.262,0c1.941,2.266,3.879,4.549,5.868,6.784q1.376,1.622,2.731,3.264a132.211,132.211,0,0,0,11.373,15.716.312.312,0,0,0,.424.056c.167.279.331.563.5.847-2.121,1.325-2.816,4.582-2.68,7.029a81.926,81.926,0,0,1-6.059-7.95c-.013-.02-.031-.021-.047-.034a114.111,114.111,0,0,0-19.216-24.8.133.133,0,0,0-.051-.1c-.151-.115-.291-.239-.439-.356q-1.348-1.263-2.742-2.45a24.131,24.131,0,0,1-2.13-2.453,2.965,2.965,0,0,0,1.2-2.607,5.784,5.784,0,0,0,3.7-.761c.046-.028.1-.065.147-.1A82.394,82.394,0,0,0,589.134-233.793Zm-11.1-10.952a1.361,1.361,0,0,0,.193-.666,2.77,2.77,0,0,0,.408-2.184,6.232,6.232,0,0,0,2.154-.088,2.166,2.166,0,0,0,.632.436,4.969,4.969,0,0,1,.849.62,6.086,6.086,0,0,1,.82.9,1.756,1.756,0,0,0-.485,1.456,1.6,1.6,0,0,0,.083.358l0,.015a5.337,5.337,0,0,1-1.286,1.37,5.569,5.569,0,0,1-3.316,1.108,2.257,2.257,0,0,0-1.6-2.059,4.37,4.37,0,0,0,.553-.487.415.415,0,0,0,.088-.153A1.266,1.266,0,0,0,578.037-244.745Zm-.541-2.868a5.313,5.313,0,0,1,.277,1.337.317.317,0,0,0-.407.147l-.007.018a.076.076,0,0,0-.1.015,3.843,3.843,0,0,0-.767,1.4,7.814,7.814,0,0,1-3.186.686c0-.02,0-.039,0-.059a.378.378,0,0,0-.7-.189c-.025.037-.044.075-.068.112a3.727,3.727,0,0,1-.761-.309,5.039,5.039,0,0,1-2.376-4.214c-.015-.219-.354-.3-.406-.055a5.223,5.223,0,0,0,3,5.507,6.54,6.54,0,0,1-1.134,1.682,7.219,7.219,0,0,1-2.244,1.487,1.162,1.162,0,0,0,.089-.177.367.367,0,0,0-.52-.418,1.939,1.939,0,0,0-2.241-.271c-.119.066-.039.269.094.224a1.676,1.676,0,0,1,1.615.3c-.669.286-1.408.415-1.925-.278-.064-.084-.215-.039-.182.077a1.889,1.889,0,0,0,2.79.956,4.474,4.474,0,0,0,1.3-.19,4.1,4.1,0,0,0,1.98,2.854,5.62,5.62,0,0,1-1.3,2,4.219,4.219,0,0,1-.645.422,5.124,5.124,0,0,1-.726.339c-.169.065-.333.145-.509.194a.3.3,0,0,0-.218-.236.446.446,0,0,0-.015-.048,2.171,2.171,0,0,0-2.58-.749c-.066.029-.036.12.019.14a6.5,6.5,0,0,1,1.094.472,3.82,3.82,0,0,1,.616.506,1.128,1.128,0,0,1-.274.071,1.342,1.342,0,0,1-1.131-.38.148.148,0,0,0-.083-.037.373.373,0,0,0-.034-.189,19.432,19.432,0,0,1-1.485-2.488,5.371,5.371,0,0,1,.025-3.1,3.174,3.174,0,0,0,1.136-.826.323.323,0,0,0,.371-.467l-.016-.031c.006-.01.013-.018.019-.028a.447.447,0,0,0-.342-.644,9.1,9.1,0,0,1-.881-2.236,8.152,8.152,0,0,1-.124-1.987,4.7,4.7,0,0,0,3.648-3.444,6.4,6.4,0,0,0,7.78.064A7.835,7.835,0,0,1,577.5-247.613Zm-8.5-8.37a8.686,8.686,0,0,1,4.383-1.416.268.268,0,0,0,.186-.111,6.211,6.211,0,0,1,2.679,2.482c.072.119.145.239.212.365.054.1.116.184.167.288a.345.345,0,0,0,.183.172l-.012.037a.614.614,0,0,1-.411-.173,2.669,2.669,0,0,1-.565-1.263.253.253,0,0,0-.495.067,2.71,2.71,0,0,0,.548,2.234,1.666,1.666,0,0,0,.49.323,5.58,5.58,0,0,1-2.522,3.039,5.62,5.62,0,0,1-5.6-.4,3.5,3.5,0,0,0-.064-.6.425.425,0,0,0,.006-.088,3.863,3.863,0,0,0-1.18-2.4A6.853,6.853,0,0,1,568.993-255.983Zm-4.2-6.524c.145.514.315,1.017.507,1.509-.219-.363-.432-.729-.629-1.105C564.711-262.243,564.756-262.371,564.8-262.507Zm-13.118-24.787a.5.5,0,0,0,.412-.39.338.338,0,0,0,.158.138,6.422,6.422,0,0,1,1.4.722,5.593,5.593,0,0,1,.8.8.612.612,0,0,0-.084.211c-.035-.044-.069-.091-.1-.131a3,3,0,0,0-2.35-1.02c-.1,0-.131.165-.025.18a2.606,2.606,0,0,1,1.881,1.221,2.87,2.87,0,0,1,.4.945,1.992,1.992,0,0,1,.024.274,4.969,4.969,0,0,1-1.958,3.9,3.394,3.394,0,0,1-4.161-.137,4.464,4.464,0,0,0-1.489-2.456,4.5,4.5,0,0,1,1.769-3.375A6.676,6.676,0,0,1,551.679-287.294ZM542.494-288a7.942,7.942,0,0,1,2.079-2.928c.33.863,1.729,1.32,2.2.331.112-.238-.016-.619-.336-.586a2.323,2.323,0,0,1-1.545-.087l.027-.029a.4.4,0,0,0,.038-.468.111.111,0,0,0,.049.017,2.525,2.525,0,0,1,1.938.8.194.194,0,0,0,.32-.191,12.28,12.28,0,0,1,1.654,1.179,7.267,7.267,0,0,1,1.138,1.516c-2.258.2-4.067,2.767-3.9,5.057a5.537,5.537,0,0,0-3.222-1.044,4.593,4.593,0,0,0-.66.068A7.289,7.289,0,0,1,542.494-288Zm-13-76.76c-2.236,5.637-6.3,9.231-10.812,13a.456.456,0,0,0-.226-.074.207.207,0,0,0-.222-.28,23.628,23.628,0,0,0-16.93,11.688,59.729,59.729,0,0,1,2.533-8.324c.752-1.1,1.551-2.156,2.374-3.181l.106-.133c.225-.278.442-.566.672-.838q.585-.663,1.167-1.327a56.076,56.076,0,0,1,14.828-11.511c.149-.081.018-.292-.131-.224a43.049,43.049,0,0,0-10.991,7.332,40.437,40.437,0,0,0,5.339-8.5c.111-.245.221-.5.332-.746a77.081,77.081,0,0,1,15.044-11.391C531.761-374.381,531.343-369.41,529.5-364.761ZM504.15-349.584c.012-.029.021-.059.033-.088l.131-.154C504.259-349.744,504.2-349.665,504.15-349.584Zm42.533-47.445c.128.081.256.154.383.243.264.185.577-.228.343-.444l-.022-.018.009,0a14.906,14.906,0,0,1,3.211,1.151c.258.135.5.29.736.443a7.536,7.536,0,0,0-4.693.259c-5.236,1.971-7.933,8.23-11.746,11.892l-.009.013C536.52-389.679,539.442-395,546.683-397.029Zm-23.327,11.063a.285.285,0,0,0,.036-.14c5.828-4.787,13.989-15.025,21.9-11.666a11.117,11.117,0,0,0-1.237.324c-.115.037-.225.083-.338.123-6.162,2.2-9.4,9.433-10.678,15.579-.131.628-.246,1.26-.357,1.891a52.922,52.922,0,0,0-14.834,11.273c2.553-5.8,5.164-12.257,8.822-17.652,3.514-4.136,7.672-7.085,12.071-10.214.265-.189.112-.717-.242-.573a23.676,23.676,0,0,0-7.657,5.291.218.218,0,0,0-.312-.048c-6.426,4.869-9.506,13.593-12.8,20.65l-.154.332a48.155,48.155,0,0,0,1.906-9.808c.022-.26-.3-.373-.49-.267A19.206,19.206,0,0,0,523.356-385.966Zm-23.7,59.006c-1.347-3.236-3-6.349-3.979-9.781a16.781,16.781,0,0,1-.083-9.053c.074-.3.155-.59.242-.882,1.026-3.491,2.809-6.825,4.205-10.584a.364.364,0,0,0-.332-.51,24.389,24.389,0,0,0,1.344-4.845,17.16,17.16,0,0,1,6.181-10.01c3.73-3.1,8.143-5.187,11.749-8.238a.249.249,0,0,0-.115.175c-.694,4.377-1.6,8.688-2.72,12.971a38.012,38.012,0,0,1-5.883,9.515c-.379.426-.748.845-1.11,1.262a31.934,31.934,0,0,0,3.989-15.235c0-.375-.522-.351-.565,0A70.51,70.51,0,0,1,508.8-356.52a46.942,46.942,0,0,0-4.765,6.45.21.21,0,0,0-.239.1,36.677,36.677,0,0,0-3.006,7.4,22.213,22.213,0,0,0-.618-6.979c-.053-.216-.354-.118-.325.089a56.819,56.819,0,0,1,.09,10.571A39.155,39.155,0,0,0,499.659-326.96Zm1.469,29.8a.278.278,0,0,0-.088-.244c-.145-.13-.293-.252-.441-.376a4.006,4.006,0,0,1,1.028.281,2.183,2.183,0,0,1,.333.191A.643.643,0,0,1,501.128-297.156Zm14.061-23.912a6.335,6.335,0,0,1,3.443.606,5.657,5.657,0,0,1,1.659,1.433,1,1,0,0,0-.335,1.038.754.754,0,0,0,1.017.549c.021-.01.024-.033.037-.05a15.126,15.126,0,0,1-1.273,3.6,10.017,10.017,0,0,1-2.607,2.372,5.15,5.15,0,0,0-.853-2,.362.362,0,0,0-.168-.125,6.894,6.894,0,0,0-.789-7.238c-.062-.074-.136-.141-.2-.213C515.143-321.088,515.158-321.067,515.189-321.068Zm-9.229-3.947a11.316,11.316,0,0,1,2.441-2.661.261.261,0,0,0-.037.124c.026,1.133,1.779,1.395,2.4.878a6.009,6.009,0,0,1,1.71,1.393,8.139,8.139,0,0,1,1.44,3.155,5.806,5.806,0,0,0-3.928-1.044,2.976,2.976,0,0,0-2.6,1.849,5.244,5.244,0,0,0-2.426-.713A9.717,9.717,0,0,1,505.96-325.015Zm-2.667,14.929a.323.323,0,0,0-.451-.027,5.014,5.014,0,0,1-.51-.409,6.688,6.688,0,0,1-1.829-4.092c-.008-.056-.088-.044-.1,0a4.589,4.589,0,0,0-.182.722,2.1,2.1,0,0,0-.619-.524c-.076-.139-.154-.274-.24-.4a6.183,6.183,0,0,1,1.938-4.946c1.679-1.463,3.8-1.375,5.8-.822a.388.388,0,0,0,.132.011,3.219,3.219,0,0,0,.051.706c.034.184.309.132.315-.042.095-2.786,3.52-2.392,5.118-1.5a5.617,5.617,0,0,1,2.633,3.251c.8,2.8-.983,4.83-3.006,6.434-.365.288-.092.823.292.908l-.88.46c-.1.05-.012.192.085.145l.984-.479a.085.085,0,0,0,.035-.126h.011a5.129,5.129,0,0,0,2.813-2.1c.1,1.126.543,2.181.266,3.352a2.263,2.263,0,0,1-2.854,1.871,3.57,3.57,0,0,0-2.447-2.5,4.075,4.075,0,0,0,.225-.347,4.587,4.587,0,0,0,.362-3.538.269.269,0,0,0,.258-.3,5.5,5.5,0,0,0-5.048-4.949,5.588,5.588,0,0,0-5.821,4.387c-.029.12.157.212.209.088a5.573,5.573,0,0,1,5.057-3.524,5.279,5.279,0,0,1,4.559,3.2.4.4,0,0,0-.383.469c.317,1.345.718,2.432.075,3.784a4.286,4.286,0,0,1-2.975,2.327.5.5,0,0,0-.457-.352,7.9,7.9,0,0,1-3.1-.716A4.022,4.022,0,0,0,503.293-310.086Zm8.809,5.756a2.1,2.1,0,0,1,.039-1.547c.091-.259-.246-.389-.421-.245a1.431,1.431,0,0,0,.024,2.088c-1.174,1-2.138,1.968-4,1.817a3.331,3.331,0,0,0-.135-.363.347.347,0,0,0-.628.082c-.007.047-.012.092-.019.139a5.2,5.2,0,0,1-3.344-3.325,4.149,4.149,0,0,0,.555-2.339,4.921,4.921,0,0,0,2.672.064.453.453,0,0,0,.342-.344,4.755,4.755,0,0,0,2.961-1.289l0,.011c.406.469.906.8,1.328,1.231a3.166,3.166,0,0,1,.4.5,2.525,2.525,0,0,1,.116.229,15.65,15.65,0,0,1,.674,2.09.186.186,0,0,0,.135.117,4.562,4.562,0,0,1,.108.74.328.328,0,0,0-.4.013C512.374-304.552,512.239-304.441,512.1-304.33Zm-5.542,49.272a.332.332,0,0,0-.5.258c-1.536,10.176-10.706,11.782-17.5,17.451a14.735,14.735,0,0,0-3.647,4.551q-.242.456-.459.923c-1.115,2.4-1.786,4.973-2.823,7.551l-.093.231c-.166.4-.339.808-.528,1.211-.251-5.22-4.487-8.96-5.327-14.213-.906-5.67,1.933-11.058,1.932-16.689a.508.508,0,0,0,.764-.377c1.439-15.081,16.884-14.808,27.918-19.289a39.517,39.517,0,0,0,5.533-2.877.3.3,0,0,0,.158.313,2.76,2.76,0,0,0,2.674.165c.083-.036.031-.152-.043-.156a7.426,7.426,0,0,1-2.3-.576.375.375,0,0,0-.053-.012c2.279-1.393,4.514-2.867,6.885-4.1,3.65-1.891,6.888-2.718,10.152-2.425a28.049,28.049,0,0,0-10.717,4.527,77.444,77.444,0,0,0-9.676,8.111,52.124,52.124,0,0,0-7.487.108.245.245,0,0,0,0,.489A52.37,52.37,0,0,0,508.4-270c-1.319,1.22-2.651,2.428-4.029,3.577-4.006.463-8.13,1.263-12.038,2.038-.3.059-.226.525.07.525a40.478,40.478,0,0,0,10.537-1.409,39.049,39.049,0,0,1-3.862,2.675c-1.632.983-3.268,1.879-4.858,2.792a24.929,24.929,0,0,0-11.818,3.114c-.211.113-.026.413.185.316a37.9,37.9,0,0,1,11.042-3.088c-1.163.679-2.29,1.382-3.374,2.137-.126.088-.251.177-.376.267a20.7,20.7,0,0,0-6.235,6.727c-3.293,5.845-4.426,13.158-4.092,19.791a.481.481,0,0,0,.962,0c.749-6.526,1.028-13.21,4.362-19.07a18.276,18.276,0,0,1,3.557-4.435,39.7,39.7,0,0,0-4.079,19.894c.01.2.31.2.305,0a45.7,45.7,0,0,1,4.365-20.427,47.935,47.935,0,0,1,7.885-5.088,21.7,21.7,0,0,0-3.9,14.1.3.3,0,0,0,.6,0c.023-5.729,1.866-10.348,4.832-14.968.906-.524,1.808-1.064,2.7-1.647s1.771-1.234,2.623-1.891a25.735,25.735,0,0,0-1.9,14.749c.049.3.565.236.54-.073a33.765,33.765,0,0,1,2.453-15.474c.01-.025.019-.051.028-.077.2-.159.38-.332.574-.495,1.766-1.478,3.466-3.037,5.158-4.607a24.25,24.25,0,0,0-1.573,10.777.275.275,0,0,0,.55,0,31.344,31.344,0,0,1,.494-5.1c.068-.386.138-.771.219-1.154a51.652,51.652,0,0,1,1.579-5.694c1.045-.961,2.1-1.913,3.179-2.831,1.11-.94,2.237-1.833,3.4-2.658a18.129,18.129,0,0,0-3.229,13.3c.046.269.464.2.466-.063a23.717,23.717,0,0,1,4.161-14.173,29.54,29.54,0,0,1,4.632-2.44,18.709,18.709,0,0,0-2.1,12.966c.1.431.709.238.648-.179a20.784,20.784,0,0,1,1.767-12.916,23.931,23.931,0,0,1,8.428-1.46,7.848,7.848,0,0,0-.706.346.662.662,0,0,0-.113.1,12.751,12.751,0,0,0-4.352,6.08c-2.021,5.174-3.956,9.771-9.157,12.539C515.173-260.631,507.109-260.17,506.56-255.058Z" transform="translate(0 -0.23)"/><path class="b" d="M587.224-296.254a33.482,33.482,0,0,0-14.348,24.106c0,.01.014.01.015,0a34.059,34.059,0,0,1,14.472-23.869C587.5-296.118,587.372-296.354,587.224-296.254Z" transform="translate(-3.54 -2.508)"/><path class="b" d="M508.8-312.329a.115.115,0,0,0-.225.03c-.128,1.024.821,2.2,1.9,1.725a.291.291,0,0,0,.157-.383,1.91,1.91,0,0,0,.208-2.325,1.958,1.958,0,0,0-2.369-.811.5.5,0,0,0,.119.907c.523.095,1.005.048,1.416.456a1.57,1.57,0,0,1,.345,1.472C509.719-311.5,509.063-311.6,508.8-312.329Z" transform="translate(-2.112 -2.111)"/><path class="b" d="M516.5-313.571a.472.472,0,0,0,.279-.686c-.017-.025-.036-.042-.053-.065a2.15,2.15,0,0,0-1.252-3.069.246.246,0,0,0-.189.447,2.448,2.448,0,0,1,1.057,2.259c-.122-.085-.249-.166-.375-.273a3.217,3.217,0,0,1-.377-.423,2.139,2.139,0,0,1-.408-.489.1.1,0,0,0-.191,0,2.058,2.058,0,0,0-.23.713,1.738,1.738,0,0,0,.283.824A1.321,1.321,0,0,0,516.5-313.571Z" transform="translate(-2.256 -2.042)"/><path class="b" d="M555.984-280.208a.954.954,0,0,0-.427-1.853c-.22.031-.17.338,0,.4.244.085.352.432.048.5-.229.05-.3-.254-.218-.436s-.087-.385-.272-.272C554.156-281.287,554.971-279.887,555.984-280.208Z" transform="translate(-3.138 -2.822)"/><path class="b" d="M553.729-271.693a.426.426,0,0,1,.725-.115c.2.278.663.011.463-.27a.843.843,0,0,0-1.5.255C553.378-271.646,553.65-271.512,553.729-271.693Z" transform="translate(-3.11 -3.035)"/><path class="b" d="M533.5-274.1a4.081,4.081,0,0,0,.521,4.8c.951,1.008,3,1.786,4.327,1.045a.959.959,0,0,0,1.352.375.448.448,0,0,0,.056-.051c2.919,1.32,5.954-2.066,5.442-4.949a4.836,4.836,0,0,0,2.026-.6,4.058,4.058,0,0,0,1.471,4.77c.016.011.034.017.05.026a.336.336,0,0,0,.112.287,4.1,4.1,0,0,1,.545.5,1.447,1.447,0,0,0-1.614,1.372.326.326,0,0,0-.54.145,1.559,1.559,0,0,0,.02.922.054.054,0,0,0,.1-.028.593.593,0,0,1-.017-.073,1.449,1.449,0,0,0,.454.581,3.649,3.649,0,0,1-2.341.72,2.852,2.852,0,0,1-.861-.241l0-.019a.455.455,0,0,0-.678-.389l-.009,0a3.511,3.511,0,0,1-1.132-1.693c-.014-.045-.023-.09-.036-.136a3.509,3.509,0,0,1-.115-.611c-.009-.1-.172-.145-.195-.026a3.792,3.792,0,0,0-.035.408c0,.054-.011.108-.013.161a3.756,3.756,0,0,0,.726,2.414,4.947,4.947,0,0,1-1.829,1,1.734,1.734,0,0,0-2.355-.829c-.086.044-.025.178.066.154a1.463,1.463,0,0,1,1.658.722,3.038,3.038,0,0,1-.591-.094,3.643,3.643,0,0,1-2.377-4.121c.025-.157-.194-.284-.28-.117a3.933,3.933,0,0,0,1.973,5.424c1.4.57,3.957.216,4.879-1.187a3.255,3.255,0,0,0,.5.211,3.435,3.435,0,0,0,4.055-1.475c.037,0,.073,0,.112-.008a1.7,1.7,0,0,0,1.226-1.239s.009,0,.013-.01a2.148,2.148,0,0,0,0-2.143,4.074,4.074,0,0,0,4.167-1.529.55.55,0,0,0-.341-.8,1.081,1.081,0,0,0,.231-.154.383.383,0,0,0-.463-.6.722.722,0,0,1-1.108-.441c-.029-.18-.342-.184-.368,0a1.191,1.191,0,0,0,1.189,1.33,3.769,3.769,0,0,1-4.018.585,3.729,3.729,0,0,1-1.657-4.176,4.022,4.022,0,0,0,1.478-2.343.561.561,0,0,0-1.02-.429,4.933,4.933,0,0,1-3.75,2.238l-.006-.009a.373.373,0,0,0-.576-.037,4.271,4.271,0,0,1-3.357-3.3.146.146,0,0,0-.286.038,4.657,4.657,0,0,0,3.565,4.759,4.178,4.178,0,0,1-.69,2.956,4.673,4.673,0,0,1-3.345,1.667,2.238,2.238,0,0,1-.138-.641.715.715,0,0,0-.106-.412,1.006,1.006,0,0,0-.909-.422.749.749,0,0,0-.613.521c-1.171-.028-2.185.169-3.246-.689-.061-.05-.109-.108-.166-.159-.133-.355.157-.662.479-.8.354-.148.352-.728-.1-.721a1.309,1.309,0,0,0-1.071.632,4.01,4.01,0,0,1-.321-3.005A.077.077,0,0,0,533.5-274.1Zm16.049,6.378a1.848,1.848,0,0,1,.4,1.086,1.106,1.106,0,0,0-.07-.089.318.318,0,0,0-.492.064c-.163.276-.259.717-.564.878-.409.218-.838-.238-.935-.6,0-.019-.022-.025-.029-.041.021,0,.047-.008.054-.034a1.582,1.582,0,0,1,1.49-1.137A.175.175,0,0,0,549.544-267.722Zm-10.761-1.44a.239.239,0,0,1,.053,0c.1.029.195.195.263.268a.469.469,0,0,1,.153.449.692.692,0,0,1-.58-.057c.046-.04.1-.063.145-.108A.37.37,0,0,0,538.783-269.163Z" transform="translate(-2.658 -2.915)"/><path class="b" d="M603.909-209.5a53.058,53.058,0,0,0,5.407,7.921q.424.62.849,1.24c.044.065.149.006.106-.062l-.132-.208c.4.476.8.958,1.21,1.427.119.134.3-.06.195-.195-2.642-3.3-4.976-6.793-7.278-10.332A.206.206,0,0,0,603.909-209.5Z" transform="translate(-4.225 -4.418)"/><path class="b" d="M598.514-218.011c-.161-.142-.31-.3-.466-.454.128.171.27.337.39.512C598.479-217.892,598.566-217.966,598.514-218.011Z" transform="translate(-4.096 -4.227)"/><path class="b" d="M594.082-222.925c.082.093.172.186.256.279-.082-.1-.163-.2-.245-.289C594.086-222.943,594.075-222.932,594.082-222.925Z" transform="translate(-4.008 -4.128)"/><path class="b" d="M597.966-218.557c-1.078-1.439-2.415-2.756-3.622-4.083C595.519-221.282,596.667-219.8,597.966-218.557Z" transform="translate(-4.014 -4.135)"/><path class="b" d="M597.659-219.055c.048.061.154-.02.108-.083a94.968,94.968,0,0,0-9.244-11.108c-.083-.085-.208.042-.13.13C591.6-226.528,594.707-222.86,597.659-219.055Z" transform="translate(-3.882 -3.966)"/><path class="b" d="M603.953-214.227c-.78-1.069-1.518-2.171-2.274-3.257-.033-.048-.112,0-.079.046.729,1.1,1.479,2.193,2.181,3.312C603.85-214.017,604.027-214.124,603.953-214.227Z" transform="translate(-4.174 -4.248)"/><path class="b" d="M526.765-292.723c2.729,2.774,5.341,5.94,8.348,8.407a.183.183,0,0,0,.259-.259c-2.511-2.969-5.717-5.536-8.531-8.223A.053.053,0,0,0,526.765-292.723Z" transform="translate(-2.521 -2.585)"/><path class="b" d="M521.02-297.312c1.493,1.27,3.03,2.491,4.549,3.729.068.055.164-.039.1-.1-1.487-1.272-2.959-2.563-4.473-3.8C521.073-297.582,520.9-297.414,521.02-297.312Z" transform="translate(-2.393 -2.481)"/><path class="b" d="M560.429-260.134c2.525,2.855,5.1,5.683,7.795,8.377.1.1.24-.048.152-.152-2.474-2.9-5.092-5.69-7.741-8.431C560.5-260.475,560.307-260.273,560.429-260.134Z" transform="translate(-3.264 -3.301)"/><path class="b" d="M494.893-319.178a30.685,30.685,0,0,0-7.99-5.7.1.1,0,0,0-.1.172,90.068,90.068,0,0,1,7.895,5.722C494.833-318.871,495.023-319.053,494.893-319.178Z" transform="translate(-1.637 -1.876)"/><path class="b" d="M483.069-331.334c.157.169.455-.053.324-.25a28.461,28.461,0,0,0-8.683-8.439,32.587,32.587,0,0,0-5.167-2.632c-1.979-.8-6.372-1.448-8.32-3.342.314-.081.572-.453.342-.75a8.9,8.9,0,0,0-1.484-1.482c.621-7.333-3.553-14.257-3.238-21.714.335-7.911,4.58-14.191,10.848-16.372a.614.614,0,0,0,.37.565c3.841,1.471,4.11,9.471,5.861,13.1.515,1.068.953,2.112,1.343,3.15a.31.31,0,0,0-.033.067,44.811,44.811,0,0,0,.1,23.167c-1.824-3.131-3.676-6.244-5.467-9.374-4.494-7.847-9.506-15.932-6.714-25.277.1-.338-.389-.452-.516-.143-1.934,4.731-1.353,9.473.292,13.98-.625-.894-1.279-1.771-1.984-2.617-.1-.121-.27.052-.173.173.908,1.129,1.751,2.3,2.558,3.5a50.285,50.285,0,0,0,3.024,6.1q1.8,3.151,3.6,6.335a91.69,91.69,0,0,0-11.265-10.983c-.23-.193-.559.122-.334.335a119.333,119.333,0,0,1,9.605,10.048c2.388,2.858,4.471,5.972,6.77,8.9q.908,1.546,1.836,3.079.318.911.671,1.808c.031.081.16.049.132-.036-.1-.312-.195-.622-.291-.932,1.67,2.74,3.385,5.447,5.185,8.08a.054.054,0,0,0,.093-.054c-.123-.253-.254-.5-.378-.755-.028-.058-.058-.115-.087-.173-1.8-3.626-3.768-7.175-5.8-10.692a57.266,57.266,0,0,1-.43-23.423,36.072,36.072,0,0,1,1.806,10.638c.241,7.264-.228,14.546,4.067,20.8a.084.084,0,0,0,.146-.084c-4.735-9.386-1.445-19.917-3.873-29.765a26.226,26.226,0,0,0-1.912-5.113,37.164,37.164,0,0,1-2.957-9.324c-.578-2.7-1.416-4.835-4.005-5.439a16.931,16.931,0,0,1,9.4.467.511.511,0,0,0,.189.025,6.586,6.586,0,0,1,1.382,1.9.389.389,0,0,0,.7-.114.305.305,0,0,0-.013-.176c-.056-.144-.12-.292-.182-.438-1.767-4.252-5.44-9.488-10.054-10.74-.289-.078-.57.326-.312.537,1.788,1.465,3.823,2.468,5.473,4.152a19.915,19.915,0,0,1,2.82,3.679c-5.156-3.4-11.253-1.87-15.765,1.755-.062.049-.118.1-.178.152a19.382,19.382,0,0,0-2.592,2.569,57.336,57.336,0,0,1,3.116-6.291,7.78,7.78,0,0,1,4.328-2.268c.058-.011.115-.023.174-.031a8.567,8.567,0,0,1,2.1-.074c.331.03.387-.487.077-.57a6.5,6.5,0,0,0-5.5,1.091,23.05,23.05,0,0,1,3.7-4.26.408.408,0,0,0-.394-.677c-3.325,1.189-4.792,4.729-6.25,7.716a73.251,73.251,0,0,0-4.106,9.931,24.578,24.578,0,0,0-1.6,12.613c.733,5.958,4.275,11.383,4.454,17.35a18.465,18.465,0,0,0-6.106-2.83,19.385,19.385,0,0,0-7.313-3.21c-.088-.02-.156.111-.065.154,2.46,1.145,4.835,2.458,7.289,3.61a.28.28,0,0,0,.359-.151,27.8,27.8,0,0,1,3.2,1.91,26.9,26.9,0,0,1,2.151,1.731c-.317,3.313,3.718,3.943,6.442,4.69C472.729-340.594,478.262-336.488,483.069-331.334ZM478.88-386.45c.009.017.021.033.029.051l-.043-.028Z" transform="translate(-0.745 -0.305)"/></g></svg>