<svg xmlns="http://www.w3.org/2000/svg" viewBox="0 0 1019.34 372.41"><defs><style>.cls-1{fill:#fdfcfb;}.cls-2{isolation:isolate;}</style></defs><g id="Layer_2" data-name="Layer 2"><g id="Capa_1" data-name="Capa 1"><g id="Group_68" data-name="Group 68"><g id="Group_37" data-name="Group 37"><g id="Path_441" data-name="Path 441"><path class="cls-1" d="M718.35,166.73a8,8,0,0,1,1,1.37,14.5,14.5,0,0,1,1,1.9l.5,1.24c.15.45.29.93.43,1.44s.23,1,.33,1.6.14,1.15.16,1.76a16.46,16.46,0,0,1-.3,3.84,17.18,17.18,0,0,1-1.3,3.94c-.33.62-.61,1.28-1,1.87l-1.2,1.77-1.1,1.55c-.39.54-.62,1-.94,1.52a23,23,0,0,0-1.53,3.16,14.45,14.45,0,0,0-.57,1.6,14,14,0,0,0-.44,1.57,23.25,23.25,0,0,0-.53,3c-.1.95-.14,1.82-.16,2.61s0,1.48.07,2.05.09,1,.14,1.33l.06.38a13.24,13.24,0,0,0,1.38.23c9.34.44,17.34-8.17,17.85-19.24C732.73,177,726.64,168.35,718.35,166.73Z"/></g><g id="Path_442" data-name="Path 442"><path class="cls-1" d="M712.17,204.65a14.75,14.75,0,0,1-.7-2,16.39,16.39,0,0,1-.51-2.78,18.07,18.07,0,0,1-.05-3.37,18.94,18.94,0,0,1,.68-3.74,14.37,14.37,0,0,1,.66-1.91,14.74,14.74,0,0,1,.86-1.9,18.89,18.89,0,0,1,1.06-1.84l1.16-1.69,1-1.48c.33-.5.6-1,.9-1.55a20.77,20.77,0,0,0,1.33-3.2,19.58,19.58,0,0,0,.67-3.2c.08-.52.07-1,.12-1.54s0-1,0-1.46-.07-.93-.1-1.36l-.15-1.23c-.14-.77-.27-1.45-.4-2s-.26-1-.36-1.3l-.11-.35a12.72,12.72,0,0,0-2-.34c-9.34-.44-17.33,8.18-17.85,19.24-.49,10.47,5.93,19.3,14.54,20.58A9,9,0,0,1,712.17,204.65Z"/></g></g><g id="Group_38" data-name="Group 38"><g id="Path_443" data-name="Path 443"><path class="cls-1" d="M326.65,166.73a9.2,9.2,0,0,1,1,1.37,17.36,17.36,0,0,1,1,1.9l.5,1.24c.15.45.28.93.43,1.44s.23,1,.33,1.6.14,1.15.16,1.76a16.46,16.46,0,0,1-.3,3.84,17.18,17.18,0,0,1-1.3,3.94c-.33.62-.61,1.28-1,1.87l-1.2,1.77-1.1,1.55c-.39.54-.62,1-.94,1.52a24.28,24.28,0,0,0-1.54,3.16,16.78,16.78,0,0,0-.56,1.6,14,14,0,0,0-.44,1.57,25.16,25.16,0,0,0-.54,3q-.13,1.42-.15,2.61c0,.78,0,1.48.07,2.05s.09,1,.14,1.33l.06.38a12.81,12.81,0,0,0,1.38.23c9.34.44,17.33-8.17,17.85-19.24C341,177,334.93,168.35,326.65,166.73Z"/></g><g id="Path_444" data-name="Path 444"><path class="cls-1" d="M320.46,204.65a14.75,14.75,0,0,1-.7-2,16.39,16.39,0,0,1-.51-2.78,18.07,18.07,0,0,1,0-3.37,17.59,17.59,0,0,1,.68-3.74,14.32,14.32,0,0,1,.65-1.91,14.74,14.74,0,0,1,.86-1.9,21.2,21.2,0,0,1,1.06-1.84l1.17-1.69,1-1.48c.33-.5.6-1,.9-1.55a19.82,19.82,0,0,0,1.33-3.2,18.58,18.58,0,0,0,.67-3.2c.08-.52.07-1,.12-1.54s0-1,0-1.46-.07-.93-.1-1.36l-.15-1.23c-.14-.77-.26-1.45-.4-2s-.26-1-.36-1.3l-.11-.35a12.53,12.53,0,0,0-2-.34c-9.34-.44-17.33,8.18-17.84,19.24-.5,10.47,5.92,19.3,14.53,20.58A9,9,0,0,1,320.46,204.65Z"/></g></g><g id="Group_60" data-name="Group 60"><g id="Group_45" data-name="Group 45"><g id="Group_41" data-name="Group 41"><g id="Group_39" data-name="Group 39"><g id="Path_445" data-name="Path 445"><path class="cls-1" d="M451.8,223a43.16,43.16,0,0,1-5.14-2.45c-9.42-5.29-15.64-13.55-17.5-23.26s.85-19.69,7.64-28.09A49.15,49.15,0,0,1,497,157.66c9.43,5.29,15.64,13.55,17.5,23.27s-.85,19.69-7.64,28.09a47.37,47.37,0,0,1-28.09,16.32A48.39,48.39,0,0,1,451.8,223ZM491,157.41a46.09,46.09,0,0,0-25.67-2.18h0a45.08,45.08,0,0,0-26.69,15.48c-6.34,7.85-8.89,17.15-7.16,26.16s7.54,16.7,16.34,21.65a46.78,46.78,0,0,0,57.22-11c6.35-7.85,8.89-17.14,7.16-26.16s-7.53-16.7-16.34-21.64a39.36,39.36,0,0,0-4.86-2.32Z"/></g></g><g id="Group_40" data-name="Group 40"><g id="Path_446" data-name="Path 446"><path class="cls-1" d="M429.82,192.92a31.65,31.65,0,0,1,19.1-13.28c8-2.1,16.78-.87,24.21,2.4a54.56,54.56,0,0,0,40.63,2,29,29,0,0,1-9.33,6.92A37,37,0,0,1,493,194.37a44.41,44.41,0,0,1-23.7-3.68A41.55,41.55,0,0,0,450.11,187,48.75,48.75,0,0,0,429.82,192.92Z"/></g></g></g><g id="Group_44" data-name="Group 44"><g id="Path_447" data-name="Path 447"><path class="cls-1" d="M430.65,196.33s13.32,29,49.16,20.32,33.55-35.5,33.55-35.5,5.76,31.25-31.88,42.39C481.48,223.53,437.78,232.64,430.65,196.33Z"/></g><g id="Group_42" data-name="Group 42"><g id="Path_448" data-name="Path 448"><path class="cls-1" d="M505.47,172.41a40.11,40.11,0,0,0-7.7-6.84,41.46,41.46,0,0,0-9-4.82,44.33,44.33,0,0,0-9.86-2.7,68.22,68.22,0,0,0-10.3-.81c1.72-.19,3.46-.4,5.2-.47a48.53,48.53,0,0,1,5.25.23,39.55,39.55,0,0,1,10.22,2.48,37.48,37.48,0,0,1,9.12,5.25A29.56,29.56,0,0,1,505.47,172.41Z"/></g><g id="Path_449" data-name="Path 449"><path class="cls-1" d="M478.45,198.18a21.06,21.06,0,0,1-6.32-.66,30.09,30.09,0,0,1-6-2.18,30.48,30.48,0,0,0-5.76-2.22,27,27,0,0,0-6-1.12h-.06a46.33,46.33,0,0,0-8.16.09,77.82,77.82,0,0,0-8.17,1.24,47,47,0,0,1,8.07-2,37.42,37.42,0,0,1,8.39-.49h-.06a27.64,27.64,0,0,1,12.33,3.45,42.39,42.39,0,0,0,5.7,2.49A30.32,30.32,0,0,0,478.45,198.18Z"/></g></g><g id="Group_43" data-name="Group 43"><g id="Path_450" data-name="Path 450"><path class="cls-1" d="M479.42,217.85l.21-7.7,1.85,7.6Z"/></g><g id="Path_451" data-name="Path 451"><path class="cls-1" d="M481.41,218.89a58.5,58.5,0,0,0,.75-9.53,60.61,60.61,0,0,1,1.32,9.67Z"/></g><g id="Path_452" data-name="Path 452"><path class="cls-1" d="M483.5,217.22a38,38,0,0,0,1.23-8.48,39.32,39.32,0,0,1,.82,8.79Z"/></g><g id="Path_453" data-name="Path 453"><path class="cls-1" d="M485.81,216.29a37.42,37.42,0,0,0,1.3-8.87,37.91,37.91,0,0,1,.73,9.2Z"/></g><g id="Path_454" data-name="Path 454"><path class="cls-1" d="M488.47,214.87a38,38,0,0,0,1.2-8.07,39,39,0,0,1,.84,8.35Z"/></g><g id="Path_455" data-name="Path 455"><path class="cls-1" d="M490.34,216.43l.74-2.71c.21-.89.39-1.78.53-2.69a43,43,0,0,0,.45-5.54,43.74,43.74,0,0,1,.58,5.6q0,1.42,0,2.85l-.22,2.78Z"/></g><g id="Path_456" data-name="Path 456"><path class="cls-1" d="M492.68,214.44l.7-2.64c.21-.87.38-1.75.52-2.63a44.35,44.35,0,0,0,.45-5.4,43.58,43.58,0,0,1,.58,5.46c0,.92,0,1.85,0,2.78l-.18,2.72Z"/></g><g id="Path_457" data-name="Path 457"><path class="cls-1" d="M495,212.29a44.78,44.78,0,0,0,1.16-5.13,42.25,42.25,0,0,0,.45-5.27,45.3,45.3,0,0,1,.58,5.32,45.86,45.86,0,0,1-.14,5.37Z"/></g><g id="Path_458" data-name="Path 458"><path class="cls-1" d="M497.4,210.58a45.54,45.54,0,0,0,1.1-5,40.06,40.06,0,0,0,.45-5.13,45.12,45.12,0,0,1,.59,5.18,48,48,0,0,1-.09,5.23Z"/></g><g id="Path_459" data-name="Path 459"><path class="cls-1" d="M499.77,208.68a44.9,44.9,0,0,0,1.05-4.87,46.06,46.06,0,0,0,.45-5,44.5,44.5,0,0,1,.58,5,48.2,48.2,0,0,1,0,5.1Z"/></g><g id="Path_460" data-name="Path 460"><path class="cls-1" d="M502.25,207.24a42.6,42.6,0,0,0,1.44-9.59,44.13,44.13,0,0,1,.61,9.87Z"/></g><g id="Path_461" data-name="Path 461"><path class="cls-1" d="M504.49,204.78a43.62,43.62,0,0,0,1.38-9.31,44.8,44.8,0,0,1,.67,9.6Z"/></g><g id="Path_462" data-name="Path 462"><path class="cls-1" d="M506.57,201.7a44.53,44.53,0,0,0,1.32-9,46.31,46.31,0,0,1,.73,9.33Z"/></g><g id="Path_463" data-name="Path 463"><path class="cls-1" d="M508.65,198.64a44.93,44.93,0,0,0,1.27-8.77,45.73,45.73,0,0,1,.78,9Z"/></g><g id="Path_464" data-name="Path 464"><path class="cls-1" d="M467.91,221.85a30.66,30.66,0,0,1-.82-5.22l-.48-5.11,1.49,4.91a30.82,30.82,0,0,0,1.73,4.64Z"/></g><g id="Path_465" data-name="Path 465"><path class="cls-1" d="M470.8,221.64l-1.45-10.15,3.42,9.52Z"/></g><g id="Path_466" data-name="Path 466"><path class="cls-1" d="M473.55,221.27a64.68,64.68,0,0,1-1.67-9.86,63.36,63.36,0,0,0,3.59,9.09Z"/></g><g id="Path_467" data-name="Path 467"><path class="cls-1" d="M475,219.26l-.36-8.07,2.4,7.71Z"/></g><g id="Path_468" data-name="Path 468"><path class="cls-1" d="M477.37,218.85l-.24-8.27,2.28,7.95Z"/></g><g id="Path_469" data-name="Path 469"><path class="cls-1" d="M465.38,221a37.67,37.67,0,0,1-1.23-10.08,36.63,36.63,0,0,0,3.16,9.32Z"/></g><g id="Path_470" data-name="Path 470"><path class="cls-1" d="M463.57,222.12c-.22-.76-.64-1.89-.87-2.84a28.75,28.75,0,0,1-.63-3,43.54,43.54,0,0,1-.51-6,42.7,42.7,0,0,0,1.51,5.78,29.29,29.29,0,0,0,1.09,2.73c.41.94.84,1.63,1.38,2.72Z"/></g><g id="Path_471" data-name="Path 471"><path class="cls-1" d="M460.88,221c-.21-.77-.6-1.84-.82-2.79a29.84,29.84,0,0,1-.6-2.93,43.21,43.21,0,0,1-.49-5.9,43.75,43.75,0,0,0,1.49,5.64c.31.92.67,1.81,1.06,2.68s.83,1.61,1.33,2.65Z"/></g><g id="Path_472" data-name="Path 472"><path class="cls-1" d="M458.15,220.58c-.2-.78-.55-1.81-.77-2.74a28.55,28.55,0,0,1-.57-2.87,42.45,42.45,0,0,1-.46-5.75,42,42,0,0,0,1.46,5.5c.31.89.65,1.77,1,2.61s.8,1.6,1.27,2.6Z"/></g><g id="Path_473" data-name="Path 473"><path class="cls-1" d="M455.46,219.47l-.72-2.69c-.22-.93-.4-1.87-.54-2.8a42.26,42.26,0,0,1-.44-5.61,41.56,41.56,0,0,0,1.44,5.36c.3.87.64,1.72,1,2.55l1.22,2.54Z"/></g><g id="Path_474" data-name="Path 474"><path class="cls-1" d="M452.8,217.94l-.68-2.64c-.21-.91-.38-1.82-.51-2.74a43.49,43.49,0,0,1-.41-5.47,41.23,41.23,0,0,0,1.42,5.23c.29.85.62,1.68,1,2.49l1.16,2.47Z"/></g><g id="Path_475" data-name="Path 475"><path class="cls-1" d="M450.14,216.24A47.1,47.1,0,0,1,449,211a43.31,43.31,0,0,1-.39-5.34,38.76,38.76,0,0,0,3.47,9.94Z"/></g><g id="Path_476" data-name="Path 476"><path class="cls-1" d="M447.45,215a47.48,47.48,0,0,1-1-5.13,43.29,43.29,0,0,1-.37-5.2,43.48,43.48,0,0,0,1.38,5,45.27,45.27,0,0,0,2,4.72Z"/></g><g id="Path_477" data-name="Path 477"><path class="cls-1" d="M444.78,213.55a49.71,49.71,0,0,1-.95-5,42.84,42.84,0,0,1-.33-5.06,42.5,42.5,0,0,0,1.34,4.82,47.32,47.32,0,0,0,1.9,4.6Z"/></g><g id="Path_478" data-name="Path 478"><path class="cls-1" d="M442.08,212.58a43.88,43.88,0,0,1-1.18-9.82,42.49,42.49,0,0,0,3.15,9.17Z"/></g><g id="Path_479" data-name="Path 479"><path class="cls-1" d="M439.44,210.58a45.28,45.28,0,0,1-1.08-9.57,43.57,43.57,0,0,0,3,8.91Z"/></g><g id="Path_480" data-name="Path 480"><path class="cls-1" d="M436.84,207.92a45.46,45.46,0,0,1-1-9.3,45,45,0,0,0,2.93,8.65Z"/></g><g id="Path_481" data-name="Path 481"><path class="cls-1" d="M434.23,205.28a46.56,46.56,0,0,1-.86-9.05,44.4,44.4,0,0,0,2.83,8.4Z"/></g></g></g></g><g id="Group_52" data-name="Group 52"><g id="Group_48" data-name="Group 48"><g id="Group_46" data-name="Group 46"><g id="Path_482" data-name="Path 482"><path class="cls-1" d="M596.05,206.81A42.44,42.44,0,0,1,593.6,212c-5.29,9.42-13.55,15.64-23.26,17.5s-19.69-.85-28.09-7.64a49.15,49.15,0,0,1-11.57-60.22C536,152.17,544.23,146,554,144.09s19.69.85,28.09,7.65a47.35,47.35,0,0,1,16.32,28.08A48.38,48.38,0,0,1,596.05,206.81Zm-65.62-39.2a46.09,46.09,0,0,0-2.18,25.67h0A45.08,45.08,0,0,0,543.73,220c7.86,6.35,17.15,8.89,26.16,7.16s16.7-7.54,21.65-16.34a46.78,46.78,0,0,0-11-57.22c-7.85-6.34-17.14-8.89-26.16-7.16s-16.7,7.54-21.64,16.34a41.61,41.61,0,0,0-2.32,4.86Z"/></g></g><g id="Group_47" data-name="Group 47"><g id="Path_483" data-name="Path 483"><path class="cls-1" d="M565.94,228.79a31.63,31.63,0,0,1-13.28-19.09c-2.1-8-.86-16.78,2.4-24.21a54.56,54.56,0,0,0,2-40.63,28.94,28.94,0,0,1,6.93,9.33,37.18,37.18,0,0,1,3.42,11.43,44.38,44.38,0,0,1-3.68,23.7A41.59,41.59,0,0,0,560,208.51,48.69,48.69,0,0,0,565.94,228.79Z"/></g></g></g><g id="Group_51" data-name="Group 51"><g id="Path_484" data-name="Path 484"><path class="cls-1" d="M569.36,228s29-13.32,20.32-49.16-35.5-33.55-35.5-33.55,31.25-5.76,42.38,31.88C596.56,177.13,605.66,220.84,569.36,228Z"/></g><g id="Group_49" data-name="Group 49"><g id="Path_485" data-name="Path 485"><path class="cls-1" d="M545.42,153.14a41,41,0,0,0-6.83,7.7,41.69,41.69,0,0,0-4.82,9,43.8,43.8,0,0,0-2.7,9.86,68.32,68.32,0,0,0-.81,10.3c-.2-1.72-.4-3.46-.47-5.2a45.83,45.83,0,0,1,.23-5.24,39.55,39.55,0,0,1,2.48-10.22,37.35,37.35,0,0,1,5.25-9.13A29.86,29.86,0,0,1,545.42,153.14Z"/></g><g id="Path_486" data-name="Path 486"><path class="cls-1" d="M571.2,180.16a20.81,20.81,0,0,1-.66,6.33,30,30,0,0,1-2.18,6,30.83,30.83,0,0,0-2.22,5.77,27.52,27.52,0,0,0-1.12,6v0h0a48.33,48.33,0,0,0,.09,8.16,77.82,77.82,0,0,0,1.24,8.17,47.94,47.94,0,0,1-2-8.07,38,38,0,0,1-.49-8.39v.06A27.62,27.62,0,0,1,567.28,192a42.39,42.39,0,0,0,2.49-5.7A29.72,29.72,0,0,0,571.2,180.16Z"/></g></g><g id="Group_50" data-name="Group 50"><g id="Path_487" data-name="Path 487"><path class="cls-1" d="M590.88,179.2l-7.71-.21,7.6-1.86Z"/></g><g id="Path_488" data-name="Path 488"><path class="cls-1" d="M591.91,177.2a59.63,59.63,0,0,0-9.53-.74,60.77,60.77,0,0,1,9.67-1.32Z"/></g><g id="Path_489" data-name="Path 489"><path class="cls-1" d="M590.25,175.11a38.56,38.56,0,0,0-8.48-1.22,39.24,39.24,0,0,1,8.78-.83Z"/></g><g id="Path_490" data-name="Path 490"><path class="cls-1" d="M589.31,172.8a37.41,37.41,0,0,0-8.86-1.3,38.34,38.34,0,0,1,9.2-.73Z"/></g><g id="Path_491" data-name="Path 491"><path class="cls-1" d="M587.89,170.15a38,38,0,0,0-8.07-1.2,39.08,39.08,0,0,1,8.36-.85Z"/></g><g id="Path_492" data-name="Path 492"><path class="cls-1" d="M589.45,168.28l-2.71-.74c-.88-.22-1.78-.39-2.69-.53a42.81,42.81,0,0,0-5.54-.45,42,42,0,0,1,5.6-.58c.95,0,1.9,0,2.85,0l2.78.23Z"/></g><g id="Path_493" data-name="Path 493"><path class="cls-1" d="M587.46,165.93l-2.64-.7c-.87-.2-1.74-.37-2.63-.51a42.44,42.44,0,0,0-5.4-.45,43.58,43.58,0,0,1,5.46-.58c.92,0,1.85,0,2.78,0l2.72.19Z"/></g><g id="Path_494" data-name="Path 494"><path class="cls-1" d="M585.31,163.62a44.74,44.74,0,0,0-5.13-1.15,42.1,42.1,0,0,0-5.26-.45,41.06,41.06,0,0,1,5.31-.58,45.85,45.85,0,0,1,5.37.13Z"/></g><g id="Path_495" data-name="Path 495"><path class="cls-1" d="M583.6,161.21a45.54,45.54,0,0,0-5-1.1,44,44,0,0,0-5.13-.45,43.2,43.2,0,0,1,5.18-.58,45.78,45.78,0,0,1,5.24.08Z"/></g><g id="Path_496" data-name="Path 496"><path class="cls-1" d="M581.7,158.84a46.82,46.82,0,0,0-4.87-1,41.5,41.5,0,0,0-5-.45,44.79,44.79,0,0,1,5-.59,48.19,48.19,0,0,1,5.1,0Z"/></g><g id="Path_497" data-name="Path 497"><path class="cls-1" d="M580.26,156.36a42.59,42.59,0,0,0-9.59-1.43,43.55,43.55,0,0,1,9.87-.62Z"/></g><g id="Path_498" data-name="Path 498"><path class="cls-1" d="M577.81,154.13a43.18,43.18,0,0,0-9.31-1.38,44.08,44.08,0,0,1,9.6-.67Z"/></g><g id="Path_499" data-name="Path 499"><path class="cls-1" d="M574.72,152.05a44.54,44.54,0,0,0-9-1.33A45.59,45.59,0,0,1,575,150Z"/></g><g id="Path_500" data-name="Path 500"><path class="cls-1" d="M571.66,150a44.8,44.8,0,0,0-8.77-1.26,46.57,46.57,0,0,1,9.05-.79Z"/></g><g id="Path_501" data-name="Path 501"><path class="cls-1" d="M594.87,190.7a29.7,29.7,0,0,1-5.22.82l-5.11.48,4.91-1.49a29.4,29.4,0,0,0,4.64-1.73Z"/></g><g id="Path_502" data-name="Path 502"><path class="cls-1" d="M594.66,187.82l-10.15,1.45,9.52-3.42Z"/></g><g id="Path_503" data-name="Path 503"><path class="cls-1" d="M594.3,185.06a63.41,63.41,0,0,1-9.87,1.68,62.9,62.9,0,0,0,9.09-3.59Z"/></g><g id="Path_504" data-name="Path 504"><path class="cls-1" d="M592.28,183.61l-8.07.36,7.72-2.4Z"/></g><g id="Path_505" data-name="Path 505"><path class="cls-1" d="M591.87,181.25l-8.27.23,7.95-2.27Z"/></g><g id="Path_506" data-name="Path 506"><path class="cls-1" d="M594,193.23A37.74,37.74,0,0,1,584,194.46a36.49,36.49,0,0,0,9.32-3.16Z"/></g><g id="Path_507" data-name="Path 507"><path class="cls-1" d="M595.14,195c-.76.22-1.89.65-2.84.88s-2,.47-3,.63a43.54,43.54,0,0,1-6,.51,44.23,44.23,0,0,0,5.78-1.51c.93-.32,1.85-.69,2.74-1.09s1.62-.85,2.71-1.38Z"/></g><g id="Path_508" data-name="Path 508"><path class="cls-1" d="M594,197.73c-.77.21-1.84.6-2.79.83s-2,.44-2.93.6a44.7,44.7,0,0,1-5.9.48,43.89,43.89,0,0,0,5.65-1.49c.91-.31,1.8-.67,2.67-1.06s1.61-.83,2.65-1.32Z"/></g><g id="Path_509" data-name="Path 509"><path class="cls-1" d="M593.6,200.46c-.78.2-1.81.56-2.74.77s-1.91.43-2.87.58a44.13,44.13,0,0,1-5.75.46,43.42,43.42,0,0,0,5.51-1.47c.89-.3,1.76-.65,2.61-1s1.6-.8,2.6-1.27Z"/></g><g id="Path_510" data-name="Path 510"><path class="cls-1" d="M592.49,203.15l-2.69.72c-.93.23-1.86.41-2.8.55a43.87,43.87,0,0,1-5.61.44,42.81,42.81,0,0,0,5.36-1.45c.87-.3,1.73-.64,2.55-1l2.54-1.21Z"/></g><g id="Path_511" data-name="Path 511"><path class="cls-1" d="M591,205.82l-2.64.68c-.91.2-1.82.37-2.74.5a41.7,41.7,0,0,1-5.47.42,43,43,0,0,0,5.23-1.42c.85-.3,1.68-.62,2.49-1l2.48-1.16Z"/></g><g id="Path_512" data-name="Path 512"><path class="cls-1" d="M589.26,208.48a47.06,47.06,0,0,1-5.25,1.1,43.31,43.31,0,0,1-5.34.39,42.73,42.73,0,0,0,5.1-1.4,44.78,44.78,0,0,0,4.84-2.06Z"/></g><g id="Path_513" data-name="Path 513"><path class="cls-1" d="M588,211.16a47,47,0,0,1-5.13,1,45.27,45.27,0,0,1-5.2.36,42.86,42.86,0,0,0,5-1.37,47.54,47.54,0,0,0,4.72-2Z"/></g><g id="Path_514" data-name="Path 514"><path class="cls-1" d="M586.57,213.83a42.3,42.3,0,0,1-10.07,1.29,44.69,44.69,0,0,0,4.82-1.34,46.37,46.37,0,0,0,4.6-1.91Z"/></g><g id="Path_515" data-name="Path 515"><path class="cls-1" d="M585.6,216.53a43.31,43.31,0,0,1-9.82,1.18,42.46,42.46,0,0,0,9.17-3.14Z"/></g><g id="Path_516" data-name="Path 516"><path class="cls-1" d="M583.6,219.17a44,44,0,0,1-9.56,1.08,44,44,0,0,0,8.91-3Z"/></g><g id="Path_517" data-name="Path 517"><path class="cls-1" d="M580.94,221.78a46.17,46.17,0,0,1-9.3,1,45,45,0,0,0,8.65-2.94Z"/></g><g id="Path_518" data-name="Path 518"><path class="cls-1" d="M578.3,224.38a45.81,45.81,0,0,1-9,.87,45.86,45.86,0,0,0,8.4-2.83Z"/></g></g></g></g><g id="Group_59" data-name="Group 59"><g id="Group_55" data-name="Group 55"><g id="Group_53" data-name="Group 53"><g id="Path_519" data-name="Path 519"><path class="cls-1" d="M506,144a41.7,41.7,0,0,1-5.7,0c-10.78-.7-20-5.46-25.83-13.42s-7.74-18.12-5.24-28.64A49.14,49.14,0,0,1,518.5,65.54c10.79.7,20,5.46,25.84,13.42s7.74,18.12,5.24,28.64a47.44,47.44,0,0,1-18.28,26.85A48.35,48.35,0,0,1,506,144Zm7-76.11A46,46,0,0,0,488.87,77h0a45,45,0,0,0-17.38,25.49c-2.33,9.83-.62,19.3,4.84,26.69s14,11.81,24.08,12.46A46.79,46.79,0,0,0,547.28,107c2.33-9.82.61-19.3-4.84-26.68s-14-11.81-24.09-12.47a42,42,0,0,0-5.38,0Z"/></g></g><g id="Group_54" data-name="Group 54"><g id="Path_520" data-name="Path 520"><path class="cls-1" d="M473.12,126.36a31.67,31.67,0,0,1,11.49-20.23c6.3-5.34,14.76-8,22.88-8.29a56.27,56.27,0,0,0,19.71-4A56.91,56.91,0,0,0,545,82.09a29.11,29.11,0,0,1-5.43,10.27,36.85,36.85,0,0,1-8.83,8,44.38,44.38,0,0,1-23,6.92,41.81,41.81,0,0,0-18.92,4.92A48.84,48.84,0,0,0,473.12,126.36Z"/></g></g></g><g id="Group_58" data-name="Group 58"><g id="Path_521" data-name="Path 521"><path class="cls-1" d="M475.35,129.08s24.54,20.42,53.11-2.91,14.93-46.51,14.93-46.51,18.69,25.7-10.45,52C532.94,131.66,497.45,158.75,475.35,129.08Z"/></g><g id="Group_56" data-name="Group 56"><g id="Path_522" data-name="Path 522"><path class="cls-1" d="M532.49,75.18a40.49,40.49,0,0,0-9.9-2.83,41,41,0,0,0-10.2-.46,43.49,43.49,0,0,0-10.05,1.82,67.89,67.89,0,0,0-9.65,3.71c1.47-.92,2.95-1.85,4.49-2.67a44.55,44.55,0,0,1,4.83-2,39.45,39.45,0,0,1,10.29-2.19,37.71,37.71,0,0,1,10.49.8A29.8,29.8,0,0,1,532.49,75.18Z"/></g><g id="Path_523" data-name="Path 523"><path class="cls-1" d="M519.26,110.1a21,21,0,0,1-6,2.13,30.33,30.33,0,0,1-6.37.64,31,31,0,0,0-6.16.48,27.57,27.57,0,0,0-5.92,1.6l-.05,0h0a48.71,48.71,0,0,0-7.32,3.6,80.52,80.52,0,0,0-6.83,4.65,47.92,47.92,0,0,1,6.4-5.32,37.67,37.67,0,0,1,7.35-4.07l-.05,0a27.59,27.59,0,0,1,12.61-2.2,43,43,0,0,0,6.22-.22A29.86,29.86,0,0,0,519.26,110.1Z"/></g></g><g id="Group_57" data-name="Group 57"><g id="Path_524" data-name="Path 524"><path class="cls-1" d="M528.62,127.43l-3.13-7,5,6Z"/></g><g id="Path_525" data-name="Path 525"><path class="cls-1" d="M530.87,127.5a60.63,60.63,0,0,0-3.44-8.92,60.39,60.39,0,0,1,5.36,8.16Z"/></g><g id="Path_526" data-name="Path 526"><path class="cls-1" d="M532,125.09a38.94,38.94,0,0,0-2.56-8.17,38.91,38.91,0,0,1,4.53,7.57Z"/></g><g id="Path_527" data-name="Path 527"><path class="cls-1" d="M533.71,123.25a36.76,36.76,0,0,0-2.65-8.56,38.63,38.63,0,0,1,4.64,8Z"/></g><g id="Path_528" data-name="Path 528"><path class="cls-1" d="M535.49,120.83a37.52,37.52,0,0,0-2.4-7.81,39.06,39.06,0,0,1,4.38,7.18Z"/></g><g id="Path_529" data-name="Path 529"><path class="cls-1" d="M537.86,121.43l-.5-2.77c-.19-.89-.42-1.78-.69-2.66a44,44,0,0,0-2-5.19,45.33,45.33,0,0,1,2.94,4.8c.44.84.84,1.71,1.21,2.59l1,2.6Z"/></g><g id="Path_530" data-name="Path 530"><path class="cls-1" d="M539.12,118.62l-.52-2.69c-.18-.86-.41-1.73-.67-2.59a41.13,41.13,0,0,0-1.92-5.06,42.12,42.12,0,0,1,2.88,4.67c.43.82.83,1.66,1.19,2.51l1,2.53Z"/></g><g id="Path_531" data-name="Path 531"><path class="cls-1" d="M540.27,115.69a43,43,0,0,0-1.18-5.14,43.88,43.88,0,0,0-1.86-4.94,44.22,44.22,0,0,1,2.82,4.55,47.86,47.86,0,0,1,2.2,4.9Z"/></g><g id="Path_532" data-name="Path 532"><path class="cls-1" d="M541.7,113.09a42.83,42.83,0,0,0-1.17-5,43.62,43.62,0,0,0-1.8-4.82,43,43,0,0,1,2.76,4.42,47.61,47.61,0,0,1,2.18,4.76Z"/></g><g id="Path_533" data-name="Path 533"><path class="cls-1" d="M543,110.36a44.82,44.82,0,0,0-1.16-4.84,44.09,44.09,0,0,0-1.75-4.69,45.43,45.43,0,0,1,2.7,4.29,46.34,46.34,0,0,1,2.18,4.62Z"/></g><g id="Path_534" data-name="Path 534"><path class="cls-1" d="M544.63,108a42.84,42.84,0,0,0-2.84-9.27,43.5,43.5,0,0,1,4.81,8.64Z"/></g><g id="Path_535" data-name="Path 535"><path class="cls-1" d="M545.59,104.82a44.21,44.21,0,0,0-2.77-9,44.77,44.77,0,0,1,4.74,8.36Z"/></g><g id="Path_536" data-name="Path 536"><path class="cls-1" d="M546.14,101.13a44.52,44.52,0,0,0-2.72-8.72,45.4,45.4,0,0,1,4.69,8.1Z"/></g><g id="Path_537" data-name="Path 537"><path class="cls-1" d="M546.69,97.47A45.59,45.59,0,0,0,544.05,89a45.57,45.57,0,0,1,4.61,7.83Z"/></g><g id="Path_538" data-name="Path 538"><path class="cls-1" d="M520,136a30.84,30.84,0,0,1-3-4.35l-2.64-4.41,3.46,3.79a29.75,29.75,0,0,0,3.57,3.44Z"/></g><g id="Path_539" data-name="Path 539"><path class="cls-1" d="M522.49,134.57l-5.7-8.53,7.2,7.1Z"/></g><g id="Path_540" data-name="Path 540"><path class="cls-1" d="M524.81,133.05a63.81,63.81,0,0,1-5.77-8.18,63.44,63.44,0,0,0,7.16,6.65Z"/></g><g id="Path_541" data-name="Path 541"><path class="cls-1" d="M525.25,130.61l-3.81-7.13,5.5,5.92Z"/></g><g id="Path_542" data-name="Path 542"><path class="cls-1" d="M527.2,129.21l-3.78-7.35,5.49,6.18Z"/></g><g id="Path_543" data-name="Path 543"><path class="cls-1" d="M517.33,136.34a37.92,37.92,0,0,1-5.47-8.57,36.76,36.76,0,0,0,6.88,7Z"/></g><g id="Path_544" data-name="Path 544"><path class="cls-1" d="M516.18,138.11c-.53-.59-1.4-1.42-2-2.18s-1.28-1.6-1.86-2.44a44,44,0,0,1-3.06-5.22,44.19,44.19,0,0,0,3.85,4.56c.7.71,1.42,1.37,2.17,2s1.46,1.1,2.42,1.85Z"/></g><g id="Path_545" data-name="Path 545"><path class="cls-1" d="M513.26,138.26c-.52-.6-1.33-1.41-1.95-2.16s-1.25-1.57-1.81-2.39a43.25,43.25,0,0,1-3-5.1,43.34,43.34,0,0,0,3.78,4.45c.68.69,1.38,1.34,2.11,1.95s1.44,1.1,2.34,1.82Z"/></g><g id="Path_546" data-name="Path 546"><path class="cls-1" d="M510.62,139.07c-.52-.62-1.28-1.39-1.88-2.13s-1.2-1.55-1.75-2.35a42,42,0,0,1-2.9-5,43.46,43.46,0,0,0,3.7,4.32c.66.68,1.35,1.32,2.06,1.92s1.42,1.1,2.27,1.79Z"/></g><g id="Path_547" data-name="Path 547"><path class="cls-1" d="M507.72,139.23l-1.82-2.12c-.6-.73-1.17-1.5-1.7-2.29a41.36,41.36,0,0,1-2.82-4.87,44.13,44.13,0,0,0,3.63,4.22,27.15,27.15,0,0,0,2,1.86l2.19,1.76Z"/></g><g id="Path_548" data-name="Path 548"><path class="cls-1" d="M504.65,139l-1.75-2.09c-.58-.73-1.13-1.48-1.64-2.24a44.1,44.1,0,0,1-2.74-4.76,41.79,41.79,0,0,0,3.54,4.1c.63.64,1.29,1.24,2,1.82l2.12,1.73Z"/></g><g id="Path_549" data-name="Path 549"><path class="cls-1" d="M501.52,138.62a48.11,48.11,0,0,1-3.27-4.26,42.58,42.58,0,0,1-2.65-4.65,42.39,42.39,0,0,0,3.46,4,46.46,46.46,0,0,0,3.95,3.47Z"/></g><g id="Path_550" data-name="Path 550"><path class="cls-1" d="M498.56,138.65a49.17,49.17,0,0,1-3.14-4.19,44,44,0,0,1-2.58-4.53,44.5,44.5,0,0,0,3.38,3.88,47.46,47.46,0,0,0,3.83,3.4Z"/></g><g id="Path_551" data-name="Path 551"><path class="cls-1" d="M495.53,138.51a49,49,0,0,1-3-4.12A43.31,43.31,0,0,1,490,130a41.46,41.46,0,0,0,7,7.09Z"/></g><g id="Path_552" data-name="Path 552"><path class="cls-1" d="M492.68,138.8a43.65,43.65,0,0,1-5.3-8.35,42.33,42.33,0,0,0,6.8,6.91Z"/></g><g id="Path_553" data-name="Path 553"><path class="cls-1" d="M489.43,138.13a44.79,44.79,0,0,1-5.1-8.16,43.17,43.17,0,0,0,6.59,6.72Z"/></g><g id="Path_554" data-name="Path 554"><path class="cls-1" d="M485.93,136.86a45.64,45.64,0,0,1-4.89-8,44.34,44.34,0,0,0,6.38,6.54Z"/></g><g id="Path_555" data-name="Path 555"><path class="cls-1" d="M482.45,135.6a45.25,45.25,0,0,1-4.69-7.79,43.65,43.65,0,0,0,6.18,6.35Z"/></g></g></g></g></g><g id="Group_63" data-name="Group 63"><g id="Group_62" data-name="Group 62"><g id="Group_61" data-name="Group 61"><g id="Path_556" data-name="Path 556"><path class="cls-1" d="M318.84,104.18a29.13,29.13,0,0,1,2.45-4,7.8,7.8,0,0,1,4.38-3.37,5.22,5.22,0,0,1,4.18,1,5.64,5.64,0,0,1,2.41,3.55,7.86,7.86,0,0,1-1.72,5.9,8.62,8.62,0,0,1-1.28,1.49l6.12,4.44-1.43,2Zm8.8,3.38A8.49,8.49,0,0,0,329,106c1.72-2.38,1.6-4.69-.47-6.19s-4.07-.73-5.63,1.42a9.91,9.91,0,0,0-1.19,2Z"/></g><g id="Path_557" data-name="Path 557"><path class="cls-1" d="M332,86.87a28,28,0,0,1,2.78-3.79c1.71-2,3.22-2.92,4.75-3.11a4.83,4.83,0,0,1,3.7,1.26,5,5,0,0,1,1.29,5.82l.07,0c1.32-.74,2.9-.52,4.68.44a30.13,30.13,0,0,0,4.87,2.31l-1.66,1.9a23.78,23.78,0,0,1-4.22-2c-2.33-1.29-3.75-1.15-5.27.46l-1.51,1.73,6.17,5.39-1.6,1.84Zm8.09,3.82,1.64-1.88c1.71-2,1.72-4.15.1-5.57-1.84-1.61-3.8-1-5.5,1a10.5,10.5,0,0,0-1.44,1.94Z"/></g><g id="Path_558" data-name="Path 558"><path class="cls-1" d="M360.6,71.06l-5.28,5.06L360,81l5.9-5.66,1.42,1.47-7.68,7.38L346.6,70.6,354,63.51,355.39,65l-5.6,5.38,4.13,4.3,5.28-5.07Z"/></g><g id="Path_559" data-name="Path 559"><path class="cls-1" d="M380.94,55c-1.73-2-3.82-4.41-5.25-6.25l0,0c.81,2.13,1.68,4.48,2.52,7.12l3,9.27-1.45,1.14-8-5.2c-2.36-1.57-4.41-3-6.21-4.46l-.05,0c1.4,1.89,3.23,4.45,4.85,6.81l4.57,6.7-1.83,1.43-10.56-15.7L365,54l8.15,5.23c2.05,1.35,3.81,2.61,5.41,3.84l0,0c-.78-1.81-1.52-3.86-2.32-6.26l-3-9.26,2.45-1.92,12.53,14.17-1.9,1.48Z"/></g><g id="Path_560" data-name="Path 560"><path class="cls-1" d="M387.62,37.68l10.24,15.89-2.08,1.34L385.54,39Z"/></g><g id="Path_561" data-name="Path 561"><path class="cls-1" d="M399.16,30.73l5.3,9.88c2,3.71,4.49,4.4,6.71,3.21,2.45-1.31,3.18-3.8,1.22-7.47l-5.3-9.88,2.17-1.16L414.49,35c2.74,5.11,1.16,8.63-2.44,10.57-3.41,1.83-7,1.28-9.8-3.91L397,31.9Z"/></g><g id="Path_562" data-name="Path 562"><path class="cls-1" d="M438.29,24.33c-1.1-2.4-2.44-5.3-3.3-7.47l-.05,0c.18,2.28.36,4.78.43,7.55l.29,9.75-1.72.69-6.19-7.23c-1.83-2.17-3.4-4.14-4.72-6h0c.82,2.21,1.85,5.18,2.75,7.9l2.52,7.72-2.16.86-5.76-18,2.89-1.15,6.38,7.3c1.59,1.88,2.93,3.58,4.12,5.22l0,0c-.23-2-.38-4.14-.47-6.67L433.05,15l2.89-1.15L444,31l-2.24.89Z"/></g><g id="Path_563" data-name="Path 563"><path class="cls-1" d="M479,24.82c-2.64-.13-5.23-.35-7.53-.63a3.6,3.6,0,0,0-1.18,0c-4.45.78-8.86-1.66-10.14-7.63S461.7,6,466.69,5s9.13,2.12,10.3,7.57c1,4.77-.53,8.25-3.37,10l0,.11c1.93.07,4,.08,5.65,0ZM474.5,13.21c-.8-3.73-3.53-7.13-7.45-6.29s-5.2,5-4.35,9,3.74,7,7.52,6.21,5.17-4.74,4.28-8.94Z"/></g><g id="Path_564" data-name="Path 564"><path class="cls-1" d="M487.75,1.76l1.15,11.15c.43,4.18,2.48,5.77,5,5.51,2.75-.28,4.38-2.3,3.95-6.43L496.7.84l2.45-.25,1.13,11c.59,5.77-2.2,8.42-6.28,8.84-3.84.39-7-1.48-7.56-7.33L485.3,2Z"/></g><g id="Path_565" data-name="Path 565"><path class="cls-1" d="M512.48,13l-1.87,6-2.52,0,6.13-19,2.92,0,6.76,18.79-2.61,0-2.11-5.91Zm6.19-2-2-5.41c-.44-1.23-.74-2.35-1-3.43h0c-.27,1.1-.53,2.28-.9,3.44L513,11.12Z"/></g><g id="Path_566" data-name="Path 566"><path class="cls-1" d="M533.37.52l2.46.21-1.44,16.8,8,.69-.17,2-10.51-.9Z"/></g><g id="Path_567" data-name="Path 567"><path class="cls-1" d="M555.48,3.08l-2.89,18.67-2.44-.38,2.9-18.67Z"/></g><g id="Path_568" data-name="Path 568"><path class="cls-1" d="M569.14,7.81l-5.6-1.28.46-2,13.63,3.11-.46,2-5.63-1.28L567.8,24.75l-2.4-.55Z"/></g><g id="Path_569" data-name="Path 569"><path class="cls-1" d="M585.16,29.56l2.5-7.62L585.35,9.73l2.67.87.9,5.79c.22,1.58.42,2.86.57,4.29l0,0c.86-1,1.89-2,3-3.11l4.21-4.1,2.61.85L590,22.68l-2.51,7.65Z"/></g><g id="Path_570" data-name="Path 570"><path class="cls-1" d="M619,22.82a21.68,21.68,0,0,1,4.19,1.6c2.18,1.08,3.4,2.16,4,3.52a4,4,0,0,1,0,3.7,4.45,4.45,0,0,1-4.71,2.3l0,.08a4.81,4.81,0,0,1,1.4,5.95,5,5,0,0,1-3.14,2.67c-1.69.51-3.85.07-6.62-1.3a30.74,30.74,0,0,1-3.29-1.89Zm-5.26,16.11a13.58,13.58,0,0,0,1.78,1c2.27,1.12,4.76,1.33,6-1.14,1.14-2.28-.36-4.25-2.75-5.43l-1.81-.9Zm4-8.09,2,1c2.29,1.13,4.26.57,5.07-1.06,1-2-.11-3.5-2.32-4.6a10.66,10.66,0,0,0-2-.81Z"/></g><g id="Path_571" data-name="Path 571"><path class="cls-1" d="M638.56,32.83l2.1,1.29-8.77,14.37,6.88,4.2-1.07,1.75-9-5.5Z"/></g><g id="Path_572" data-name="Path 572"><path class="cls-1" d="M657.3,57.47l-5.9-4.32-4,5.49,6.6,4.83-1.2,1.65-8.59-6.29L655.34,43.6l8.25,6-1.21,1.65-6.26-4.58-3.53,4.81,5.9,4.32Z"/></g><g id="Path_573" data-name="Path 573"><path class="cls-1" d="M659.29,70.3l12.57-14.13,2,1.79L672,69.12a53.44,53.44,0,0,1-1.57,6.82l.08,0c1.51-2,3-3.8,5-6l5.26-5.9,1.72,1.52L669.9,79.73l-1.85-1.64L670,66.93a54.63,54.63,0,0,1,1.57-7l-.08,0c-1.48,1.88-3,3.59-5.06,5.94l-5.37,6Z"/></g><g id="Path_574" data-name="Path 574"><path class="cls-1" d="M690.33,73.78a32,32,0,0,1,3.8,3.56c2.36,2.6,3.41,5,3.4,7.24a8.62,8.62,0,0,1-3.21,6.56,10.13,10.13,0,0,1-7.27,2.93c-2.51-.14-5.18-1.66-7.65-4.38a38.52,38.52,0,0,1-2.81-3.43Zm-10.73,13a19.17,19.17,0,0,0,1.58,1.9c3.52,3.88,7.56,4,11.34.57,3.32-3,3.72-6.75.25-10.57a14,14,0,0,0-2.11-2Z"/></g><g id="Path_575" data-name="Path 575"><path class="cls-1" d="M694.36,102.29A8.27,8.27,0,0,0,696,106.5c1.5,2,3.42,2.38,4.94,1.24s1.62-2.48.85-5.09c-.94-3.14-.78-5.64,1.32-7.22,2.36-1.76,5.57-1.12,7.77,1.82a8.57,8.57,0,0,1,1.75,3.88l-2,.65a7,7,0,0,0-1.42-3.39c-1.54-2.06-3.36-1.92-4.4-1.15-1.41,1.06-1.42,2.5-.67,5.19.93,3.3.66,5.5-1.57,7.16s-5.65,1.57-8.32-2a9.76,9.76,0,0,1-1.9-4.6Z"/></g></g></g></g><g id="Group_67" data-name="Group 67"><g id="BLACK_WHITE" data-name="BLACK WHITE" class="cls-2"><g class="cls-2"><path class="cls-1" d="M0,277.62H29.1q19.9,0,28.88,5.66t9,18Q67,309.67,63,315a15.74,15.74,0,0,1-10.46,6.46v.64q8.89,2,12.82,7.42T69.34,344q0,12.8-9.25,20T35,371.13H0Zm19.83,37H31.34q8.07,0,11.68-2.49c2.4-1.67,3.61-4.42,3.61-8.25,0-3.59-1.31-6.15-3.93-7.71s-6.77-2.34-12.45-2.34H19.83Zm0,15.74v24.37H32.75q8.19,0,12.09-3.14t3.9-9.59q0-11.64-16.63-11.64Z"/><path class="cls-1" d="M97.84,371.13V277.62h19.83v77.14H155.6v16.37Z"/><path class="cls-1" d="M238.92,371.13l-6.78-22.26H198.05l-6.78,22.26H169.9l33-93.9h24.24l33.14,93.9Zm-11.51-38.89Q218,302,216.82,298t-1.69-6.27Q213,299.94,203,332.24Z"/><path class="cls-1" d="M321.6,292.78q-11.19,0-17.33,8.41t-6.14,23.44q0,31.28,23.47,31.28,9.86,0,23.86-4.93v16.64a66.39,66.39,0,0,1-25.71,4.79q-20.42,0-31.22-12.37T277.72,324.5q0-14.58,5.31-25.55a38.39,38.39,0,0,1,15.26-16.82q9.94-5.86,23.31-5.86A63,63,0,0,1,349,282.86L342.58,299A106.63,106.63,0,0,0,332,294.63,31.42,31.42,0,0,0,321.6,292.78Z"/><path class="cls-1" d="M450.4,371.13H427.89l-24.5-39.4-8.38,6v33.39H375.18V277.62H395v42.79l7.8-11,25.33-31.79h22L417.52,319Z"/><path class="cls-1" d="M558.48,371.13H534.36L527,363.9a47.17,47.17,0,0,1-27.64,8.51q-15.6,0-24.75-7.16t-9.15-19.38a27.59,27.59,0,0,1,3.87-14.94q3.87-6.17,13.27-11.55a41.52,41.52,0,0,1-7-10.52,27.26,27.26,0,0,1-2.17-11,19.07,19.07,0,0,1,7.45-15.67q7.45-5.94,19.92-6,11.91,0,19,5.54a17.79,17.79,0,0,1,7.13,14.8,23.68,23.68,0,0,1-4.42,13.92q-4.41,6.3-14.26,12l18.16,17.72A78.57,78.57,0,0,0,534.36,321H554.7a91.5,91.5,0,0,1-6.33,16.86,77.09,77.09,0,0,1-9.15,14.55ZM486,344a10.61,10.61,0,0,0,4.13,8.77A16.58,16.58,0,0,0,500.72,356a27.48,27.48,0,0,0,14.52-3.91L494,331a26.83,26.83,0,0,0-5.85,5.88A12.11,12.11,0,0,0,486,344Zm23-45.35a6.64,6.64,0,0,0-2.3-5.34,8.9,8.9,0,0,0-5.95-1.95,10.21,10.21,0,0,0-6.75,2.05,7.13,7.13,0,0,0-2.46,5.82q0,5.63,6.07,12.41a38.37,38.37,0,0,0,8.45-6A9.55,9.55,0,0,0,509,298.66Z"/><path class="cls-1" d="M671.16,371.13H648.58L635.91,322q-.7-2.62-2.4-10.84t-2-11q-.37,3.45-1.92,11.1t-2.36,10.91l-12.6,49H592.16L568.3,277.62h19.51l12,51q3.13,14.14,4.54,24.5.39-3.65,1.76-11.29T608.66,330l13.63-52.38H641L654.65,330q.9,3.53,2.24,10.75t2.05,12.41q.64-5,2-12.44t2.56-12.06l11.89-51H695Z"/><path class="cls-1" d="M793.18,371.13H773.41V330.77h-37v40.36H716.55V277.62h19.83v36.65h37V277.62h19.77Z"/><path class="cls-1" d="M826.6,371.13V277.62h19.83v93.51Z"/><path class="cls-1" d="M915.87,371.13H896v-77H870.65v-16.5h70.62v16.5h-25.4Z"/><path class="cls-1" d="M1019.34,371.13H965.49V277.62h53.85v16.24h-34V314.4H1017v16.24H985.31v24.12h34Z"/></g></g></g></g></g></g></svg>