<svg xmlns="http://www.w3.org/2000/svg" width="380" height="182.52" viewBox="0 0 380 182.52"><defs><style>.a,.b,.c,.e{fill:#fffdfc;}.b{font-size:47.904px;font-family:OpenSans-Bold, Open Sans;font-weight:700;letter-spacing:0.075em;}.c{font-size:11.613px;letter-spacing:0.2em;}.c,.e{font-family:OpenSans-Regular, Open Sans;}.d{fill:#b88c43;stroke:#fffdfc;stroke-miterlimit:10;stroke-width:0.75px;}.e{font-size:8.71px;letter-spacing:0.3em;}</style></defs><g transform="translate(531.504 -104.928)"><path class="a" d="M-266.969,165.371a3.145,3.145,0,0,1,.37.5,5.659,5.659,0,0,1,.37.688l.183.45c.054.163.1.337.155.519s.085.379.119.582.053.418.06.639a6.041,6.041,0,0,1-.11,1.391,6.262,6.262,0,0,1-.47,1.427c-.12.224-.222.465-.363.68l-.434.64-.4.561c-.141.2-.224.369-.342.551a8.568,8.568,0,0,0-.556,1.146,6.066,6.066,0,0,0-.206.579,5.755,5.755,0,0,0-.159.571,8.9,8.9,0,0,0-.193,1.081c-.034.342-.051.66-.055.945s.009.535.025.743.033.372.05.484l.021.137a4.912,4.912,0,0,0,.5.084c3.386.158,6.283-2.964,6.471-6.975C-261.758,169.09-263.965,165.959-266.969,165.371Z"/><path class="a" d="M-269.212,179.12a5.714,5.714,0,0,1-.254-.738,6.1,6.1,0,0,1-.184-1.006,6.583,6.583,0,0,1-.016-1.223,6.687,6.687,0,0,1,.247-1.356,5.135,5.135,0,0,1,.236-.692,5.384,5.384,0,0,1,.313-.688c.125-.22.247-.479.384-.669l.423-.61.378-.539c.12-.183.217-.375.327-.561a7.073,7.073,0,0,0,.482-1.159,6.813,6.813,0,0,0,.244-1.161c.028-.19.025-.376.044-.558s0-.358,0-.529q-.02-.258-.036-.492l-.056-.446c-.05-.279-.1-.526-.145-.728s-.093-.362-.129-.469l-.041-.129a4.935,4.935,0,0,0-.731-.122c-3.386-.159-6.283,2.964-6.47,6.974-.178,3.8,2.149,7,5.27,7.461A3.189,3.189,0,0,1-269.212,179.12Z"/><path class="a" d="M-408.974,165.371a3.145,3.145,0,0,1,.37.5,5.659,5.659,0,0,1,.37.688l.183.45c.054.163.1.337.155.519s.085.379.119.582.053.418.06.639a6.041,6.041,0,0,1-.11,1.391,6.262,6.262,0,0,1-.47,1.427c-.12.224-.222.465-.363.68l-.434.64-.4.561c-.141.2-.224.369-.342.551a8.572,8.572,0,0,0-.556,1.146,6.075,6.075,0,0,0-.206.579,5.746,5.746,0,0,0-.159.571,8.891,8.891,0,0,0-.193,1.081c-.034.342-.051.66-.055.945s.009.535.025.743.033.372.05.484l.021.137a4.913,4.913,0,0,0,.5.084c3.386.158,6.283-2.964,6.471-6.975C-403.763,169.09-405.97,165.959-408.974,165.371Z"/><path class="a" d="M-411.217,179.12a5.714,5.714,0,0,1-.254-.738,6.1,6.1,0,0,1-.184-1.006,6.585,6.585,0,0,1-.016-1.223,6.689,6.689,0,0,1,.247-1.356,5.14,5.14,0,0,1,.236-.692,5.383,5.383,0,0,1,.313-.688c.125-.22.247-.479.384-.669l.423-.61.378-.539c.12-.183.217-.375.327-.561a7.07,7.07,0,0,0,.482-1.159,6.81,6.81,0,0,0,.244-1.161c.028-.19.025-.376.044-.558s0-.358,0-.529q-.02-.258-.036-.492l-.056-.446c-.05-.279-.1-.526-.145-.728s-.093-.362-.129-.469l-.041-.129a4.935,4.935,0,0,0-.731-.122c-3.386-.159-6.283,2.964-6.47,6.974-.178,3.8,2.149,7,5.27,7.461A3.189,3.189,0,0,1-411.217,179.12Z"/><path class="a" d="M-363.6,185.782a15.528,15.528,0,0,1-1.864-.888,12.364,12.364,0,0,1-6.346-8.433,12.361,12.361,0,0,1,2.771-10.185,17.188,17.188,0,0,1,10.182-5.918,17.181,17.181,0,0,1,11.649,1.726,12.36,12.36,0,0,1,6.346,8.433,12.36,12.36,0,0,1-2.771,10.184,17.185,17.185,0,0,1-10.182,5.918A17.551,17.551,0,0,1-363.6,185.782Zm14.21-23.789a16.7,16.7,0,0,0-9.306-.792h0a16.332,16.332,0,0,0-9.676,5.614,11.516,11.516,0,0,0-2.6,9.483,11.514,11.514,0,0,0,5.923,7.847,16.317,16.317,0,0,0,11.068,1.631,16.327,16.327,0,0,0,9.676-5.614,11.514,11.514,0,0,0,2.6-9.483,11.514,11.514,0,0,0-5.923-7.847A14.584,14.584,0,0,0-349.39,161.993Z"/><path class="a" d="M-371.569,174.864a11.473,11.473,0,0,1,6.923-4.814,13.637,13.637,0,0,1,8.777.872A20.446,20.446,0,0,0-348.8,172.7a20.531,20.531,0,0,0,7.656-1.053,10.513,10.513,0,0,1-3.384,2.509,13.4,13.4,0,0,1-4.145,1.24,16.1,16.1,0,0,1-8.593-1.333,15.1,15.1,0,0,0-6.956-1.353A17.683,17.683,0,0,0-371.569,174.864Z"/><path class="a" d="M-371.268,176.1s4.827,10.519,17.821,7.365,12.163-12.87,12.163-12.87,2.089,11.33-11.557,15.366C-352.841,185.964-368.686,189.266-371.268,176.1Z"/><path class="a" d="M-344.145,167.428a14.672,14.672,0,0,0-2.791-2.477A14.951,14.951,0,0,0-350.2,163.2a15.829,15.829,0,0,0-3.573-.98,24.865,24.865,0,0,0-3.734-.3c.623-.07,1.254-.145,1.886-.169a16.312,16.312,0,0,1,1.9.084,14.364,14.364,0,0,1,3.706.9,13.683,13.683,0,0,1,3.307,1.9A10.73,10.73,0,0,1-344.145,167.428Z"/><path class="a" d="M-353.939,176.771a7.464,7.464,0,0,1-2.292-.239,10.883,10.883,0,0,1-2.182-.79,11.186,11.186,0,0,0-2.091-.805,9.922,9.922,0,0,0-2.186-.4h-.021a17.305,17.305,0,0,0-2.957.031,28.29,28.29,0,0,0-2.962.451,17.11,17.11,0,0,1,2.926-.739,13.682,13.682,0,0,1,3.041-.179h-.021a10.038,10.038,0,0,1,4.469,1.256,15.413,15.413,0,0,0,2.066.9A10.674,10.674,0,0,0-353.939,176.771Z"/><path class="a" d="M-353.59,183.9l.077-2.794.672,2.756Z"/><path class="a" d="M-352.866,184.28a21.752,21.752,0,0,0,.271-3.453,22.087,22.087,0,0,1,.477,3.5Z"/><path class="a" d="M-352.109,183.676a13.736,13.736,0,0,0,.444-3.075,14.179,14.179,0,0,1,.3,3.186Z"/><path class="a" d="M-351.273,183.337a13.427,13.427,0,0,0,.473-3.214,13.789,13.789,0,0,1,.267,3.337Z"/><path class="a" d="M-350.309,182.823a13.715,13.715,0,0,0,.435-2.927,14.067,14.067,0,0,1,.307,3.03Z"/><path class="a" d="M-349.631,183.389l.268-.984c.078-.32.142-.646.192-.975a15.379,15.379,0,0,0,.164-2.008,15.71,15.71,0,0,1,.21,2.03c.012.343.01.688-.009,1.034l-.082,1.006Z"/><path class="a" d="M-348.78,182.668l.253-.959c.075-.313.136-.631.186-.952a15.511,15.511,0,0,0,.164-1.958,15.447,15.447,0,0,1,.21,1.979c.013.334.012.671,0,1.008l-.067.985Z"/><path class="a" d="M-347.943,181.889a16.132,16.132,0,0,0,.418-1.862,15.494,15.494,0,0,0,.164-1.908,15.617,15.617,0,0,1,.21,1.928,16.683,16.683,0,0,1-.049,1.945Z"/><path class="a" d="M-347.069,181.267a16.8,16.8,0,0,0,.4-1.814,15.659,15.659,0,0,0,.163-1.858,16,16,0,0,1,.211,1.877,17.342,17.342,0,0,1-.03,1.9Z"/><path class="a" d="M-346.21,180.58a16.742,16.742,0,0,0,.379-1.765,15.69,15.69,0,0,0,.162-1.808,15.99,15.99,0,0,1,.212,1.826,17.279,17.279,0,0,1-.01,1.85Z"/><path class="a" d="M-345.312,180.056a15.376,15.376,0,0,0,.521-3.475,15.825,15.825,0,0,1,.222,3.578Z"/><path class="a" d="M-344.5,179.168a15.762,15.762,0,0,0,.5-3.376,16.2,16.2,0,0,1,.243,3.48Z"/><path class="a" d="M-343.747,178.05a16.112,16.112,0,0,0,.48-3.278,16.575,16.575,0,0,1,.263,3.381Z"/><path class="a" d="M-342.991,176.938a16.321,16.321,0,0,0,.459-3.179,16.665,16.665,0,0,1,.284,3.282Z"/><path class="a" d="M-357.761,185.353a11.147,11.147,0,0,1-.3-1.892l-.172-1.853.54,1.779a10.681,10.681,0,0,0,.626,1.685Z"/><path class="a" d="M-356.714,185.278l-.526-3.68,1.24,3.449Z"/><path class="a" d="M-355.717,185.145a23.194,23.194,0,0,1-.606-3.577,22.722,22.722,0,0,0,1.3,3.3Z"/><path class="a" d="M-355.19,184.416l-.131-2.928.87,2.8Z"/><path class="a" d="M-354.334,184.265l-.084-3,.825,2.882Z"/><path class="a" d="M-358.677,185.051a13.616,13.616,0,0,1-.447-3.657,13.242,13.242,0,0,0,1.144,3.381Z"/><path class="a" d="M-359.333,185.45c-.081-.275-.234-.683-.318-1.03a10.946,10.946,0,0,1-.229-1.09,16.149,16.149,0,0,1-.185-2.185,15.992,15.992,0,0,0,.549,2.1q.174.508.394.991c.15.339.307.588.5.983Z"/><path class="a" d="M-360.308,185.043c-.078-.28-.217-.669-.3-1.011s-.163-.709-.217-1.065a15.738,15.738,0,0,1-.177-2.136,15.719,15.719,0,0,0,.54,2.045c.113.331.242.655.385.969s.3.585.481.962Z"/><path class="a" d="M-361.3,184.894c-.074-.285-.2-.657-.281-.993s-.154-.693-.207-1.041a15.611,15.611,0,0,1-.168-2.085,15.608,15.608,0,0,0,.532,2c.111.323.236.64.375.947s.292.58.461.941Z"/><path class="a" d="M-362.273,184.49l-.263-.975c-.081-.337-.145-.676-.2-1.015a15.538,15.538,0,0,1-.16-2.035,15.488,15.488,0,0,0,.524,1.946q.164.473.365.924l.441.92Z"/><path class="a" d="M-363.241,183.935l-.244-.957c-.076-.329-.137-.66-.185-.991a15.452,15.452,0,0,1-.151-1.984,15.275,15.275,0,0,0,.516,1.9q.159.46.354.9l.422.9Z"/><path class="a" d="M-364.2,183.32a16.678,16.678,0,0,1-.4-1.9,15.589,15.589,0,0,1-.141-1.935,15.194,15.194,0,0,0,.506,1.847,16,16,0,0,0,.748,1.756Z"/><path class="a" d="M-365.177,182.866a16.921,16.921,0,0,1-.372-1.861,15.774,15.774,0,0,1-.132-1.885,15.438,15.438,0,0,0,.5,1.8,16.367,16.367,0,0,0,.719,1.712Z"/><path class="a" d="M-366.146,182.346a17.514,17.514,0,0,1-.345-1.818,16.211,16.211,0,0,1-.121-1.835,16.034,16.034,0,0,0,.487,1.75,16.945,16.945,0,0,0,.691,1.667Z"/><path class="a" d="M-367.124,181.993a15.873,15.873,0,0,1-.428-3.56,15.41,15.41,0,0,0,1.14,3.324Z"/><path class="a" d="M-368.081,181.266a16.134,16.134,0,0,1-.39-3.466,15.774,15.774,0,0,0,1.1,3.23Z"/><path class="a" d="M-369.025,180.3a16.389,16.389,0,0,1-.352-3.372,16.074,16.074,0,0,0,1.064,3.137Z"/><path class="a" d="M-369.97,179.345a16.718,16.718,0,0,1-.314-3.279,16.408,16.408,0,0,0,1.026,3.044Z"/><path class="a" d="M-311.306,179.9a15.528,15.528,0,0,1-.888,1.864,12.361,12.361,0,0,1-8.433,6.346,12.361,12.361,0,0,1-10.185-2.771,17.182,17.182,0,0,1-5.918-10.181A17.179,17.179,0,0,1-335,163.51a12.357,12.357,0,0,1,8.433-6.346,12.357,12.357,0,0,1,10.184,2.771,17.182,17.182,0,0,1,5.918,10.181A17.549,17.549,0,0,1-311.306,179.9Zm-23.789-14.21a16.7,16.7,0,0,0-.792,9.306h0a16.326,16.326,0,0,0,5.614,9.676,11.513,11.513,0,0,0,9.483,2.6,11.512,11.512,0,0,0,7.847-5.922,16.319,16.319,0,0,0,1.631-11.068,16.322,16.322,0,0,0-5.614-9.676,11.518,11.518,0,0,0-9.483-2.6,11.515,11.515,0,0,0-7.847,5.924A14.644,14.644,0,0,0-335.1,165.691Z"/><path class="a" d="M-322.224,187.87a11.471,11.471,0,0,1-4.814-6.922,13.636,13.636,0,0,1,.872-8.777,20.452,20.452,0,0,0,1.773-7.074,20.531,20.531,0,0,0-1.053-7.656,10.513,10.513,0,0,1,2.509,3.384,13.4,13.4,0,0,1,1.24,4.145,16.1,16.1,0,0,1-1.333,8.593,15.094,15.094,0,0,0-1.353,6.955A17.684,17.684,0,0,0-322.224,187.87Z"/><path class="a" d="M-320.985,187.57s10.519-4.827,7.365-17.821-12.87-12.164-12.87-12.164,11.33-2.088,15.366,11.558C-311.124,169.143-307.822,184.987-320.985,187.57Z"/><path class="a" d="M-329.66,160.446a14.646,14.646,0,0,0-2.477,2.792,14.965,14.965,0,0,0-1.747,3.263,15.844,15.844,0,0,0-.98,3.573,24.893,24.893,0,0,0-.3,3.735c-.07-.624-.144-1.254-.169-1.886a16.293,16.293,0,0,1,.084-1.9,14.364,14.364,0,0,1,.9-3.706,13.665,13.665,0,0,1,1.9-3.307A10.734,10.734,0,0,1-329.66,160.446Z"/><path class="a" d="M-320.317,170.241a7.471,7.471,0,0,1-.239,2.292,10.875,10.875,0,0,1-.79,2.181,11.154,11.154,0,0,0-.8,2.092,9.9,9.9,0,0,0-.4,2.186v.021a17.309,17.309,0,0,0,.031,2.957,28.307,28.307,0,0,0,.451,2.961,17.1,17.1,0,0,1-.739-2.925,13.625,13.625,0,0,1-.178-3.041l0,.021a10.034,10.034,0,0,1,1.256-4.469,15.365,15.365,0,0,0,.9-2.067A10.65,10.65,0,0,0-320.317,170.241Z"/><path class="a" d="M-313.183,169.892l-2.793-.077,2.756-.672Z"/><path class="a" d="M-312.808,169.168a21.627,21.627,0,0,0-3.453-.271,22.088,22.088,0,0,1,3.5-.478Z"/><path class="a" d="M-313.412,168.41a13.853,13.853,0,0,0-3.075-.444,14.238,14.238,0,0,1,3.186-.3Z"/><path class="a" d="M-313.752,167.574a13.468,13.468,0,0,0-3.213-.473,13.787,13.787,0,0,1,3.337-.266Z"/><path class="a" d="M-314.265,166.611a13.714,13.714,0,0,0-2.927-.436,14.131,14.131,0,0,1,3.031-.307Z"/><path class="a" d="M-313.7,165.932l-.984-.267c-.32-.079-.646-.142-.975-.192a15.374,15.374,0,0,0-2.008-.164,15.529,15.529,0,0,1,2.03-.211c.343-.011.688-.009,1.034.01l1.006.081Z"/><path class="a" d="M-314.42,165.082l-.959-.254c-.313-.074-.631-.136-.952-.185a15.311,15.311,0,0,0-1.958-.164,15.469,15.469,0,0,1,1.979-.21c.334-.013.671-.013,1.008,0l.985.068Z"/><path class="a" d="M-315.2,164.245a16.015,16.015,0,0,0-1.862-.418,15.281,15.281,0,0,0-1.908-.164,15.619,15.619,0,0,1,1.928-.211,16.468,16.468,0,0,1,1.945.05Z"/><path class="a" d="M-315.821,163.37a16.8,16.8,0,0,0-1.814-.4,15.655,15.655,0,0,0-1.858-.163,15.572,15.572,0,0,1,1.877-.211,16.853,16.853,0,0,1,1.9.03Z"/><path class="a" d="M-316.508,162.512a16.74,16.74,0,0,0-1.765-.379,15.917,15.917,0,0,0-1.808-.163,15.994,15.994,0,0,1,1.826-.212,17.026,17.026,0,0,1,1.85.011Z"/><path class="a" d="M-317.032,161.613a15.489,15.489,0,0,0-3.475-.521,15.824,15.824,0,0,1,3.578-.222Z"/><path class="a" d="M-317.92,160.8a15.763,15.763,0,0,0-3.376-.5,16.129,16.129,0,0,1,3.48-.243Z"/><path class="a" d="M-319.038,160.049a16.123,16.123,0,0,0-3.278-.48,16.434,16.434,0,0,1,3.381-.263Z"/><path class="a" d="M-320.15,159.293a16.246,16.246,0,0,0-3.179-.459,16.664,16.664,0,0,1,3.282-.284Z"/><path class="a" d="M-311.735,174.062a11.051,11.051,0,0,1-1.892.3l-1.853.173,1.779-.54a10.882,10.882,0,0,0,1.685-.626Z"/><path class="a" d="M-311.81,173.015l-3.68.526,3.449-1.24Z"/><path class="a" d="M-311.943,172.018a22.954,22.954,0,0,1-3.577.606,22.722,22.722,0,0,0,3.295-1.3Z"/><path class="a" d="M-312.672,171.491l-2.928.131,2.8-.87Z"/><path class="a" d="M-312.823,170.635l-3,.084,2.883-.825Z"/><path class="a" d="M-312.037,174.979a13.571,13.571,0,0,1-3.657.446,13.239,13.239,0,0,0,3.381-1.143Z"/><path class="a" d="M-311.638,175.634c-.276.081-.683.235-1.03.319q-.543.143-1.09.229a16.142,16.142,0,0,1-2.185.184,15.99,15.99,0,0,0,2.1-.548q.508-.174.991-.395c.339-.149.588-.306.983-.5Z"/><path class="a" d="M-312.045,176.61c-.28.077-.669.217-1.011.3s-.709.163-1.065.218a15.9,15.9,0,0,1-2.136.177,15.881,15.881,0,0,0,2.045-.541c.331-.113.655-.242.969-.384.329-.146.585-.3.962-.481Z"/><path class="a" d="M-312.194,177.6c-.285.074-.657.2-.993.28s-.693.154-1.041.207a15.78,15.78,0,0,1-2.085.169,15.506,15.506,0,0,0,2-.533c.322-.111.639-.235.946-.375s.58-.291.941-.46Z"/><path class="a" d="M-312.6,178.575l-.975.262q-.506.121-1.015.2a15.366,15.366,0,0,1-2.035.16,15.214,15.214,0,0,0,1.945-.524q.474-.164.925-.365l.919-.441Z"/><path class="a" d="M-313.153,179.542l-.957.245q-.494.112-.991.184a15.443,15.443,0,0,1-1.984.151,15.267,15.267,0,0,0,1.9-.515c.307-.107.608-.224.9-.355l.9-.422Z"/><path class="a" d="M-313.768,180.506a16.669,16.669,0,0,1-1.9.4,15.591,15.591,0,0,1-1.935.142,15.381,15.381,0,0,0,1.847-.506,16,16,0,0,0,1.756-.748Z"/><path class="a" d="M-314.222,181.478a17.211,17.211,0,0,1-1.861.373,15.754,15.754,0,0,1-1.885.131,15.5,15.5,0,0,0,1.8-.5,16.675,16.675,0,0,0,1.711-.72Z"/><path class="a" d="M-314.742,182.447a17.262,17.262,0,0,1-1.818.345,15.985,15.985,0,0,1-1.835.121,15.814,15.814,0,0,0,1.75-.486,16.955,16.955,0,0,0,1.667-.692Z"/><path class="a" d="M-315.1,183.426a15.858,15.858,0,0,1-3.559.428,15.464,15.464,0,0,0,3.324-1.14Z"/><path class="a" d="M-315.822,184.383a16.132,16.132,0,0,1-3.466.39,15.775,15.775,0,0,0,3.23-1.1Z"/><path class="a" d="M-316.786,185.327a16.458,16.458,0,0,1-3.372.352,16.141,16.141,0,0,0,3.137-1.064Z"/><path class="a" d="M-317.743,186.271a16.642,16.642,0,0,1-3.279.314,16.23,16.23,0,0,0,3.043-1.026Z"/><path class="a" d="M-343.969,157.139a15.454,15.454,0,0,1-2.064,0,12.36,12.36,0,0,1-9.366-4.865,12.36,12.36,0,0,1-1.9-10.382,17.185,17.185,0,0,1,6.627-9.735,17.182,17.182,0,0,1,11.252-3.475,12.361,12.361,0,0,1,9.366,4.865,12.366,12.366,0,0,1,1.9,10.383,17.19,17.19,0,0,1-6.627,9.734A17.556,17.556,0,0,1-343.969,157.139Zm2.542-27.593a16.692,16.692,0,0,0-8.735,3.306h0a16.326,16.326,0,0,0-6.3,9.242,11.515,11.515,0,0,0,1.755,9.674,11.515,11.515,0,0,0,8.731,4.519,16.327,16.327,0,0,0,10.687-3.309,16.327,16.327,0,0,0,6.3-9.243,11.517,11.517,0,0,0-1.755-9.674,11.514,11.514,0,0,0-8.731-4.519A14.783,14.783,0,0,0-341.427,129.546Z"/><path class="a" d="M-355.871,150.734a11.475,11.475,0,0,1,4.164-7.332,13.639,13.639,0,0,1,8.293-3,20.454,20.454,0,0,0,7.146-1.456,20.551,20.551,0,0,0,6.45-4.256,10.515,10.515,0,0,1-1.968,3.724,13.382,13.382,0,0,1-3.2,2.908,16.09,16.09,0,0,1-8.326,2.509,15.1,15.1,0,0,0-6.858,1.784A17.684,17.684,0,0,0-355.871,150.734Z"/><path class="a" d="M-355.065,151.721s8.9,7.4,19.254-1.054,5.412-16.86,5.412-16.86,6.777,9.316-3.787,18.85C-334.186,152.657-347.051,162.478-355.065,151.721Z"/><path class="a" d="M-334.348,132.183a14.741,14.741,0,0,0-3.588-1.029,14.981,14.981,0,0,0-3.7-.166,15.906,15.906,0,0,0-3.646.659,24.914,24.914,0,0,0-3.5,1.346c.532-.332,1.068-.671,1.628-.967a16.652,16.652,0,0,1,1.75-.745,14.358,14.358,0,0,1,3.73-.791,13.68,13.68,0,0,1,3.8.288A10.749,10.749,0,0,1-334.348,132.183Z"/><path class="a" d="M-339.147,144.84a7.493,7.493,0,0,1-2.171.774,10.9,10.9,0,0,1-2.308.23,11.169,11.169,0,0,0-2.234.177,9.944,9.944,0,0,0-2.147.578l-.016.007,0,0a17.2,17.2,0,0,0-2.653,1.3,28.435,28.435,0,0,0-2.477,1.686,17.191,17.191,0,0,1,2.32-1.93,13.665,13.665,0,0,1,2.665-1.474l-.019.008a10.021,10.021,0,0,1,4.573-.8,15.426,15.426,0,0,0,2.253-.079A10.659,10.659,0,0,0-339.147,144.84Z"/><path class="a" d="M-335.751,151.123l-1.137-2.553,1.8,2.2Z"/><path class="a" d="M-334.936,151.149a21.74,21.74,0,0,0-1.247-3.232,22.006,22.006,0,0,1,1.944,2.955Z"/><path class="a" d="M-334.514,150.277a13.8,13.8,0,0,0-.928-2.965,14.183,14.183,0,0,1,1.645,2.745Z"/><path class="a" d="M-333.907,149.61a13.414,13.414,0,0,0-.961-3.1,13.822,13.822,0,0,1,1.682,2.895Z"/><path class="a" d="M-333.26,148.73a13.725,13.725,0,0,0-.87-2.827,14.081,14.081,0,0,1,1.585,2.6Z"/><path class="a" d="M-332.4,148.948l-.183-1c-.068-.323-.152-.644-.249-.963a15.425,15.425,0,0,0-.719-1.882,15.653,15.653,0,0,1,1.066,1.74q.238.458.439.937l.361.943Z"/><path class="a" d="M-331.947,147.93l-.186-.974c-.068-.315-.15-.628-.244-.939a15.209,15.209,0,0,0-.7-1.837,15.436,15.436,0,0,1,1.045,1.7q.234.444.433.91l.365.917Z"/><path class="a" d="M-331.529,146.866a16.063,16.063,0,0,0-.427-1.86,15.548,15.548,0,0,0-.676-1.792,15.545,15.545,0,0,1,1.022,1.648,16.672,16.672,0,0,1,.8,1.777Z"/><path class="a" d="M-331.009,145.927a16.571,16.571,0,0,0-.424-1.807,15.548,15.548,0,0,0-.655-1.747,15.594,15.594,0,0,1,1,1.6,16.965,16.965,0,0,1,.793,1.725Z"/><path class="a" d="M-330.531,144.937a16.805,16.805,0,0,0-.42-1.755,16.105,16.105,0,0,0-.635-1.7,16.006,16.006,0,0,1,.98,1.556,17.29,17.29,0,0,1,.79,1.673Z"/><path class="a" d="M-329.947,144.076a15.5,15.5,0,0,0-1.031-3.359,15.823,15.823,0,0,1,1.746,3.131Z"/><path class="a" d="M-329.6,142.926a15.873,15.873,0,0,0-1.007-3.261,16.191,16.191,0,0,1,1.721,3.033Z"/><path class="a" d="M-329.4,141.591a16.1,16.1,0,0,0-.983-3.163,16.473,16.473,0,0,1,1.7,2.936Z"/><path class="a" d="M-329.2,140.262a16.342,16.342,0,0,0-.959-3.066,16.712,16.712,0,0,1,1.674,2.838Z"/><path class="a" d="M-338.887,154.231a11.094,11.094,0,0,1-1.086-1.578l-.956-1.6,1.255,1.371a10.722,10.722,0,0,0,1.293,1.25Z"/><path class="a" d="M-337.975,153.711l-2.064-3.092,2.608,2.576Z"/><path class="a" d="M-337.134,153.16a23.08,23.08,0,0,1-2.091-2.964,22.824,22.824,0,0,0,2.6,2.41Z"/><path class="a" d="M-336.973,152.275l-1.383-2.584,1.993,2.148Z"/><path class="a" d="M-336.266,151.769l-1.37-2.666,1.989,2.243Z"/><path class="a" d="M-339.845,154.354a13.618,13.618,0,0,1-1.982-3.106,13.258,13.258,0,0,0,2.492,2.556Z"/><path class="a" d="M-340.263,155c-.192-.214-.507-.515-.733-.791-.242-.285-.467-.581-.677-.884a16.181,16.181,0,0,1-1.11-1.892,15.9,15.9,0,0,0,1.4,1.653q.378.383.785.724c.281.241.53.4.876.67Z"/><path class="a" d="M-341.319,155.051c-.191-.219-.485-.51-.707-.782s-.453-.569-.656-.867a15.882,15.882,0,0,1-1.082-1.85,15.634,15.634,0,0,0,1.371,1.611c.245.25.5.486.765.708s.523.4.849.66Z"/><path class="a" d="M-342.276,155.344c-.19-.225-.465-.5-.682-.774s-.438-.559-.636-.849a15.78,15.78,0,0,1-1.053-1.808,15.575,15.575,0,0,0,1.342,1.569c.24.244.489.476.747.693s.514.4.822.649Z"/><path class="a" d="M-343.33,155.4l-.658-.767c-.218-.268-.423-.547-.615-.831a15.466,15.466,0,0,1-1.023-1.766,15.279,15.279,0,0,0,1.313,1.528q.351.357.728.677l.795.638Z"/><path class="a" d="M-344.442,155.318l-.634-.757q-.315-.4-.594-.814a15.391,15.391,0,0,1-.994-1.725,15.29,15.29,0,0,0,1.284,1.488q.344.347.71.661l.768.627Z"/><path class="a" d="M-345.577,155.18a16.525,16.525,0,0,1-1.184-1.545,15.555,15.555,0,0,1-.963-1.683,15.4,15.4,0,0,0,1.254,1.447,16.239,16.239,0,0,0,1.433,1.261Z"/><path class="a" d="M-346.65,155.19a17.1,17.1,0,0,1-1.14-1.517,15.92,15.92,0,0,1-.933-1.643,15.719,15.719,0,0,0,1.225,1.407,16.657,16.657,0,0,0,1.388,1.233Z"/><path class="a" d="M-347.749,155.14a17.435,17.435,0,0,1-1.1-1.491,16.139,16.139,0,0,1-.9-1.6,16.143,16.143,0,0,0,1.2,1.368,16.636,16.636,0,0,0,1.343,1.2Z"/><path class="a" d="M-348.784,155.244a15.806,15.806,0,0,1-1.923-3.026,15.421,15.421,0,0,0,2.464,2.506Z"/><path class="a" d="M-349.961,155a16.219,16.219,0,0,1-1.849-2.957,15.881,15.881,0,0,0,2.389,2.437Z"/><path class="a" d="M-351.229,154.541a16.568,16.568,0,0,1-1.774-2.89,16.126,16.126,0,0,0,2.315,2.369Z"/><path class="a" d="M-352.493,154.085a16.565,16.565,0,0,1-1.7-2.822,16.232,16.232,0,0,0,2.24,2.3Z"/><path class="a" d="M-411.8,142.7a10.227,10.227,0,0,1,.889-1.452,2.819,2.819,0,0,1,1.588-1.22,1.877,1.877,0,0,1,1.512.356,2.02,2.02,0,0,1,.874,1.287,2.849,2.849,0,0,1-.621,2.136,3.02,3.02,0,0,1-.466.54l2.22,1.61-.519.716Zm3.192,1.223a2.98,2.98,0,0,0,.487-.55,1.466,1.466,0,0,0-.168-2.243c-.74-.537-1.476-.267-2.042.514a3.713,3.713,0,0,0-.432.716Z"/><path class="a" d="M-407.023,136.418a10.38,10.38,0,0,1,1.009-1.373,2.836,2.836,0,0,1,1.724-1.126,1.752,1.752,0,0,1,1.343.456,1.8,1.8,0,0,1,.467,2.108l.023.02a1.72,1.72,0,0,1,1.7.158,10.939,10.939,0,0,0,1.765.839l-.6.689a8.557,8.557,0,0,1-1.527-.739c-.846-.468-1.361-.418-1.912.167l-.549.627,2.237,1.952-.581.667Zm2.933,1.386.6-.682a1.348,1.348,0,0,0,.035-2.02c-.666-.582-1.378-.353-1.993.352a3.826,3.826,0,0,0-.521.706Z"/><path class="a" d="M-396.666,130.686l-1.911,1.836,1.709,1.78,2.138-2.054.514.535L-397,135.456l-4.741-4.937,2.673-2.568.514.535-2.029,1.949,1.5,1.56,1.912-1.836Z"/><path class="a" d="M-389.29,124.857c-.626-.722-1.386-1.6-1.9-2.263l-.017.013c.295.774.609,1.624.917,2.581l1.087,3.362-.528.412-2.885-1.885c-.855-.569-1.6-1.1-2.252-1.618l-.016.012c.509.686,1.168,1.614,1.756,2.468l1.659,2.428-.664.518-3.83-5.693.889-.693,2.956,1.894c.742.491,1.38.946,1.961,1.394l.016-.012c-.28-.657-.55-1.4-.84-2.268l-1.073-3.36.889-.693,4.543,5.137-.689.537Z"/><path class="a" d="M-386.87,118.588l3.712,5.759-.752.485-3.712-5.759Z"/><path class="a" d="M-382.686,116.067l1.923,3.582c.72,1.344,1.628,1.6,2.434,1.162.887-.475,1.152-1.379.441-2.7l-1.923-3.582.788-.423,1.894,3.529c.995,1.854.422,3.13-.885,3.832-1.236.663-2.543.465-3.552-1.417l-1.908-3.555Z"/><path class="a" d="M-368.5,113.746c-.4-.868-.884-1.922-1.2-2.707l-.019.008c.067.827.13,1.731.158,2.737l.1,3.535-.624.248-2.243-2.619c-.663-.787-1.231-1.5-1.711-2.185l-.019.007c.3.8.67,1.877,1,2.863l.914,2.8-.783.312-2.086-6.542,1.048-.417,2.31,2.647c.576.679,1.062,1.295,1.494,1.889l.019-.007c-.085-.71-.136-1.5-.172-2.415l-.09-3.529,1.048-.417,2.927,6.209-.812.322Z"/><path class="a" d="M-353.728,113.923c-.954-.046-1.9-.125-2.728-.228a1.391,1.391,0,0,0-.428-.013,3.147,3.147,0,0,1-3.676-2.767c-.458-2.145.549-3.8,2.356-4.19,1.828-.39,3.311.768,3.734,2.745a3.2,3.2,0,0,1-1.22,3.626l.008.039c.7.027,1.461.031,2.048.009Zm-1.646-4.208c-.288-1.351-1.278-2.584-2.7-2.281-1.46.312-1.887,1.816-1.577,3.267.3,1.43,1.354,2.546,2.725,2.253S-355.049,111.234-355.374,109.715Z"/><path class="a" d="M-350.569,105.566l.415,4.041c.155,1.515.9,2.092,1.808,2,1-.1,1.588-.837,1.434-2.332l-.415-4.041.889-.091.409,3.98c.215,2.091-.8,3.053-2.274,3.2-1.394.143-2.526-.537-2.743-2.658l-.413-4.01Z"/><path class="a" d="M-341.605,109.652l-.676,2.166-.914.015,2.224-6.887,1.057-.018,2.451,6.811-.946.015-.767-2.142Zm2.245-.728-.714-1.96c-.159-.445-.268-.85-.376-1.244h-.02c-.1.4-.19.826-.325,1.246l-.638,1.992Z"/><path class="a" d="M-334.031,105.115l.892.076-.523,6.09,2.918.25-.064.739-3.809-.326Z"/><path class="a" d="M-326.014,106.043l-1.049,6.768-.883-.137,1.049-6.767Z"/><path class="a" d="M-321.064,107.758l-2.03-.463.167-.733,4.941,1.127-.167.732-2.04-.465-1.355,5.942-.871-.2Z"/><path class="a" d="M-315.255,115.643l.907-2.762-.836-4.427.967.317.327,2.1c.079.573.152,1.035.206,1.556l.019.006c.313-.368.685-.716,1.1-1.126l1.527-1.489.947.311-3.4,3.024-.911,2.772Z"/><path class="a" d="M-302.993,113.2a7.719,7.719,0,0,1,1.516.581,2.783,2.783,0,0,1,1.454,1.277,1.442,1.442,0,0,1-.018,1.342,1.62,1.62,0,0,1-1.707.833l-.013.028a1.746,1.746,0,0,1,.508,2.158,1.807,1.807,0,0,1-1.139.968,3.394,3.394,0,0,1-2.4-.474,10.266,10.266,0,0,1-1.193-.683Zm-1.909,5.84a4.834,4.834,0,0,0,.647.366c.82.407,1.725.481,2.168-.412.411-.829-.133-1.541-1-1.97l-.656-.325Zm1.455-2.933.719.357c.83.411,1.542.208,1.836-.384.352-.711-.041-1.269-.842-1.666a3.792,3.792,0,0,0-.729-.293Z"/><path class="a" d="M-295.895,116.829l.763.466-3.182,5.209,2.5,1.525-.387.632-3.258-1.991Z"/><path class="a" d="M-289.1,125.758l-2.139-1.565-1.457,1.991,2.393,1.751-.438.6-3.114-2.279,4.042-5.522,2.991,2.188-.438.6-2.27-1.661-1.277,1.746,2.139,1.565Z"/><path class="a" d="M-288.38,130.411l4.556-5.122.729.649-.671,4.045a19.106,19.106,0,0,1-.569,2.475l.03.013c.548-.738,1.087-1.375,1.8-2.173l1.906-2.142.623.554-4.556,5.121-.669-.594.686-4.046a20.071,20.071,0,0,1,.571-2.554l-.03-.013c-.536.68-1.076,1.3-1.833,2.153l-1.947,2.188Z"/><path class="a" d="M-277.128,131.674a11.436,11.436,0,0,1,1.377,1.289,3.975,3.975,0,0,1,1.234,2.628,3.129,3.129,0,0,1-1.164,2.377,3.662,3.662,0,0,1-2.634,1.061,4.263,4.263,0,0,1-2.773-1.586,14.09,14.09,0,0,1-1.02-1.243Zm-3.889,4.729a7.306,7.306,0,0,0,.571.689,2.629,2.629,0,0,0,4.113.2,2.443,2.443,0,0,0,.09-3.831,4.974,4.974,0,0,0-.765-.706Z"/><path class="a" d="M-275.667,142.009a3.008,3.008,0,0,0,.586,1.528c.542.724,1.241.861,1.794.447.5-.378.586-.9.308-1.843-.344-1.138-.286-2.044.478-2.617a1.972,1.972,0,0,1,2.816.659,3.072,3.072,0,0,1,.633,1.4l-.724.237a2.54,2.54,0,0,0-.513-1.228c-.56-.748-1.22-.7-1.594-.418-.513.384-.515.906-.242,1.881.336,1.2.236,1.994-.569,2.6-.846.633-2.049.569-3.017-.724a3.533,3.533,0,0,1-.689-1.667Z"/><text class="b" transform="translate(-341.504 239.719)"><tspan x="-189.945" y="0">BLACK&amp;WHITE</tspan></text><text class="c" transform="translate(-341.639 263.647)"><tspan x="-68.84" y="0">ESTABLISHED 1987</tspan></text><line class="d" x2="28.475" transform="translate(-266.677 259.534)"/><line class="d" x2="28.475" transform="translate(-446.201 259.534)"/><text class="e" transform="translate(-340.341 284.448)"><tspan x="-48.727" y="0">FRESH TOASTED</tspan></text></g></svg>