<svg xmlns="http://www.w3.org/2000/svg" width="122.148" height="141" viewBox="0 0 122.148 141"><defs><style>.a{fill:#af9375;}</style></defs><g transform="translate(-243.434 -242.614)"><path class="a" d="M344.575,264.363a.727.727,0,0,0-1.2-.292.717.717,0,0,0-1.046-.485l-.018.01c.144-.439-.066-.972-.637-.9l-6.271.769a.266.266,0,0,0-.433.052q-7.936.971-15.875,1.947a26.067,26.067,0,0,0-1.559-10.762c-2.606-6.832-8.552-12.365-16.2-12.076a17.45,17.45,0,0,0-5.267,1.04,12.588,12.588,0,0,0-5.405-1.032c-12.409.246-14.244,15.232-13.876,24.608a87.4,87.4,0,0,0-17.061,2.011.64.64,0,0,0-.451.914.627.627,0,0,0-.294.136.708.708,0,0,0-.4.585Q256.783,291,254.04,311l-.439.375c-.256.218.056.567.327.451q-2.834,20.537-6.647,40.927c-.222.164-.447.323-.669.487-.293.216-.006.717.29.495l.222-.162q-.457,2.431-.926,4.854l-.034.028a.231.231,0,0,0-.038.341q-1.157,5.959-2.4,11.9a.738.738,0,0,0,.176,1.27.578.578,0,0,0,.024.7,48.461,48.461,0,0,0,10.37,10.726.551.551,0,0,0,.667.05c6.567.108,13.132.14,19.7.132a.236.236,0,0,0,.264,0q39.349-.075,78.621-2.959a.6.6,0,0,0,.613-.2l10.055-10.993c.623-.681-.391-1.7-1.014-1.016-.028.03-.054.058-.078.086a.271.271,0,0,0-.052.03q-1.656,1.451-3.316,2.907c-.228.2,0,.5.246.473q-2.78,3.038-5.557,6.078c-.026-.391-.054-.779-.076-1.17a.262.262,0,0,0,.433.062c.17-.188.341-.377.511-.563.248-.272-.156-.681-.407-.4l-.509.563a.259.259,0,0,0-.046.078q-.093-1.406-.188-2.811a.28.28,0,0,0,.331-.042q.89-.814,1.781-1.631c.272-.25-.136-.655-.407-.4-.579.529-1.156,1.06-1.737,1.589-.014-.228-.028-.457-.044-.685q.989-.889,1.979-1.783c.276-.248-.13-.653-.4-.4l-1.625,1.463c-.018-.252-.038-.5-.058-.757q1.223-1.142,2.44-2.28a.262.262,0,0,0,.078-.15q1.259-.162,2.514-.327c-.479.347-.96.7-1.44,1.042-.3.212-.012.711.29.495q1.169-.844,2.342-1.691l1.4-.182q-1.92,1.92-3.836,3.837a.288.288,0,0,0,.407.409q2.182-2.185,4.363-4.363l1.643-.214.01,0c.228.759,1.484.729,1.39-.136A566,566,0,0,0,344.575,264.363Zm-1.527.463a.683.683,0,0,0,.14-.118c0,.012,0,.022,0,.036q1.65,5.448,3.183,10.928-1.809,1.451-3.616,2.9c-.1-.573-.2-1.148-.3-1.721l3.011-2.476c.286-.234-.12-.639-.4-.4q-1.358,1.118-2.719,2.234c-.048-.274-.1-.549-.146-.821l.407-.4c.262-.258-.144-.663-.407-.407-.04.04-.08.078-.118.118-.04-.224-.078-.451-.12-.675q1.5-1.1,3-2.2c.3-.214.008-.713-.289-.495q-1.412,1.034-2.819,2.068c-.076-.413-.146-.827-.22-1.242a.6.6,0,0,0-.19-.349.806.806,0,0,0-.02-.341c.439-.3.88-.6,1.32-.906.3-.206.016-.7-.291-.493l-1.44.986a.623.623,0,0,0-.242-.038c-.445.022-.888.044-1.332.064l1.256-.942a.271.271,0,0,0,.4.164c.252-.132.5-.26.757-.391a.244.244,0,0,0,.13-.3l1.783-1.378c.286-.22,0-.721-.29-.495q-1.031.8-2.06,1.591a.246.246,0,0,0-.393-.156l-2.6,1.953-.024,0-1.338-.731a.25.25,0,0,0,.1-.046q1.256-.9,2.512-1.789c.3-.214.012-.713-.291-.5q-1.256.9-2.512,1.793a.3.3,0,0,0-.086.393c-.114-.062-.23-.124-.349-.19l1.873-1.7c.274-.25-.132-.655-.407-.407l-2,1.819-.753-.411,2.168-2.015A34.471,34.471,0,0,0,343.049,264.826Zm-9.616,5.834-.889.725c-.01.006-.014.016-.022.026l-1,.048a.252.252,0,0,0-.186.01l-2.508.122q.865-1.686,1.733-3.376a.658.658,0,0,0,.313.443c.046.026.094.054.14.078q-.52,1.076-1.042,2.154c-.16.331.335.621.495.289q.526-1.085,1.05-2.168l4.123,2.248-2.17.106.367-.3C334.125,270.832,333.719,270.428,333.432,270.66Zm-.058-2.272c.9-.182,1.8-.4,2.674-.653l-1.38,1.284a.283.283,0,0,0-.038.052Q334,268.732,333.374,268.388Zm2.388-3.536a4.557,4.557,0,0,0-.425.906c-.12.351.435.5.553.152a3.94,3.94,0,0,1,.623-1.15l4.658-.571a32.549,32.549,0,0,1-7.338,2.638q.5-.929,1-1.861Zm-1.623.2q-.5.926-1,1.853a.293.293,0,0,0-.022.072c-.224.048-.449.1-.679.14.319-.657.641-1.316.96-1.975Zm-1.42.172q-.487,1-.972,2.007c-.234.038-.465.082-.7.116a.248.248,0,0,0-.046.016q.526-1.028,1.056-2.059C332.278,265.281,332.5,265.253,332.719,265.225Zm-1.348.166q-1.6,3.119-3.2,6.233c-.4.018-.8.038-1.194.058a55.593,55.593,0,0,1,3.083-5.85.25.25,0,0,0,0-.278Zm-1.855.228a55.022,55.022,0,0,0-3.183,6.094q-.932.045-1.861.092a23.87,23.87,0,0,1,3.484-6Q328.736,265.714,329.516,265.619Zm-2.354.286a24.915,24.915,0,0,0-3.324,5.93c-.585.028-1.172.056-1.757.086q1.8-2.918,3.6-5.834Zm-8.18,1.078c.02-.026.038-.054.058-.08l1.651-.2q-1.052,1.617-2.1,3.236C318.755,268.955,318.892,267.971,318.982,266.984Zm-.669,4.428q1.563-2.4,3.119-4.8c.317-.038.635-.076.952-.116l-3.368,4.922c-.208.307.288.593.495.291q1.815-2.653,3.63-5.307.9-.108,1.811-.22-1.722,2.792-3.448,5.583a.267.267,0,0,0-.034.19q-1.65.078-3.3.16C318.219,271.88,318.267,271.646,318.313,271.411Zm-16.983-27.35c8.164-.331,13.976,6.535,15.729,13.942a26.235,26.235,0,0,1,.641,6.982q-2.554.174-5.1.345a.582.582,0,0,0-.575-.282l-5.031.383c-.912-7.128-3.021-16.74-9.212-20.827A16.135,16.135,0,0,1,301.33,244.061Zm13.389,28.222-1.346.064q1.887-2.942,3.77-5.89l.479-.032c-.05.619-.12,1.236-.2,1.853Zm2.51-2.7c-.144.87-.323,1.735-.517,2.6l-1.278.062Q316.332,270.915,317.229,269.584Zm-6.912,2.911c-1.462.072-2.929.146-4.391.216a.3.3,0,0,0,.138-.1q1.914-2.759,3.828-5.517c.212-.3-.284-.591-.495-.29q-1.911,2.759-3.831,5.517a.261.261,0,0,0,.172.4c-.859.04-1.717.084-2.574.124a44.713,44.713,0,0,1,4.87-6.06l2.49-.19a.59.59,0,0,0,.567.272l.757-.052a27.134,27.134,0,0,0-3.224,4.61c-.178.325.317.615.5.291a26.5,26.5,0,0,1,3.546-4.956c.487-.034.976-.064,1.464-.1a36.571,36.571,0,0,0-3.871,5.5A.261.261,0,0,0,310.317,272.495Zm-11.928.585q-1.878.093-3.754.182,2.569-2.921,5.135-5.848c.88-.066,1.761-.132,2.639-.2a56.89,56.89,0,0,0-4.2,5.455A.264.264,0,0,0,298.389,273.08Zm-4.169.2-2.548.122q2.783-2.9,5.569-5.8l1.711-.13-4.746,5.407A.291.291,0,0,0,294.22,273.284Zm-3.059.148-1.673.082a38.524,38.524,0,0,1,4.728-5.3.254.254,0,0,0,.008-.381l2.16-.164q-2.6,2.7-5.2,5.409A.273.273,0,0,0,291.161,273.433Zm-4.616-5.01,1.735-.132a34.777,34.777,0,0,0-4.556,5.507c-.174.008-.351.018-.525.024-.028-.263-.054-.521-.078-.783Q284.831,270.727,286.545,268.422Zm-3.5,3.756c-.056-.727-.1-1.454-.122-2.184l1.03-1.276a.281.281,0,0,0,.054-.1c.593-.048,1.188-.092,1.783-.138Zm2.244,2.975q-.908.613-1.749,1.3c-.06-.4-.12-.805-.172-1.206C284.009,275.218,284.652,275.188,285.291,275.154Zm-.845-1.392a34.117,34.117,0,0,1,4.373-5.2.258.258,0,0,0,.056-.317c.6-.044,1.2-.092,1.805-.136a18.853,18.853,0,0,0-4.636,5.575Zm7.048-5.581a.236.236,0,0,0,.09-.14l2.166-.166a39.073,39.073,0,0,0-5,5.68c-.669.03-1.336.064-2.005.1A18.477,18.477,0,0,1,291.493,268.18Zm7.206,4.78a56.025,56.025,0,0,1,4.534-5.81l1.7-.128q-2,2.434-3.993,4.87c-.234.282.17.691.4.407q2.185-2.669,4.375-5.337l.224-.016a.748.748,0,0,0,1.076-.082l.168-.014a45.576,45.576,0,0,0-4.57,5.776.236.236,0,0,0-.02.248l-4.055.2A.256.256,0,0,0,298.7,272.96Zm12.058-.513a35.99,35.99,0,0,1,4.187-5.84c.495-.036.99-.068,1.487-.1q-1.857,2.9-3.71,5.8a.256.256,0,0,0-.032.078l-1.957.1Zm-5.189-6.908q-2.524.189-5.047.383a.221.221,0,0,0-.19.016q-8.261.628-16.518,1.258a.749.749,0,0,0-.423,1.312c-.16.2-.321.4-.481.6a34.317,34.317,0,0,1,.97-8.791c1.635-6.5,5.882-12.6,12.032-15.09C302.67,248.554,304.676,258.4,305.569,265.539Zm-14.911-21.472a12.321,12.321,0,0,1,3.4.453,22.266,22.266,0,0,0-10.332,11.606,32.231,32.231,0,0,0-2.23,11.415.669.669,0,0,0-.549-.29q-1.367-.039-2.733-.032C277.888,258.8,279.124,244.111,290.658,244.067ZM281.5,269.324c.006.491.028.98.052,1.473q-1.3,1.617-2.606,3.235-.92.042-1.843.09A45.307,45.307,0,0,1,281.5,269.324Zm-5.151,4.832-2.745.136q2.906-2.939,6.05-5.624c.431.006.863.006,1.3.018a.627.627,0,0,0,.547-.254v.1A45.942,45.942,0,0,0,276.346,274.156Zm5.245-2.506c.05.743.118,1.484.2,2.228l-.012.016q-1.037.048-2.069.1C280.332,273.212,280.963,272.431,281.591,271.65Zm-4.4-2.981c.531-.008,1.062-.014,1.595-.012q-3.137,2.714-6.038,5.676c-.775.04-1.555.076-2.332.116Q273.806,271.557,277.2,268.669Zm-13.182,5.78a.638.638,0,0,0-.252.112c1.226-1.022,2.478-2.015,3.8-2.929q1.767.012,3.54.024A19.241,19.241,0,0,1,264.013,274.448Zm6.337-.693c-.2.166-.393.335-.589.5a.235.235,0,0,0-.088.226l-.952.046C269.274,274.3,269.819,274.04,270.349,273.755Zm5.946-5.071q-1.181,1-2.358,2.011a.765.765,0,0,0-.659-.461c-.224,0-.449,0-.673,0l1.825-1.478C275.051,268.725,275.672,268.7,276.3,268.685Zm-2.827.114q-.884.712-1.763,1.426l-1.464-.01c.547-.435,1.09-.869,1.635-1.306C272.4,268.871,272.936,268.829,273.469,268.8Zm-2.606.19-1.34,1.072a.233.233,0,0,0-.09.148l-.878-.006c.533-.385,1.07-.767,1.6-1.15C270.4,269.031,270.63,269.009,270.862,268.989Zm-1.863.19-.992.709a.289.289,0,0,0-.116.308l-2.005-.014a.268.268,0,0,0-.383-.106c-.052.032-.1.068-.154.1l-2.895-.022Q265.718,269.538,269,269.179Zm-9.047,2.394c1.1.008,2.192.016,3.29.026a31.479,31.479,0,0,0-3.578,3.053Q259.811,273.114,259.952,271.573Zm-.373,4a30.719,30.719,0,0,1,4.648-3.971l2.374.018a55.581,55.581,0,0,0-7.234,6.182C259.439,277.065,259.507,276.321,259.579,275.576Zm-.3,3.133a54.829,54.829,0,0,1,4.409-4.089.554.554,0,0,0-.138.2.845.845,0,0,0-.264,1.364c-.04.441-.076.88-.114,1.318q-2.089,2.034-4.181,4.069Q259.136,280.142,259.277,278.71Zm-.379,3.752q2.1-2.043,4.2-4.085c-.074.884-.15,1.769-.224,2.651a.294.294,0,0,0-.094.058q-2.068,1.92-4.135,3.839Q258.771,283.692,258.9,282.462Zm-1.246,11.355q2.046-1.86,4.087-3.722c.274-.248-.132-.655-.4-.407q-1.791,1.632-3.582,3.262l.076-.657,3.684-3.328c.274-.248-.132-.653-.4-.4l-3.179,2.869c.054-.481.114-.96.166-1.44l3.983-3.5c.278-.244-.128-.649-.407-.407l-3.484,3.067c.04-.369.078-.735.118-1.1a.259.259,0,0,0,.23-.08q1.965-1.98,3.931-3.963a.287.287,0,0,0-.407-.4l-3.674,3.7c.056-.5.108-1,.162-1.5q2.125-1.974,4.255-3.951-.394,4.613-.785,9.228l-.008,0q-2.254,2.022-4.506,4.041C257.554,294.683,257.6,294.252,257.652,293.817Zm-.248,2.16q2.272-2.037,4.542-4.073-.045.541-.092,1.082a.313.313,0,0,0-.116.052,32.857,32.857,0,0,0-4.478,4.129C257.307,296.77,257.357,296.373,257.4,295.977Zm-.5,4.085a26.416,26.416,0,0,1,4.574-4.387c.293-.218.006-.717-.289-.495a27.019,27.019,0,0,0-4.159,3.857l.11-.9a.32.32,0,0,0,.044-.034,32.063,32.063,0,0,1,4.606-4.377l-.27,3.189a.268.268,0,0,0-.242.07q-2.257,2.116-4.516,4.231C256.811,300.831,256.857,300.444,256.9,300.062ZM255.3,312.344l4.47-3.592c.286-.232-.122-.635-.407-.407q-1.974,1.587-3.949,3.175c.046-.355.1-.709.146-1.064q2.275-1.941,4.55-3.881c.28-.24-.128-.645-.407-.407l-4.025,3.436c.018-.136.036-.268.054-.4q2.452-2.491,4.9-4.974c.256-.264-.148-.671-.409-.407q-2.182,2.215-4.367,4.434c.038-.284.074-.569.11-.855q2.317-2.41,4.628-4.82c.256-.266-.148-.673-.4-.407q-2.049,2.137-4.1,4.269c.08-.613.16-1.228.24-1.839l0,0,4.472-4.141c.27-.252-.136-.657-.407-.407q-1.977,1.833-3.953,3.664c.068-.539.138-1.076.206-1.615q2.4-2.251,4.808-4.506-.475,5.547-.946,11.1l-.13.138a.266.266,0,0,0-.078.22l-5.187,4.562C255.182,313.192,255.238,312.769,255.3,312.344ZM255,314.48l5.429-4.772q-.066.781-.132,1.559a.263.263,0,0,0-.284.056q-2.629,2.437-5.255,4.87C254.839,315.622,254.921,315.053,255,314.48Zm-.375,2.608.02-.012q2.8-2.593,5.6-5.189c-.022.252-.042.5-.064.753q-2.831,2.59-5.66,5.175C254.557,317.573,254.593,317.331,254.627,317.089Zm-2.059,13.551a38.283,38.283,0,0,1,5.487-4.672c.3-.21.014-.707-.288-.495a39.264,39.264,0,0,0-5.045,4.2c.084-.529.172-1.06.256-1.591q2.84-2.6,5.68-5.195c.274-.25-.132-.657-.4-.409q-2.566,2.35-5.133,4.7.52-3.357,1.018-6.719a38.681,38.681,0,0,1,5.525-5.077c.294-.22.006-.719-.288-.495a39.284,39.284,0,0,0-5.091,4.578l.116-.813a.272.272,0,0,0,.134-.066q2.786-2.551,5.575-5.1-.123,1.472-.25,2.949-2.843,2.69-5.682,5.385c-.268.254.138.659.407.407q2.6-2.467,5.2-4.932-.385,4.5-.767,9.011a.274.274,0,0,0-.106.056,45.5,45.5,0,0,0-5.846,5.826c-.234.282.17.691.407.407a45.332,45.332,0,0,1,5.479-5.509q-.108,1.253-.214,2.5l-6.852,5.249Q252.234,332.739,252.567,330.639Zm-.817,5.022,6.926-5.307q-.081.974-.166,1.945a.254.254,0,0,0-.22.084,60.991,60.991,0,0,1-7.034,6.225Q251.5,337.137,251.75,335.662Zm-.633,3.768a61.989,61.989,0,0,0,7.332-6.4c-.01.106-.02.212-.028.317l-.07.116a.256.256,0,0,0,.032.323c-.062.723-.122,1.448-.184,2.172l-.014.024a.25.25,0,0,0-.04.1,41.316,41.316,0,0,0-7.366,5.309C250.891,340.743,251,340.089,251.117,339.43Zm-.875,5.026a.221.221,0,0,0,.283-.008l7.144-5.423c.29-.218,0-.717-.291-.495q-3.516,2.668-7.032,5.337c.092-.521.184-1.046.272-1.569l0,0a40.849,40.849,0,0,1,7.511-5.537q-.138,1.638-.279,3.276-3.946,3-7.887,5.99C250.059,345.5,250.147,344.98,250.241,344.457Zm-.377,2.142a.224.224,0,0,0,.294,0l7.629-5.8c-.048.545-.092,1.086-.14,1.627q-4.072,3.086-8.15,6.172C249.618,347.933,249.745,347.266,249.865,346.6Zm-.517,2.831q4.117-3.119,8.236-6.237-.117,1.367-.232,2.737-4.285,2.663-8.39,5.6C249.091,350.83,249.218,350.128,249.348,349.429Zm-.535,2.915q4.144-2.984,8.478-5.7c-.034.4-.07.793-.1,1.188a98.989,98.989,0,0,0-8.717,6.3Q248.644,353.242,248.813,352.344Zm-1.06,5.576q4.048-3.209,8.342-6.1c.3-.2.018-.7-.29-.495q-4.054,2.72-7.889,5.74c.132-.685.262-1.368.393-2.055a97.367,97.367,0,0,1,8.819-6.443q-.207,2.422-.413,4.842a.253.253,0,0,0-.391-.14q-4.411,2.972-8.819,5.944C247.589,358.779,247.669,358.35,247.753,357.92Zm-.407,2.086q4.634-3.122,9.268-6.243a.376.376,0,0,0,.078-.082q-.093,1.085-.184,2.172a.287.287,0,0,0-.12.036,69.112,69.112,0,0,0-9.476,6.309Q247.131,361.1,247.347,360.005Zm-.6,3.055a68.609,68.609,0,0,1,9.71-6.543c-.04.447-.076.894-.116,1.342a.24.24,0,0,0-.379-.116q-4.769,3.471-9.538,6.948C246.525,364.146,246.631,363.605,246.742,363.06Zm-.441,2.216a.228.228,0,0,0,.286,0l9.658-7.036a.236.236,0,0,0,.064-.07q-.156,1.863-.317,3.722c-.076.084-.154.17-.232.254a.283.283,0,0,0,.016.407.236.236,0,0,0-.168.05q-3.684,2.68-7.364,5.367c-.3.216-.01.715.288.5q3.681-2.684,7.358-5.363-.355,4.171-.709,8.342a.678.678,0,0,0-.547-.3q-4.718-.253-9.44-.5Q245.757,367.962,246.3,365.276Zm8.334,12.6a.259.259,0,0,0-.319.05q-.805.808-1.615,1.615a.288.288,0,0,0,.407.407l1.477-1.477-.246,2.881a.756.756,0,0,0,.034.294q-1.445-1.139-2.793-2.386a.262.262,0,0,0,.072-.05l3.081-3.382c.248-.271-.156-.677-.407-.4l-3.081,3.38a.238.238,0,0,0-.056.1,46.218,46.218,0,0,1-5.922-6.816c1.058.058,2.116.112,3.177.168q-.883.415-1.763.825c-.335.158-.044.653.289.5.894-.421,1.789-.837,2.685-1.258l.908.048c-1,.523-2.005,1.042-3.007,1.565-.329.17-.036.665.29.495q1.92-1,3.846-2l.447.026q-1.491,1.094-2.977,2.19c-.294.216-.008.713.288.495q1.794-1.319,3.586-2.638l.541.028-3.029,2.711c-.274.248.132.653.407.407q1.719-1.536,3.434-3.075l.246.014a.722.722,0,0,0,.289-.042q-2.167,2.353-4.333,4.71c-.25.268.154.677.4.4q2.016-2.191,4.033-4.381Q254.829,375.572,254.635,377.873Zm55.288,3.636.276-.367c.22-.3-.276-.583-.495-.29-.172.226-.343.455-.513.683-.811.026-1.625.056-2.436.082a9.283,9.283,0,0,1,2.314-2.761c.288-.23-.12-.635-.407-.4a9.578,9.578,0,0,0-2.568,3.189q-6.816.2-13.633.335,1.95-2.085,3.9-4.167c.25-.27-.154-.677-.409-.407q-2.143,2.293-4.291,4.59-6.41.111-12.82.144,1.845-2.176,3.682-4.349c.238-.28-.166-.687-.4-.4q-1.974,2.329-3.949,4.662a.321.321,0,0,0-.05.092c-.653,0-1.3,0-1.959,0q2.377-2.8,4.756-5.6c.236-.28-.166-.689-.409-.4q-2.545,3-5.1,6-1.977.006-3.955,0,2.864-3.327,5.728-6.647c.24-.278-.164-.685-.407-.407l-5.816,6.749a.286.286,0,0,0-.048.3q-7.867-.015-15.733-.13a.745.745,0,0,0,.5-.349.232.232,0,0,0,.329-.046,44.637,44.637,0,0,1,6.269-6.126c.288-.232-.12-.637-.4-.409a44.7,44.7,0,0,0-6.068,5.9c.014-.154.026-.307.04-.457a.219.219,0,0,0,.262-.082l5.233-6.613c.226-.286-.178-.7-.407-.407q-2.512,3.179-5.027,6.353c.058-.683.118-1.364.174-2.045a56.224,56.224,0,0,1,4.586-6.194c.238-.28-.166-.689-.407-.407a57.943,57.943,0,0,0-4.077,5.4q.105-1.229.208-2.464a53.621,53.621,0,0,1,6.435-8.44c.252-.271-.152-.677-.407-.409a54.334,54.334,0,0,0-5.922,7.629c.08-.952.162-1.907.242-2.861A68.134,68.134,0,0,1,264.64,359c.246-.276-.16-.685-.4-.407a68.994,68.994,0,0,0-7.384,10.1q.322-3.8.645-7.593l4.071-4.452c.248-.272-.156-.679-.407-.4q-1.794,1.959-3.584,3.919.117-1.385.234-2.767a.233.233,0,0,0,.331-.044l4.305-5.2c.234-.282-.17-.691-.4-.407q-2.092,2.527-4.179,5.049.346-4.045.687-8.094a19.359,19.359,0,0,0,3.027-3.794c.194-.317-.3-.605-.495-.29a18.782,18.782,0,0,1-2.454,3.2q.168-2.025.343-4.047a.263.263,0,0,0,.214-.08q.805-.811,1.611-1.621a.287.287,0,0,0-.407-.4l-1.354,1.36q.144-1.692.286-3.386l.01-.008a.316.316,0,0,0,.032-.465q.307-3.645.617-7.288c.162-.268.325-.539.487-.805s-.162-.509-.383-.395c.06-.723.124-1.446.184-2.174q.908-1.316,1.815-2.638c.21-.3-.286-.593-.5-.291l-1.22,1.777.246-2.891a6.287,6.287,0,0,1,1.128-1.537.287.287,0,0,0-.4-.407,7.034,7.034,0,0,0-.619.7c.048-.553.094-1.1.142-1.655a10.984,10.984,0,0,1,1.945-2.42c.271-.252-.136-.659-.407-.409a11.526,11.526,0,0,0-1.438,1.649c.024-.307.05-.611.078-.916a10.616,10.616,0,0,1,2.3-2.843c.278-.244-.128-.649-.407-.409a11.309,11.309,0,0,0-1.789,2.005c.056-.647.11-1.3.164-1.943a6.514,6.514,0,0,1,1.318-1.8c.264-.258-.142-.663-.407-.407a7.067,7.067,0,0,0-.8.936c.046-.537.09-1.07.134-1.607q1.13-1.373,2.258-2.749c.232-.282-.17-.693-.407-.407l-1.765,2.152c.05-.571.1-1.142.148-1.713q1.115-1.349,2.23-2.7c.232-.28-.17-.689-.407-.4q-.869,1.055-1.739,2.108c.048-.579.1-1.156.148-1.735.667-.707,1.336-1.41,2-2.118.254-.268-.15-.675-.4-.4-.507.533-1.014,1.07-1.523,1.6.03-.337.058-.671.086-1.008a.282.282,0,0,0,.09-.13,7.424,7.424,0,0,1,2.148-3.253c.279-.246-.13-.651-.4-.407a7.945,7.945,0,0,0-1.695,2.154q.159-1.842.317-3.688a.292.292,0,0,0,.365-.184,7.9,7.9,0,0,1,2.146-3.245c.272-.248-.134-.655-.407-.407a8.437,8.437,0,0,0-2.019,2.847q.2-2.314.393-4.632a.247.247,0,0,0,.4.02q.989-1.166,1.973-2.332c.238-.28-.166-.689-.4-.407l-1.933,2.284c.042-.489.082-.976.126-1.464a.261.261,0,0,0,.2-.088q1.433-1.53,2.865-3.057c.252-.27-.154-.677-.407-.4q-1.3,1.382-2.594,2.769.108-1.3.22-2.606a.251.251,0,0,0,.132-.076q1.433-1.524,2.869-3.047c.254-.27-.152-.677-.4-.409l-2.522,2.682q.045-.562.094-1.122,1.584-1.578,3.165-3.153a.287.287,0,0,0-.4-.407q-1.343,1.34-2.685,2.673.093-1.109.188-2.222a14.78,14.78,0,0,1,3.229-3.38c.291-.222,0-.721-.29-.5a15.737,15.737,0,0,0-2.847,2.795q.129-1.542.262-3.079l.02-.018a17.866,17.866,0,0,1,3.758-3.5c.3-.206.014-.705-.293-.495a18.413,18.413,0,0,0-3.406,3.051q.147-1.713.293-3.424,3.753-.183,7.507-.367-2.311,1.83-4.62,3.664c-.29.23.12.633.4.407q2.6-2.061,5.193-4.119l5.019-.246q-2.774,2.131-5.545,4.259c-.289.224,0,.723.29.495l5.576-4.281a.32.32,0,0,0,.016-.487q1.695-.087,3.394-.166c.01.082.024.168.036.252a.281.281,0,0,0-.26.062q-2.6,2.248-5.195,4.494c-.28.242.128.647.407.407q2.563-2.218,5.125-4.433c.068.489.138.98.218,1.47a23.063,23.063,0,0,0-1.775,1.869c-.234.282.168.691.407.407.469-.561.97-1.088,1.485-1.6.5,2.917,1.138,5.812,1.809,8.639.214.9,1.6.519,1.382-.383-.731-3.087-1.438-6.229-1.947-9.4a22.194,22.194,0,0,1,2.582-1.9.279.279,0,0,0,.1-.106l2.242-.11-3.592,3.171c-.279.244.128.651.4.407q2.052-1.812,4.1-3.622c.467-.024.934-.048,1.4-.068q-1.644,1.331-3.284,2.662c-.286.232.122.637.407.407q1.92-1.56,3.843-3.117,1.791-.087,3.588-.176-.907.7-1.811,1.4c-.292.226.118.629.4.407.8-.621,1.6-1.238,2.4-1.859q8.9-.436,17.8-.872a.285.285,0,0,0,.11-.006c.677-.03,1.352-.064,2.027-.1-.9,3.564-2.13,7.068-3.31,10.44-.3.876,1.082,1.252,1.384.383,1.226-3.508,2.488-7.17,3.394-10.894l12.321-.6a.275.275,0,0,0,.429.046l.072-.07,7.4-.363q.7.379,1.394.761a.677.677,0,0,0,.9-.2q.37,2.053.723,4.107l-.082.07c-.212.174-.042.439.178.471q7.762,44.761,11.137,90.111c-.395.347-.375,1.058.088,1.22.24,3.28.471,6.559.673,9.843a.781.781,0,0,0,.068.248Q331.553,380.792,309.922,381.51Zm44-11.165c-.034-.449-.066-.9-.1-1.348l1.789-.232Zm8.36-3.879c-.028-.188-.214-.349-.409-.208l-.441.317-7.715,1q-3.005-40.178-9.456-79.983,1.542-1.19,3.087-2.378c.288-.22,0-.719-.291-.495q-1.448,1.115-2.9,2.232-.628-3.871-1.29-7.735,1.839-1.472,3.676-2.947c.3,1.054.583,2.108.871,3.159a.277.277,0,0,0-.174.072q-1.436,1.319-2.871,2.632c-.273.25.134.655.407.407q1.391-1.28,2.789-2.556c.144.531.293,1.066.435,1.6a.234.234,0,0,0-.208.046q-1.433,1.076-2.871,2.15c-.294.22-.006.719.288.5q1.437-1.076,2.873-2.15a.426.426,0,0,0,.05-.056q.5,1.851.982,3.7a.269.269,0,0,0-.381-.1,8.782,8.782,0,0,0-2.973,2.975c-.192.317.3.605.5.288a8.13,8.13,0,0,1,2.767-2.769.259.259,0,0,0,.13-.23q1.277,4.883,2.466,9.789a.338.338,0,0,0-.076.038q-2.149,1.674-4.305,3.348c-.29.226.118.631.407.407q2.061-1.6,4.121-3.205c.14.591.274,1.182.415,1.773a.277.277,0,0,0-.158.068q-2.155,1.914-4.305,3.826c-.276.246.13.651.4.407l4.193-3.728q.24,1.019.477,2.037a.223.223,0,0,0-.246.026q-2.049,1.533-4.1,3.061c-.294.218-.008.715.288.495l4.1-3.059a.418.418,0,0,0,.064-.07q3.228,13.953,5.75,28.055-2.407,2.359-4.82,4.72c-.264.258.142.663.407.407l4.534-4.441c.088.493.172.986.256,1.477l0,0a14.979,14.979,0,0,0-4.185,4.391c-.2.315.3.6.5.29a14.281,14.281,0,0,1,3.8-4.051q.394,2.281.775,4.566a.288.288,0,0,0-.477-.142q-2.53,2.491-5.061,4.982a.286.286,0,0,0,.4.4l5.063-4.98a.278.278,0,0,0,.082-.19c.118.715.232,1.436.349,2.152a.249.249,0,0,0-.349.032q-2.179,2.371-4.355,4.738c-.25.272.154.679.4.407l4.355-4.738.01-.018c.118.725.238,1.448.353,2.174l-4.612,4.836c-.257.268.15.673.4.4q2.158-2.263,4.317-4.524,1.86,12.029,3.2,24.139C363.425,366.316,362.852,366.39,362.281,366.466Z" transform="translate(0 0)"/><path class="a" d="M264.617,285.307l-.589.3c-.395.2-.048.787.343.589.323-.162.643-.327.964-.489q.763.427,1.527.855c-.144.074-.288.148-.431.224-.391.2-.046.791.345.589l.8-.417.884.495a.359.359,0,0,0,.461.258c.541.3,1.078.6,1.619.9a.371.371,0,0,0,.489.274q2.038,1.142,4.079,2.282a.341.341,0,0,0,.345-.587c-.094-.054-.188-.106-.282-.158q3.39-6.362,7.12-12.529a.32.32,0,0,0,.046-.13.344.344,0,0,0,.539-.27,8.357,8.357,0,0,0-8.8-8.567c-.437.018-.439.7,0,.683a8.066,8.066,0,0,1,2.15.2l-5.836,3.025a40.993,40.993,0,0,1,3.272-3.436c.323-.3-.16-.781-.483-.481a40.973,40.973,0,0,0-10.1,14.743c-.375-.176-.7.389-.319.6Q263.688,284.788,264.617,285.307Zm15.446-10.051-16.125,8.124c.26-.621.529-1.232.817-1.835a.354.354,0,0,0,.148-.038L280.443,274c.395-.19.048-.779-.345-.591q-7.441,3.6-14.877,7.192.466-.9.97-1.781a.334.334,0,0,0,.377.046q5.22-2.56,10.444-5.123c.393-.192.048-.779-.345-.589q-5.034,2.47-10.063,4.936c.292-.485.6-.958.92-1.43a.345.345,0,0,0,.16-.034q5.1-2.485,10.2-4.976c.395-.19.048-.779-.345-.589l-9.276,4.526q.769-1.082,1.613-2.112a.341.341,0,0,0,.469.16q3.219-1.668,6.435-3.338a.287.287,0,0,0,.166-.274,7.644,7.644,0,0,1,5.241,7.449.327.327,0,0,0-.491.086q-3.738,6.169-7.126,12.539l-1.438-.8q1.3-.742,2.6-1.484a.341.341,0,0,0-.343-.589q-1.475.841-2.947,1.685-.4-.222-.793-.443a14.693,14.693,0,0,1,3.758-1.989c.411-.144.234-.805-.182-.657A15.645,15.645,0,0,0,271,288.1q-.661-.373-1.322-.741,4.1-1.989,8.21-3.979c.395-.192.048-.781-.345-.589q-4.3,2.08-8.589,4.163c-.22-.12-.439-.244-.657-.369q5.328-2.771,10.658-5.549c.389-.2.044-.793-.345-.589l-11.025,5.742-1.519-.849q7.486-3.8,14.969-7.6c.391-.2.046-.787-.345-.589q-7.669,3.892-15.338,7.787l-1.416-.791q8.237-4.147,16.472-8.3C280.8,275.647,280.455,275.06,280.063,275.256Z" transform="translate(19.222 26.306)"/><path class="a" d="M270.169,269.562c.11-.018.218-.04.327-.06a12.319,12.319,0,0,1,4.836,2.232l-.078.04c-.393.2-.048.783.345.589.106-.054.21-.106.317-.156.349.292.685.6,1.006.932a.341.341,0,0,0,.4.541c.022-.014.046-.026.068-.038q.5.562.968,1.166a.355.355,0,0,0,.349.461,26.282,26.282,0,0,1,1.853,3.023c-.112.066-.224.134-.335.2-.377.228-.034.819.343.589l.313-.186c.31.613.6,1.24.879,1.867-.178.13-.359.258-.537.389-.353.252-.014.845.343.589.16-.114.319-.23.479-.343.112.26.22.525.331.787a.359.359,0,0,0-.136-.028.342.342,0,0,0,0,.683.312.312,0,0,0,.313-.232c.321.787.621,1.567.914,2.334l-4.978,2.266a.273.273,0,0,0-.154.355c-.048,0-.1,0-.142,0a.342.342,0,0,0,0,.683q7.957-.123,15.921-.246a.335.335,0,0,0,.294-.17q3.116-6.26,6.231-12.525a.343.343,0,0,0-.467-.465q-2.326,1.4-4.65,2.809a10.178,10.178,0,0,0-.5-1.635c.188-.116.371-.234.559-.351.373-.226.03-.817-.345-.589-.164.1-.325.208-.489.308a13.512,13.512,0,0,0-7.414-6.5,19.416,19.416,0,0,0-6.938-1.214h-.022a53.286,53.286,0,0,0-9.839,1.138c-.05-.01-.094-.024-.144-.034a.33.33,0,0,0-.335.122l-.06.01C269.556,268.983,269.739,269.64,270.169,269.562Zm24.654,8.092-.012,0q-6.073,4.487-12.145,8.967c-.349.258-.01.851.345.589l12.044-8.893a.317.317,0,0,0,.272.04.3.3,0,0,0,.333,0l3.855-2.33q-1.367,2.744-2.731,5.489-.814,1.641-1.631,3.28c-.639,1.28-.861,2.338-2.368,2.534a28.966,28.966,0,0,1-4.291.15q3.5-2.07,7-4.135a.341.341,0,0,0-.345-.589l-7.334,4.329a.311.311,0,0,0-.146.377c-.511-.01-1.016-.02-1.517-.02l9.652-6.84c.357-.252.016-.843-.345-.589q-4.994,3.54-9.989,7.078a.342.342,0,0,0-.144.355q-2.972.048-5.944.092,2.284-1.043,4.57-2.082a.843.843,0,0,0,.216-.583q-.225-.592-.459-1.192l.008,0q5.2-3.877,10.706-7.3A10.041,10.041,0,0,1,294.823,277.653Zm-2.214-3.867a.335.335,0,0,0,.144-.258,10.925,10.925,0,0,1,1.406,2.218q-5.5,3.426-10.706,7.292c-.094-.236-.186-.473-.284-.709a.289.289,0,0,0,.182-.058q4.868-3.561,9.738-7.13c.351-.254.01-.847-.343-.589q-4.871,3.567-9.74,7.13a.4.4,0,0,0-.074.084c-.11-.26-.214-.519-.329-.775Zm-.964-1.444c.273.256.535.521.781.8a.308.308,0,0,0-.162.058q-4.973,3.579-9.945,7.162c-.274-.611-.559-1.216-.863-1.813q5.037-3.041,10.069-6.076A.33.33,0,0,0,291.646,272.342ZM290,271.032a12.928,12.928,0,0,1,1.152.867l-10.013,6.042q-.276-.517-.571-1.022a.286.286,0,0,0,.166-.062,53.252,53.252,0,0,1,9.107-5.646A.276.276,0,0,0,290,271.032Zm-2.025-1a.5.5,0,0,0,.1-.088,14.424,14.424,0,0,1,1.344.719,53.041,53.041,0,0,0-9.029,5.605.351.351,0,0,0-.114.162c-.307-.5-.625-1-.964-1.474Zm-2.074-.914c.106.03.216.058.325.09.371.12.737.258,1.1.407q-4.216,2.392-8.426,4.79c-.284-.377-.583-.739-.893-1.092q3.916-2.07,7.829-4.143A.345.345,0,0,0,285.9,269.119Zm-2.741-.585c.6.08,1.2.192,1.8.333q-3.705,1.962-7.411,3.925c-.308-.321-.627-.629-.958-.92q3.218-1.6,6.439-3.2A.308.308,0,0,0,283.159,268.534Zm-2.741-.184.008-.006q.793.009,1.579.07-3,1.494-6,2.985c-.347-.276-.705-.535-1.08-.777l.008,0Q277.677,269.483,280.419,268.35Zm-1.863.036q-1.9.79-3.8,1.575a.364.364,0,0,0-.216.409,12.683,12.683,0,0,0-2.486-1.148A54.84,54.84,0,0,1,278.556,268.386Z" transform="translate(26.396 25.137)"/><path class="a" d="M270.5,310.058a19.619,19.619,0,0,1,4.61-19.976,23.122,23.122,0,0,0,5.119,3.131.365.365,0,0,0,.5-.427.309.309,0,0,0-.024-.116,94.85,94.85,0,0,0-6.583-12.513.341.341,0,0,0-.295-.483c-.1-.158-.192-.321-.294-.479a.326.326,0,0,0-.425-.122.3.3,0,0,0-.13-.014c-.833.082-1.669.136-2.5.194a.358.358,0,0,0-.248.012l-.016.008a84.416,84.416,0,0,1-11.544-.01c-.026-.008-.052-.018-.082-.026a.3.3,0,0,0-.318.086.357.357,0,0,0,.216.613l.058,0a21.816,21.816,0,0,1,3.492,1.4.353.353,0,0,0,.461.495l.26-.13c.289.156.567.333.849.5l-.621.276c-.337.15-.14.591.17.617a16.116,16.116,0,0,0-2.985,8.877.331.331,0,0,0-.006.443,15.683,15.683,0,0,0,.284,2.953c-.126.078-.252.158-.381.236-.371.228-.028.819.345.589l.184-.114c.072.3.15.593.24.888,1.593,5.263,5.447,9.478,9.1,13.423A.343.343,0,0,0,270.5,310.058Zm9.256-17.83a23.042,23.042,0,0,1-2.244-1.246,2.589,2.589,0,0,0,1.32-.773Q279.3,291.212,279.754,292.228Zm-1.226-2.677a.258.258,0,0,0-.05.044,1.965,1.965,0,0,1-1.453.779.325.325,0,0,0-.238.116c-.361-.252-.713-.515-1.062-.787l2.258-1.232C278.163,288.834,278.353,289.187,278.528,289.551Zm-17.654-9.492q1.737.075,3.472.08c-.531.266-1.06.531-1.593.8C262.142,280.612,261.513,280.324,260.874,280.059Zm2.6,1.28q1.19-.6,2.38-1.192c.863-.014,1.727-.054,2.59-.092l-4.081,1.809C264.071,281.678,263.773,281.508,263.474,281.339Zm.661,1.557a.352.352,0,0,0,.072-.222l6.16-2.729c.869-.06,1.737-.116,2.606-.2a.33.33,0,0,0,.076-.022c.034.056.068.114.1.172a46.4,46.4,0,0,0-10.436,5.171A15.34,15.34,0,0,1,264.135,282.9Zm-2.941,6.247a.312.312,0,0,0,.373.03q5.788-3.357,11.58-6.709a.341.341,0,0,0-.345-.589l-11.451,6.635a15.179,15.179,0,0,1,.968-2.667.286.286,0,0,0,.387.04,45.9,45.9,0,0,1,10.812-5.4c.537.859,1.066,1.719,1.573,2.592a.315.315,0,0,0-.176.044q-7.014,4.2-14.032,8.4A15.3,15.3,0,0,1,261.194,289.143Zm-.337,3.187q7.2-4.309,14.4-8.621a.332.332,0,0,0,.12-.122q.541.944,1.058,1.9l-.016.006q-7.669,4.742-15.344,9.486A15.71,15.71,0,0,1,260.858,292.33Zm.98,5.493a15.89,15.89,0,0,1-.619-2.132q7.771-4.808,15.544-9.612l0,0c.317.589.607,1.19.91,1.785l-2.314,1.262a.306.306,0,0,0-.146.174c-.076-.064-.158-.12-.234-.188-.333-.282-.817.2-.485.485.026.02.054.04.08.062a19.735,19.735,0,0,0-3.286,4.43.288.288,0,0,0-.427-.088l-8.218,5.694A20.064,20.064,0,0,1,261.837,297.823Zm1.869,3.784c-.262-.429-.5-.867-.739-1.312l7.978-5.525a20.481,20.481,0,0,0-1.146,2.8.292.292,0,0,0-.214.048q-2.879,1.917-5.758,3.834A.341.341,0,0,0,263.706,301.608Zm1.018,1.555c-.24-.343-.469-.689-.691-1.038a.311.311,0,0,0,.266-.162l5.233-3.486c-.152.563-.284,1.132-.389,1.7a.379.379,0,0,0-.178.028,15.31,15.31,0,0,0-4.239,2.953Zm.4.557a14.723,14.723,0,0,1,3.889-2.767,19.958,19.958,0,0,0-.2,2.24.332.332,0,0,0-.343.056q-1.133.944-2.262,1.885C265.836,304.671,265.477,304.2,265.127,303.719Zm2.456,3.061c.335-.136.669-.268,1-.4.4-.16.228-.819-.18-.657-.355.144-.711.284-1.066.427a.35.35,0,0,0-.172.152c-.178-.21-.359-.421-.535-.633q1.085-.907,2.176-1.813a19.861,19.861,0,0,0,.615,4.986Q268.5,307.825,267.583,306.78Z" transform="translate(14.769 36.551)"/><path class="a" d="M285.149,303.23a.343.343,0,0,0,.341-.341,72.3,72.3,0,0,1-.062-12.633.339.339,0,0,0-.25-.329c-.176-.03-.353-.056-.527-.086a.317.317,0,0,0-.519-.086q-2.092-.34-4.191-.555l.319-.317a.341.341,0,0,0-.481-.483q-.358.358-.719.711c-.7-.06-1.4-.114-2.106-.152a.316.316,0,0,0-.359-.026,68.844,68.844,0,0,0-8.743.1.768.768,0,0,1-.819.435,16.268,16.268,0,0,0-1.821,3.849c-.134.12-.268.242-.407.363a.321.321,0,0,0,.14.547c-.809,3.055-.7,6.391,2.045,7.847,2.226,1.182,5.339,1.012,7.775,1.14C278.226,303.393,281.69,303.389,285.149,303.23Zm-.433-2.358c.076.769.044,1.519-.569,1.721a4.323,4.323,0,0,1-1.142.162C283.575,302.127,284.146,301.5,284.717,300.872Zm-17.1-11.061a.377.377,0,0,0,.056-.142.285.285,0,0,0,.176.042c.5-.038,1-.064,1.492-.092q-1.548,1.385-3.1,2.769A14.661,14.661,0,0,1,267.62,289.812Zm-2.29,8.228a67.274,67.274,0,0,1,7.737-7.6c.339-.282-.146-.761-.481-.481a66.9,66.9,0,0,0-7.292,7.1c0-.112,0-.222,0-.333a12.449,12.449,0,0,1,.491-3.017l4.632-4.141q2.741-.105,5.477.006l-10.3,9.847A5.945,5.945,0,0,1,265.33,298.04Zm1.619,3.117a.313.313,0,0,0-.046.068,3.285,3.285,0,0,1-.515-.431,3.371,3.371,0,0,1-.5-.707l10.949-10.466c.535.03,1.068.068,1.6.11Q272.694,295.444,266.949,301.157Zm2.344.91a6.964,6.964,0,0,1-1.789-.5l11.83-11.764q.914.084,1.821.192-5.917,6.019-11.838,12.034C269.3,302.042,269.3,302.054,269.293,302.066Zm3.246.337c-.805-.06-1.609-.132-2.408-.224l11.616-11.808a.311.311,0,0,0,.09-.281c.4.054.8.1,1.192.162.21.034.393.066.555.1q-5.5,5.98-10.993,11.964A.243.243,0,0,0,272.538,302.4Zm11.369-9.031q-3.654,4.453-7.31,8.9a.341.341,0,0,0-.06.331c-1.052-.034-2.106-.078-3.157-.142q5.445-5.929,10.892-11.856c.367.258.383.7.329,1.643q-.105,1.827-.114,3.66t.08,3.66c.01.208.044.459.08.719a.3.3,0,0,0-.379.062c-.709.783-1.422,1.567-2.132,2.346a.3.3,0,0,0-.028.048c-.589-.028-1.172-.076-1.647-.074q-1.638.006-3.273-.046,3.6-4.384,7.2-8.771C284.667,293.518,284.186,293.033,283.907,293.372Z" transform="translate(21.143 45.842)"/><path class="a" d="M302.719,287.975c-4.5,4.165-10.62,4.313-16.422,3.845.16-.319-.26-.7-.531-.4-.1.112-.2.22-.294.333-.655-.06-1.306-.122-1.947-.188q-.021-3.149-.046-6.3a.343.343,0,0,0-.635-.172q-3.69,6.752-7.376,13.5a.341.341,0,0,0-.04.164.363.363,0,0,0-.22.495c.433.906.888,1.8,1.34,2.695a.383.383,0,0,0,.112.222c.363.709.737,1.41,1.116,2.114a.373.373,0,0,0,.254.469c.321.585.631,1.176.962,1.757l-.01.014c-.188.246.054.485.3.483.367.643.745,1.278,1.124,1.909l-.286.435c-.246.367.345.709.587.345.028-.04.056-.084.084-.124.152.246.309.491.463.737-.024.034-.048.072-.07.108-.192.31.176.589.441.473.475.751.944,1.5,1.434,2.246a.333.333,0,0,0,.244.152c0,.024,0,.048,0,.072a.341.341,0,0,0,.681,0q-.093-3.537-.192-7.072c4.255.16,9.089.118,12.125-3.338a24.2,24.2,0,0,0,3.42-6.084q1.959-4.237,3.913-8.478A.342.342,0,0,0,302.719,287.975Zm-26.835,11.111a.3.3,0,0,0,.172-.146l6.749-12.357.024,3.169a.311.311,0,0,0-.138.092l-4.257,4.91c-.288.331.192.813.481.481q1.962-2.26,3.923-4.522c0,.443.006.885.008,1.328a.325.325,0,0,0,.1.24q-3.39,3.684-6.781,7.372C276.076,299.465,275.976,299.278,275.884,299.086Zm.609,1.222q3.687-4.006,7.372-8.016l.008-.014,1.038.1q-3.964,4.454-7.929,8.911C276.817,300.965,276.655,300.639,276.493,300.308Zm2.086,4.027q4.532-5.514,9.061-11.031c.276-.337-.2-.821-.483-.481q-4.463,5.433-8.929,10.868c-.308-.579-.619-1.158-.919-1.743q4.225-4.745,8.448-9.494c1.212.1,2.434.176,3.656.2l-9.975,13.258C279.141,305.4,278.865,304.862,278.578,304.335Zm3.484,5.97c.26-.417.521-.831.779-1.248.234-.375-.357-.717-.589-.345q-.3.478-.6.954c-.148-.24-.292-.485-.441-.727q.95-1.418,1.9-2.845.081,3.056.164,6.11C282.865,311.575,282.461,310.94,282.062,310.305Zm3.187-4.994a.266.266,0,0,0-.01.335q-.733-.012-1.458-.04c0-.044,0-.088,0-.132a.341.341,0,0,0-.669-.078.336.336,0,0,0-.429.12q-.926,1.385-1.849,2.773c-.345-.577-.689-1.152-1.024-1.735q5.1-6.777,10.2-13.551a.263.263,0,0,0,.014-.329,28.338,28.338,0,0,0,5.117-.383Q290.191,298.8,285.249,305.311Zm14.064-10a44.4,44.4,0,0,1-2.977,5.966c-2.438,3.7-6.445,4.363-10.49,4.371q5.009-6.605,10.021-13.2a.265.265,0,0,0,.024-.312,15.649,15.649,0,0,0,6.136-2.7Q300.67,292.367,299.313,295.31Z" transform="translate(31.845 42.456)"/><path class="a" d="M297.022,285.926a.358.358,0,0,0-.274-.515q-2.284-4.439-4.828-8.729a.345.345,0,0,0-.435-.513c-.024.012-.048.026-.072.04a.388.388,0,0,0-.238.13L279.282,282.9a.341.341,0,0,0,.22.627q2.227,3.224,4.454,6.443c-.14.162-.281.323-.423.483-.286.331.194.815.483.485.112-.13.226-.258.339-.389l.311.449c.519.749,1.02,1.557,1.541,2.36l-.192.224c-.289.331.192.813.481.481.032-.038.068-.076.1-.116a17.308,17.308,0,0,0,2.653,3.278c3.72,3.394,7.857-.022,10.46-2.973a.266.266,0,0,0,.335-.236c.379-2.683-1.8-5.688-2.959-7.975C297.064,286,297.04,285.964,297.022,285.926Zm-12.609,3.524q-.466-.67-.93-1.342a.3.3,0,0,0,.461,0q3.843-4.15,7.681-8.308c.3-.323-.182-.805-.481-.483l-7.681,8.31a.321.321,0,0,0-.06.369q-.541-.781-1.078-1.565a.413.413,0,0,0-.008-.148.294.294,0,0,0,.395-.05q3.167-3.441,6.333-6.88c.3-.323-.184-.807-.481-.483q-3.167,3.441-6.333,6.882a.311.311,0,0,0-.072.325.4.4,0,0,0-.1-.026q-.974-1.412-1.949-2.825,1.6-.877,3.189-1.759-1.091,1.166-2.182,2.326c-.3.32.182.805.483.483q1.6-1.7,3.2-3.412a.313.313,0,0,0,.09-.273l6.443-3.556c.529.9,1.046,1.8,1.561,2.7Q288.655,284.593,284.413,289.45Zm.4.579q4.222-4.838,8.444-9.674c.559.99,1.1,1.989,1.633,2.991q-4.084,4.715-8.174,9.428Q285.762,291.4,284.811,290.029Zm5.563,6.208q3.582-3.88,7.16-7.761c.038.08.082.158.12.238.21.431.457.881.7,1.344a.281.281,0,0,0-.2.108q-2.741,3.33-5.479,6.661c-.279.337.2.821.481.481q2.741-3.33,5.479-6.661l.008-.012a5.9,5.9,0,0,1,.749,2.987.357.357,0,0,0-.116.088c-1.458,1.663-3.037,3.494-5.267,4.071-2.895.749-4.614-1.158-6.11-3.3-.262-.377-.523-.757-.785-1.132q4.06-4.685,8.122-9.368c.118.224.244.445.363.669.2.393.4.791.6,1.188q-3.919,4.3-7.837,8.6c-.294.323.186.805.483.481q3.841-4.219,7.683-8.434c.228.449.459.9.683,1.35a.243.243,0,0,0-.056.04l-7.264,7.873C289.6,296.077,290.076,296.56,290.375,296.238Z" transform="translate(35.801 33.624)"/><path class="a" d="M283.571,275.851a6.333,6.333,0,0,1-2.622,1.617c-.417.134-.238.793.182.657a7.067,7.067,0,0,0,2.921-1.791C284.361,276.021,283.878,275.538,283.571,275.851Z" transform="translate(37.404 33.248)"/><path class="a" d="M270.305,284.768l-10.113,6.9c-.361.246-.02.837.345.591q5.058-3.453,10.113-6.9C271.01,285.111,270.67,284.52,270.305,284.768Z" transform="translate(16.661 42.237)"/><path class="a" d="M275.732,293.059q-1.692,2.146-3.38,4.291c-.266.339.212.827.485.481l3.378-4.289C276.483,293.2,276,292.715,275.732,293.059Z" transform="translate(28.938 50.498)"/><path class="a" d="M287.318,289.055a85.146,85.146,0,0,0-8.158,11.151c-.23.377.359.719.589.345a83.965,83.965,0,0,1,8.052-11.013C288.087,289.207,287.607,288.722,287.318,289.055Z" transform="translate(35.795 46.487)"/><path class="a" d="M282.446,301.713q4.976-6.419,9.955-12.842c.266-.343-.214-.827-.483-.481q-4.979,6.422-9.955,12.842C281.7,301.575,282.176,302.062,282.446,301.713Z" transform="translate(38.581 45.813)"/><path class="a" d="M286.892,290.223a.342.342,0,0,0,0,.683A.342.342,0,0,0,286.892,290.223Z" transform="translate(43.276 47.771)"/><path class="a" d="M289.279,290.786q-3.011,3.606-6.022,7.206c-.28.335.2.819.483.483l6.02-7.2C290.04,290.936,289.559,290.449,289.279,290.786Z" transform="translate(39.872 48.222)"/><path class="a" d="M289.666,279.161q-3.639,4.255-7.278,8.5c-.284.333.2.817.483.483l7.278-8.5C290.431,279.313,289.95,278.828,289.666,279.161Z" transform="translate(38.998 36.559)"/><path class="a" d="M287.962,288.188q1.379-1.812,2.761-3.63c.266-.351-.327-.691-.589-.345q-1.379,1.815-2.761,3.63C287.106,288.194,287.7,288.535,287.962,288.188Z" transform="translate(44.02 41.596)"/><path class="a" d="M290.683,254.28l.178-.178a.287.287,0,0,0-.4-.407l-.18.18A.287.287,0,0,0,290.683,254.28Z" transform="translate(46.916 11.034)"/><path class="a" d="M253.136,281.184q-2.257,2.314-4.516,4.634c-.258.264.148.671.407.4q2.257-2.314,4.514-4.634C253.8,281.324,253.395,280.917,253.136,281.184Z" transform="translate(5.121 38.613)"/><path class="a" d="M253.72,301.476q-4.213,2.87-8.426,5.744c-.3.208-.016.707.29.5q4.21-2.873,8.426-5.746C254.313,301.765,254.029,301.268,253.72,301.476Z" transform="translate(1.736 59.012)"/><path class="a" d="M251.571,304.085q-2.416,1.629-4.83,3.25c-.307.2-.018.7.288.5q2.416-1.626,4.83-3.249C252.166,304.377,251.879,303.878,251.571,304.085Z" transform="translate(3.186 61.63)"/><path class="a" d="M249.6,305.429q-.9.631-1.793,1.258c-.3.212-.014.709.29.495l1.791-1.256C250.191,305.715,249.9,305.218,249.6,305.429Z" transform="translate(4.261 62.977)"/><path class="a" d="M249.329,306.129c-.415.19-.827.381-1.242.569-.335.156-.044.651.29.5q.619-.282,1.24-.571C249.952,306.472,249.662,305.977,249.329,306.129Z" transform="translate(4.52 63.702)"/><path class="a" d="M299.052,308.586l-.178.178a.287.287,0,0,0,.4.407l.18-.18A.287.287,0,0,0,299.052,308.586Z" transform="translate(55.542 66.11)"/><path class="a" d="M256.01,309.119a30.443,30.443,0,0,0-4.894,4.978c-.224.288.18.7.407.4a30.589,30.589,0,0,1,4.892-4.978C256.7,309.292,256.3,308.889,256.01,309.119Z" transform="translate(7.642 66.662)"/><path class="a" d="M256.348,309.561a14.72,14.72,0,0,0-3.272,3.648c-.2.311.3.6.495.289a14.232,14.232,0,0,1,3.185-3.53C257.043,309.737,256.634,309.334,256.348,309.561Z" transform="translate(9.628 67.107)"/><path class="a" d="M255.794,310.631c-.479.475-.958.954-1.44,1.43a.288.288,0,0,0,.409.4q.718-.715,1.438-1.43A.287.287,0,0,0,255.794,310.631Z" transform="translate(10.872 68.162)"/><path class="a" d="M256.7,310.733c-.3.3-.6.6-.9.9a.287.287,0,0,0,.407.4q.448-.451.9-.9A.288.288,0,0,0,256.7,310.733Z" transform="translate(12.327 68.266)"/><path class="a" d="M252.934,296.323c-.6.719-1.2,1.434-1.8,2.154-.234.28.17.689.409.407q.9-1.079,1.793-2.154C253.576,296.447,253.171,296.04,252.934,296.323Z" transform="translate(7.661 53.795)"/><path class="a" d="M254.2,301.063a23.551,23.551,0,0,0-3.632,4.361c-.2.311.294.6.5.29a22.927,22.927,0,0,1,3.542-4.247C254.876,301.213,254.469,300.808,254.2,301.063Z" transform="translate(7.111 58.566)"/><path class="a" d="M255.114,268.526a3.913,3.913,0,0,0-1.839,2.278c-.112.351.441.5.553.152a3.321,3.321,0,0,1,1.575-1.933A.287.287,0,0,0,255.114,268.526Z" transform="translate(9.859 25.962)"/><path class="a" d="M264.454,310.329l-2,2.851c-.212.3.285.589.5.289q1-1.427,2-2.851C265.161,310.315,264.665,310.027,264.454,310.329Z" transform="translate(19.033 67.817)"/><path class="a" d="M265.616,310.515l-1.791,2.51c-.216.3.28.589.495.291q.9-1.253,1.793-2.51C266.329,310.5,265.83,310.217,265.616,310.515Z" transform="translate(20.406 68.005)"/><path class="a" d="M268.226,309.557q-1.53,1.881-3.055,3.762c-.232.283.172.691.4.4q1.529-1.881,3.055-3.762C268.861,309.678,268.458,309.269,268.226,309.557Z" transform="translate(21.741 67.072)"/><path class="a" d="M270.221,309.922l-3.6,3.76c-.254.268.15.673.407.407q1.8-1.881,3.594-3.76C270.882,310.06,270.475,309.654,270.221,309.922Z" transform="translate(23.188 67.448)"/><path class="a" d="M271.907,310.18l-2.54,3.027c-.236.28.168.687.407.407q1.268-1.515,2.538-3.027C272.548,310.3,272.144,309.9,271.907,310.18Z" transform="translate(25.949 67.699)"/><path class="a" d="M273.082,310.114q-1.256,1.524-2.512,3.049c-.232.282.172.691.407.4q1.256-1.524,2.51-3.047C273.721,310.236,273.317,309.827,273.082,310.114Z" transform="translate(27.158 67.631)"/><path class="a" d="M272.928,310.4q-.361.9-.717,1.793c-.136.345.417.493.555.152q.358-.9.715-1.793C273.617,310.213,273.064,310.064,272.928,310.4Z" transform="translate(28.853 67.827)"/><path class="a" d="M276.5,310.3q-1.433,1.524-2.867,3.049c-.255.268.15.675.4.407L276.9,310.7C277.156,310.432,276.75,310.025,276.5,310.3Z" transform="translate(30.216 67.822)"/><path class="a" d="M278.321,310.883c-.24.479-.479.956-.717,1.434-.164.329.331.621.495.29l.717-1.434C278.98,310.843,278.485,310.552,278.321,310.883Z" transform="translate(34.252 68.355)"/><path class="a" d="M296.123,260.1q-1.325,1.307-2.644,2.616c-.264.26.142.665.4.407q1.322-1.31,2.644-2.616A.287.287,0,0,0,296.123,260.1Z" transform="translate(50.127 17.458)"/><path class="a" d="M296.887,265.9c.24-.279-.164-.687-.4-.407-.481.559-.958,1.116-1.436,1.675-.238.279.166.687.407.4Z" transform="translate(51.714 22.86)"/><path class="a" d="M295.691,269.362q.838-.956,1.675-1.913c.242-.276-.162-.685-.4-.407l-1.675,1.913C295.044,269.233,295.449,269.64,295.691,269.362Z" transform="translate(51.953 24.417)"/><path class="a" d="M295.915,270.4l2.168-2.138c.262-.26-.142-.665-.407-.409L295.51,270A.287.287,0,0,0,295.915,270.4Z" transform="translate(52.166 25.247)"/><path class="a" d="M299.145,273.7c.335-.152.044-.647-.289-.5a6.506,6.506,0,0,0-2.8,2.446c-.2.315.3.6.495.29A5.983,5.983,0,0,1,299.145,273.7Z" transform="translate(52.752 30.662)"/><path class="a" d="M299.9,273.687q-1.767,1.587-3.534,3.169c-.276.246.132.653.4.407q1.767-1.587,3.536-3.167C300.585,273.845,300.179,273.443,299.9,273.687Z" transform="translate(53.021 31.103)"/><path class="a" d="M297.209,276.583c-.291.224.118.629.4.4q1.079-.835,2.154-1.675c.292-.224-.116-.629-.407-.4Q298.285,275.743,297.209,276.583Z" transform="translate(53.857 32.338)"/><path class="a" d="M298.875,276.828l-1.913,1.913a.287.287,0,0,0,.407.4q.956-.956,1.913-1.913A.287.287,0,0,0,298.875,276.828Z" transform="translate(53.625 34.245)"/><path class="a" d="M301.255,278.229q-2.152,1.794-4.307,3.588c-.282.236.126.641.407.407q2.152-1.794,4.307-3.588C301.944,278.4,301.535,277.995,301.255,278.229Z" transform="translate(53.6 35.666)"/><path class="a" d="M300.431,279.688q-1.193,1.079-2.39,2.154c-.276.248.13.653.4.407.8-.719,1.595-1.436,2.394-2.154C301.112,279.847,300.706,279.442,300.431,279.688Z" transform="translate(54.7 37.124)"/><path class="a" d="M298.712,283.733a4.192,4.192,0,0,1,1.833-2.033c.323-.178.034-.675-.29-.495a4.7,4.7,0,0,0-2.039,2.24C298.071,283.779,298.566,284.071,298.712,283.733Z" transform="translate(54.941 38.683)"/><path class="a" d="M298.8,285.24q.956-1.076,1.913-2.152c.244-.276-.16-.683-.4-.407-.641.717-1.276,1.436-1.915,2.154C298.145,285.109,298.552,285.518,298.8,285.24Z" transform="translate(55.067 40.111)"/><path class="a" d="M298.465,286.681c-.158.333.337.625.495.29a5.315,5.315,0,0,1,2.052-2.29c.315-.192.026-.689-.291-.495A5.828,5.828,0,0,0,298.465,286.681Z" transform="translate(55.187 41.67)"/><path class="a" d="M302.557,285.394c.31-.2.022-.7-.291-.495a12.386,12.386,0,0,0-3.9,3.953c-.194.315.3.6.5.289A11.73,11.73,0,0,1,302.557,285.394Z" transform="translate(55.07 42.382)"/><path class="a" d="M299.255,292.745q1.905-1.923,3.812-3.843a.287.287,0,0,0-.407-.4q-1.905,1.92-3.81,3.841C298.59,292.6,298.994,293.007,299.255,292.745Z" transform="translate(55.52 45.954)"/></g></svg>